<svg xmlns="http://www.w3.org/2000/svg" width="278.8" height="60" viewBox="0 0 278.8 60">
  <g>
    <path d="M51,56.2V51.4l1,.6a23.7,23.7,0,0,1-1,4.2Zm0-8.5A51.5,51.5,0,0,1,55.1,57L62,53.8a56,56,0,0,0-5.6-10.6L51,45.6v2.1Zm0-7.9V33.2h8.7v6.6ZM51,31V24.8h.2V19.6H51V13.5h7.2V31Zm0-20.2V4.3h7.3v6.5Zm0-6.5v6.5H49.3V4.3Zm0,9.2v6.1H49.3V13.5Zm0,11.3V31H49.3V24.8Zm0,8.4v6.6H49.3V33.2Zm0,12.4v2.1A5.9,5.9,0,0,0,50,46l1-.4Zm0,5.8v4.8a4.4,4.4,0,0,1-1.5,2.3h-.2V50.5ZM49.3,4.3v6.5H43.2v2.7h6.1v6.1H47.5v5.2h1.8V31H39.5V24.8h1.6V19.6H39.5V.1h3.7V4.3Zm0,28.9v6.6H40.5a30.7,30.7,0,0,1,5.8,5l-4.5,5.5a14.3,14.3,0,0,0-2.3-2.6V33.2Zm0,17.3-4.2-2.4a16.1,16.1,0,0,1-.4,3.9,2.5,2.5,0,0,1-1.1,1.6H39.5v6a41,41,0,0,0,6.6-.3,8.8,8.8,0,0,0,3.2-.8ZM39.5.1V19.6H38v5.2h1.5V31H29.9V24.8h1.6V19.6H29.9V13.5h6V10.8h-6V4.3h6V.1Zm0,33.1V47.7a25.2,25.2,0,0,0-4-4l3.7-3.9H29.9V33.2Zm0,20.5H36.3c-1-.1-1.4-.9-1.4-2.3V43.9h-5V58.3a5.4,5.4,0,0,0,3.5,1.1,32.3,32.3,0,0,0,4.6.3h1.5ZM29.9,4.3v6.5h-9V4.3Zm0,9.2v6.1H28.2v5.2h1.7V31H21.2V13.5Zm0,19.7v6.6H19.6V33.2Zm0,10.7V58.3a5.5,5.5,0,0,1-2-4.7V43.9ZM19.6,57.3V46.8c.5-1,.9-2.1,1.3-3.1l6.3,3c-1.8,5.3-3.7,9.4-5.8,12.2l-1.8-1.6ZM17.7,3.2l.7.3a5.4,5.4,0,0,0-.7,1.3V3.2Zm1.9,17.6h0a32,32,0,0,1-1.9,3.6V19.5l1.9,1.3Zm0,12.4v6.6h0V33.2Zm0,13.6V57.3l-1.9-1.7V50.9A21.7,21.7,0,0,0,19.6,46.8ZM11.8,0l5.9,3.2V4.8a44.3,44.3,0,0,1-4.5,6.8c-1.3,1.6-2.6,2.8-3.5,4V3.5L11.8,0Zm5.9,19.5v4.9a38.3,38.3,0,0,1-3.3,5.3v30H9.7V22.6a49.4,49.4,0,0,0,3.2-5.9l4.8,2.8Zm0,31.4a22,22,0,0,1-1.9,3l1.9,1.7Zm-8-35.3A44.7,44.7,0,0,1,6,18.9L1,12.5c2-1.7,4-3.7,6.3-6s1.7-2,2.4-3V15.6Zm0,7V59.7H7.2V38L4.9,40.1,0,33.5a59.1,59.1,0,0,0,7.4-8C8.3,24.5,9,23.5,9.7,22.6Z" style="fill: #fff"/>
    <path d="M123.3,9.3l4.2,7.2c-5.7,1.3-12.1,2.4-19.3,3.4V12.2a140.6,140.6,0,0,0,15.1-2.9ZM108.2,24h21.7v7H119.6V50h-8V31h-3.4V24Zm0,34.6V51.4h24v7.2Zm0-50.2V1.3h24V8.4Zm0,11.5-9.1,1V24h9.1v7H98.9c-.1,5.6-.6,9.6-1.5,12.3a21.5,21.5,0,0,1-4.5,7.3l-6.4-5.2a15.6,15.6,0,0,0,3.3-6c1-2.8,1.6-8.3,1.6-16.3V13.9c6.2-.4,11.8-1,16.8-1.7v7.7Zm0-18.6H77.5V60h7.9V58.6h22.8V51.4H85.4V8.4h22.8Z" style="fill: #fff"/>
    <path d="M181.2,5.3h20.3v5.5a49.9,49.9,0,0,1-18.9,17.7l-1.4.8V20.6a38.5,38.5,0,0,0,9.8-8.1h-9.8V5.3Zm0,27.5h22V59.7h-7.5V57H181.2V49.8h14.5V40.1H181.2ZM166.9.1l7.7,2.4A9.7,9.7,0,0,1,173,5.3h8.2v7.2H167.8a1.9,1.9,0,0,0-1,1A56.9,56.9,0,0,1,156.1,23l-6.7-5.2a47.1,47.1,0,0,0,10.2-8.5c3.3-3.3,5.8-6.2,7.3-9.2Zm14.3,29.2V20.6a41.6,41.6,0,0,1-4.7,2.4,79.4,79.4,0,0,0-8.7-6.7l-6.5,4.9a49,49,0,0,1,6.5,5.4,113.2,113.2,0,0,1-21.1,4.6L151,39c2.7-.5,5.6-1,8.2-1.7V59.7h7.6V57h14.4V49.8H166.8V40.1h14.4V32.8h-7.5A74.1,74.1,0,0,0,181.2,29.3Z" style="fill: #fff"/>
    <path d="M262,58.5V51.7a20,20,0,0,0,4.9.7,1.4,1.4,0,0,0,1.4-.8,11.9,11.9,0,0,0,.4-3.2V26.9H262V20h6.7V11.8h7V20h3.1v6.9h-3.1V50c0,3.6-.6,6.1-1.5,7.3s-3.3,2.1-6.2,2.1a17.1,17.1,0,0,1-6-.9Zm0-14.9,4.6-1.6a65.4,65.4,0,0,0-2.8-11l-1.8.5V43.6Zm0-32.8V4.2h16.8v6.6Zm-20,.8h5v2.6h9.8v6.3H247v2.2h7.9V29H242V11.6Zm20-7.4v6.6H242V4.2h20ZM262,20v6.9h-4.7V20Zm0,11.5V43.6l-2.6.8A52.3,52.3,0,0,0,257,33.1l5-1.6Zm0,20.2v6.8l-.9-.3-1.2-7.3,2.1.8Zm-20,6.5V51.4h2l.9-2.1c.5-1.5.9-3,1.4-4.5H242v-6h6.8V36.2H242V30.3h13.5V44.7h-6l3.9,1.3a23.5,23.5,0,0,1-1.8,4.5v.2l4.2-.4,1,6.3C252.1,57.2,247.2,57.8,242,58.2Zm-12.1-44h10.2V11.6H242V29H231.5V22.7h8.6V20.5H229.9V14.2ZM242,4.2H221.9v23q0,7.4-.6,14.4a134.6,134.6,0,0,1-2.2,13.9l6.7,3.9a83.3,83.3,0,0,0,2.4-12.7,120,120,0,0,0,1-16.1V10.8H242V4.2Zm0,26.1v5.9h-4.9v2.5H242v6h-3.6a21.3,21.3,0,0,1,3.1,4.9l-3.6,2.1a27.3,27.3,0,0,0,4.1-.3v6.8l-11.9,1-1.2-7.1h5.3a29.6,29.6,0,0,0-3.5-5.2l3.4-2.1h-3.7V30.3Z" style="fill: #fff"/>
  </g>
</svg>
