<svg xmlns="http://www.w3.org/2000/svg" width="144.1" height="144.4" viewBox="0 0 144.1 144.4">
  <g>
    <path d="M72.1,144.4c-12.5-.3-25-.5-37.5-1-7-.2-13.9-1.7-19.9-5.7s-11.4-12-13-20.5S.2,98.6.1,89.3C0,76.2-.1,63.2.2,50.1A150.1,150.1,0,0,1,1.7,27.8C3.9,12.7,13.9,3.1,29,1.4A277.6,277.6,0,0,1,57.8,0C72.9-.1,88,.1,103.1.3c7.1.2,14.3.6,21,3.3,9.4,3.9,15.2,10.9,17.8,20.5a65.5,65.5,0,0,1,1.9,17.1c.2,17.4.4,34.9.2,52.4a146,146,0,0,1-1.5,22.9c-2.2,15-12.4,24.7-27.5,26.3-8.6.9-17.4,1-26.2,1.3-5.5.2-11.1,0-16.7,0ZM72.1,27a45.1,45.1,0,1,0,45.1,45A45.1,45.1,0,0,0,72.1,27Zm46.8,8.7a10.6,10.6,0,1,0-10.4-10.8A10.6,10.6,0,0,0,118.9,35.7Z" style="fill: #fff"/>
    <path d="M42.9,71.9A29.3,29.3,0,1,1,72,101.3,29.1,29.1,0,0,1,42.9,71.9Z" style="fill: #fff"/>
  </g>
</svg>
