<svg xmlns="http://www.w3.org/2000/svg" xmlns:xlink="http://www.w3.org/1999/xlink" width="184.4" height="96.8" viewBox="0 0 184.4 96.8">
  <defs>
    <linearGradient id="a" data-name="白、黑" x1="-282.22" y1="-5543.14" x2="-186.32" y2="-5543.14" gradientTransform="translate(4133.2 3802.8) rotate(-45)" gradientUnits="userSpaceOnUse">
      <stop offset="0" stop-color="#fff"/>
      <stop offset="1"/>
    </linearGradient>
    <linearGradient id="b" data-name="未命名漸層 7" x1="1450.2" y1="3478.91" x2="1542.93" y2="3478.91" gradientTransform="matrix(-1.12, 0.01, 0.01, -1.12, 1737.79, 3929.3)" gradientUnits="userSpaceOnUse">
      <stop offset="0"/>
      <stop offset="0.72" stop-color="#4d4d4d"/>
    </linearGradient>
  </defs>
  <g>
    <circle cx="47.9" cy="48.9" r="47.4" style="fill: none;stroke-miterlimit: 10;stroke: url(#a)"/>
    <path d="M135.5,95.8,33.7,47.9,136,.5" style="fill: none;stroke-miterlimit: 10;stroke: url(#b)"/>
    <g>
      <path d="M123.8,57.9c0-1,.1-2.5.1-3.9V35.7h2.7v9.5h.1a5.6,5.6,0,0,1,5.1-2.7c3.8,0,6.4,3.1,6.4,7.7s-3.4,8.1-6.8,8.1a5.3,5.3,0,0,1-5-2.9h-.1l-.2,2.5Zm2.8-6c0,.3.1.7.1,1a4.4,4.4,0,0,0,4.2,3.2c2.8,0,4.6-2.3,4.6-5.8s-1.6-5.6-4.5-5.6a4.2,4.2,0,0,0-4.2,3.3,3.7,3.7,0,0,0-.2,1.2Z" style="stroke: #000;stroke-miterlimit: 10"/>
      <path d="M150.1,57.9l-.3-1.9h0a5.8,5.8,0,0,1-4.7,2.3,4.4,4.4,0,0,1-4.6-4.4c0-3.6,3.2-5.6,9.1-5.6V48c0-1.3-.3-3.5-3.4-3.5a7.5,7.5,0,0,0-4,1.1l-.6-1.8a9.5,9.5,0,0,1,5-1.3c4.6,0,5.7,3.1,5.7,6.2v5.6a19.4,19.4,0,0,0,.3,3.6Zm-.4-7.7c-3,0-6.5.5-6.5,3.4a2.5,2.5,0,0,0,2.6,2.7,3.8,3.8,0,0,0,3.7-2.6,2.9,2.9,0,0,0,.2-.9Z" style="stroke: #000;stroke-miterlimit: 10"/>
      <path d="M167.5,57.4a9.5,9.5,0,0,1-4.3.9c-4.6,0-7.5-3.1-7.5-7.8s3.1-8,8.1-8a8.6,8.6,0,0,1,3.8.8l-.6,2.1a6.3,6.3,0,0,0-3.2-.7c-3.5,0-5.4,2.6-5.4,5.7s2.3,5.7,5.3,5.7a7.1,7.1,0,0,0,3.4-.8Z" style="stroke: #000;stroke-miterlimit: 10"/>
      <path d="M173.5,49.8h0l1.4-1.8,4.4-5.2h3.3L176.8,49l6.7,8.9h-3.4l-5.2-7.2-1.4,1.6v5.6h-2.7V35.7h2.7Z" style="stroke: #000;stroke-miterlimit: 10"/>
    </g>
  </g>
</svg>
