<svg xmlns="http://www.w3.org/2000/svg" width="622.1" height="134" viewBox="0 0 622.1 134">
  <path d="M80.1,24.9v5.9H47.2V69.9h82.6V30.8H96.3V24.9h33.8V10.5H96.3V1.1H80.1v9.4H46.6V24.9H80.1ZM70.4,56.1H62.8V44.6h7.6ZM106,44.6h8.1V56.1H106Zm-21.3,0h6.9V56.1H84.7Zm25.4,45H90.4a62,62,0,0,1,12.8,11.2L93.2,113a47.2,47.2,0,0,0-5-5.9,75.2,75.2,0,0,0-9.1-8.8l8.5-8.7H43.8V74.9h89.4V89.6H110.1Zm28.1,31.2L122.9,128a118,118,0,0,0-9.1-20.9,24,24,0,0,0-2.1-3.8l2.1-.9,11.9-5.3A113.5,113.5,0,0,1,138.2,120.8Zm-24.4-5.3,2.2,1.3c-.6,3.7-1.2,7.2-2.2,9.4s-1.8,4-3.4,5l-.3.3a23,23,0,0,1-7.2,1.8c-1.9.4-6.9.7-14.7.7H84.7a82,82,0,0,1-10.3-.7,12.7,12.7,0,0,1-7.8-2.4c-2.8-2.3-4.4-5.7-4.4-10.6V98.6H77.9v16.9c0,3.1.9,4.8,3.1,5,.6,0,2.2.3,3.7.3a12.7,12.7,0,0,0,3.5-.3,89.2,89.2,0,0,0,9.1-.2,5.9,5.9,0,0,0,2.5-3.5,56.9,56.9,0,0,0,.9-8.8l9.4,5.4ZM46.6,98.3l14.1,6.6c-4.1,11.9-8.2,21-12.8,27.2l-4.1-3.5-4.4-3.7-4.1-3.8a45.4,45.4,0,0,0,4.1-6.8,47.8,47.8,0,0,0,4.4-9.1ZM39.4,55.2A83,83,0,0,1,32.2,67v67H16V85.5a31.2,31.2,0,0,1-5.1,4.7L0,75.5c5.3-4.4,10.6-10.6,16.6-17.8,1.8-2.2,3.4-4.4,5-6.6A100.6,100.6,0,0,0,28.8,38l10.6,6.2,4.4,2.9C42.5,49.5,41.3,52.3,39.4,55.2ZM13.4,43,2.2,28.6A185.6,185.6,0,0,0,16.3,15.2c1.8-2.2,3.7-4.5,5.3-6.6S25,3.3,26.3.8L39.4,8l1.6.6c-.6.9-1,1.9-1.6,2.8a83.3,83.3,0,0,1-10,15.3c-2.8,3.5-5.6,6.2-7.8,8.8S15.7,41.1,13.4,43ZM240.6,2.5h53.6v16H189.5v96.2H294.2v16H189.5v3.1H171.9V2.5Zm7.5,109.1V69H219.9c-.3,12.5-1.6,21.6-3.5,27.5a48.9,48.9,0,0,1-10,16.3L192,101.2a36.9,36.9,0,0,0,7.5-13.5c2.2-6.2,3.5-18.4,3.5-36.3V30.7c13.8-.9,26.3-2.2,37.6-3.7,12.8-1.9,24.1-4.2,33.9-6.6l9.4,16.3c-12.9,2.8-27.3,5.3-43.3,7.5-6.6.6-13.5,1.5-20.4,2.2v6.9h69V69H266v42.6ZM387,73a176,176,0,0,0,16.9-7.8,30.1,30.1,0,0,1,3.2-1.9c16.9-8.8,31-21.9,42.3-39.5V11.6h-64a27.1,27.1,0,0,0,3.8-6.3L372,0c-3.5,6.6-9.2,13.1-16.4,20.4a103.3,103.3,0,0,1-22.8,19.1l15,11.6a129.7,129.7,0,0,0,23.8-21.3,7.7,7.7,0,0,1,2.2-2.2h52.1a83.9,83.9,0,0,1-22,18.1,95.9,95.9,0,0,1-10.6,5.4,144.5,144.5,0,0,0-19.5-15L359.4,47a123.4,123.4,0,0,1,14.4,12.2c-13.1,4.4-28.8,7.9-47,10.3l9.4,17.3a183.4,183.4,0,0,0,18.5-3.7v50.1h16.9v-6h64.6v6h16.9V73H387Zm49.2,16.3V111H371.6V89.3h64.6Zm179-44.8h6.9V59.9h-6.9v51.7c0,7.9-1.2,13.5-3.4,16.3s-7.3,4.7-13.8,4.7a38.6,38.6,0,0,1-13.5-2.2c-.6-.3-1.3-.3-1.9-.6l-2.8-16.4,4.7,2a45.6,45.6,0,0,0,11,1.5c1.5,0,2.8-.6,3.1-1.9a21.7,21.7,0,0,0,.9-7.2V59.9H574.1V44.5h25.4V26h15.7Zm-53.9,68.6v-.6a44.9,44.9,0,0,0,4.1-10l-8.8-2.8h13.5V67.4H513.9V99.7h8.2l-7.5,4.7a57.5,57.5,0,0,1,7.8,11.6c-4.1,0-7.8.3-11.9.3l2.8,15.7c9.1-.7,18.2-1.3,26.7-2.2,11.6-1,22.6-2.2,32.9-3.5l-2.2-14.1Zm-15.1-3.4c-.6,1.6-1.2,3.1-1.9,4.7a20.8,20.8,0,0,1-4.3.3c-3.2.3-6.3.7-9.4.7l8.1-4.7a53.2,53.2,0,0,0-6.9-11h17.6C548.4,103.1,547.5,106.3,546.2,109.7ZM555,86.2H529V80.5h26ZM622.1,9.1V23.8h-111V68a264.2,264.2,0,0,1-2.2,36.1,187,187,0,0,1-5.3,28.5l-15-8.8c2.5-11.9,4-22.2,5-31,.9-10.7,1.2-21.3,1.2-32.3V9.1H622.1ZM584.5,97.2l-5.7,1.9a135.2,135.2,0,0,0-5.3-25.4l11-3.5,4.1-1.2a131.1,131.1,0,0,1,6.2,24.7ZM550.9,31.3h22V45.4h-22v5.1h17.9V64.6H516.5V50.5h19.1V45.4H512.7V31.3h22.9V25.7h15.3Z" style="fill: none"/>
</svg>
