<svg xmlns="http://www.w3.org/2000/svg" width="1821.3" height="369.4" viewBox="0 0 1821.3 369.4">
  <g>
    <path d="M18.1,74.3A18.1,18.1,0,0,1,36.3,92.5,17.5,17.5,0,0,1,31,105.3a17.7,17.7,0,0,1-12.9,5.3,17.5,17.5,0,0,1-12.8-5.3A17.5,17.5,0,0,1,0,92.5,17.9,17.9,0,0,1,5.3,79.6,17.5,17.5,0,0,1,18.1,74.3ZM27.9,365H8V160.6H27.9Z"/>
    <path d="M123.9,192.4h.9a67.1,67.1,0,0,1,24.7-26.5c10.6-6.5,22.6-9.7,35.9-9.7s24.1,2,32.7,5.9a50.8,50.8,0,0,1,20.6,17.1c5.1,7.3,8.7,16.3,10.8,26.7a183.3,183.3,0,0,1,3.1,35.7V365H232.7V241.6a234.9,234.9,0,0,0-1.3-25.9,57.8,57.8,0,0,0-6.4-21.3,36.7,36.7,0,0,0-14.9-14.3c-6.5-3.6-15.3-5.4-26.5-5.4-13,0-23.4,2.8-31.2,8.2a54.2,54.2,0,0,0-17.9,21,98.7,98.7,0,0,0-8.4,28.8,224.1,224.1,0,0,0-2.2,31.4V365H104V160.6h19.9Z"/>
    <path d="M342.9,365h-20V179.2H300.4V160.6h22.5v-73h20v73h35.8v18.6H342.9Z"/>
    <path d="M433.1,187.1h.9a56.5,56.5,0,0,1,17-22.5c7.2-5.6,16.3-8.4,27.2-8.4a43.9,43.9,0,0,1,11.3,1.3,90.9,90.9,0,0,1,10.4,3.5l-10.6,17.7a29.5,29.5,0,0,0-6.9-3.1,27.5,27.5,0,0,0-7.3-.9c-11.2,0-19.7,3.1-25.4,9.3a54.2,54.2,0,0,0-12.4,22.6,110.8,110.8,0,0,0-4,28.1c-.1,9.9-.2,18.5-.2,25.9V365H413.2V160.6h19.9Z"/>
    <path d="M622.5,156.2a108,108,0,0,1,42.2,8.2,106.2,106.2,0,0,1,0,196.8,108,108,0,0,1-42.2,8.2,102.1,102.1,0,0,1-41.4-8.4,106.3,106.3,0,0,1-33.6-23,110.7,110.7,0,0,1-22.8-33.8,101.6,101.6,0,0,1-8.4-41,106.1,106.1,0,0,1,64.6-98.6A103.4,103.4,0,0,1,622.5,156.2Zm-1.4,18.5a81.3,81.3,0,0,0-33.8,7.1,82.2,82.2,0,0,0-27,19.3,91.7,91.7,0,0,0-24.1,62.1,87.6,87.6,0,0,0,6.4,33.2,88.7,88.7,0,0,0,17.9,28.1,86.3,86.3,0,0,0,27,19.2,78.5,78.5,0,0,0,33.6,7.1,92.7,92.7,0,0,0,35-6.6,83.9,83.9,0,0,0,28.3-18.6,88,88,0,0,0,18.8-27.9,85.7,85.7,0,0,0,6.8-34.5,88.2,88.2,0,0,0-6.8-35.1A86.7,86.7,0,0,0,684.4,200a84.1,84.1,0,0,0-28.1-18.6A92.3,92.3,0,0,0,621.1,174.7Z"/>
    <path d="M937.9,328.3H937a70.3,70.3,0,0,1-14.4,17.4,89.2,89.2,0,0,1-19,13.1,97.2,97.2,0,0,1-21.9,8,104.5,104.5,0,0,1-22.6,2.6q-23.4,0-42-8.4a93.7,93.7,0,0,1-31.6-23,104.8,104.8,0,0,1-20.2-34.3,124.2,124.2,0,0,1-7-42.2,120.2,120.2,0,0,1,7-41.8,100.8,100.8,0,0,1,20-33.4,87.8,87.8,0,0,1,31.4-22.2c12.4-5.3,26.2-7.9,41.6-7.9a103.1,103.1,0,0,1,44.9,10.1A83.6,83.6,0,0,1,937,196h.9V0h19.9V365H937.9Zm-79.2,22.5c13,0,24.5-2.4,34.5-7.3a72.4,72.4,0,0,0,25.2-19.9,87.9,87.9,0,0,0,15.5-29.2,115.8,115.8,0,0,0,5.3-35.2,95.1,95.1,0,0,0-5.7-33.1,77.3,77.3,0,0,0-16.6-26.8A81.6,81.6,0,0,0,891,181.4a82.6,82.6,0,0,0-33.6-6.7,72,72,0,0,0-32.3,7.3,78.6,78.6,0,0,0-25,19.5,90,90,0,0,0-16.2,27.9,93.7,93.7,0,0,0-5.7,32.1,103.2,103.2,0,0,0,5.5,33.8,85.3,85.3,0,0,0,16.2,28.5,76.7,76.7,0,0,0,25.4,19.7C835.2,348.4,846.3,350.8,858.7,350.8Z"/>
    <path d="M1169.7,160.6V283.1c0,10.4-.4,20.6-1.3,30.8a53.6,53.6,0,0,1-11.1,28.1,63,63,0,0,1-27.2,20.8,90.1,90.1,0,0,1-67.7,0,63.6,63.6,0,0,1-27.2-20.8,53.6,53.6,0,0,1-11.1-28.1c-.8-10.2-1.3-20.4-1.3-30.8V160.6h19.9V276.1a237.9,237.9,0,0,0,1.6,28.3,68.3,68.3,0,0,0,6.8,23.9,41.1,41.1,0,0,0,16,16.3c7,4.2,16.8,6.2,29.2,6.2s22.1-2,29.2-6.2a41.5,41.5,0,0,0,15.9-16.3,68.3,68.3,0,0,0,6.8-23.9,237.9,237.9,0,0,0,1.6-28.3V160.6Z"/>
    <path d="M1256.8,365h-19.9V179.2h-22.5V160.6h22.5v-73h19.9v73h35.9v18.6h-35.9Z"/>
    <path d="M1344.9,74.3A18.1,18.1,0,0,1,1363,92.5a17.1,17.1,0,0,1-5.3,12.8,18.1,18.1,0,0,1-25.6,0,17.2,17.2,0,0,1-5.4-12.8,18.3,18.3,0,0,1,18.2-18.2Zm9.7,290.7h-19.9V160.6h19.9Z"/>
    <path d="M1517,156.2a108,108,0,0,1,42.2,8.2,106.1,106.1,0,0,1,34.1,22.3,103.9,103.9,0,0,1,22.8,33.8,110.5,110.5,0,0,1,0,84.5,104.3,104.3,0,0,1-22.8,33.9,106.1,106.1,0,0,1-34.1,22.3,108,108,0,0,1-42.2,8.2,102.1,102.1,0,0,1-41.4-8.4,107.4,107.4,0,0,1-33.6-23,110.7,110.7,0,0,1-22.8-33.8,101.6,101.6,0,0,1-8.4-41,105.7,105.7,0,0,1,8.2-41.6,107.8,107.8,0,0,1,22.5-34,104.9,104.9,0,0,1,33.9-23A103.8,103.8,0,0,1,1517,156.2Zm-1.4,18.5a82.5,82.5,0,0,0-60.8,26.4,91.7,91.7,0,0,0-24.1,62.1,87.6,87.6,0,0,0,6.4,33.2,90.4,90.4,0,0,0,17.9,28.1,86.3,86.3,0,0,0,27,19.2,78.5,78.5,0,0,0,33.6,7.1,92.7,92.7,0,0,0,35-6.6,83.9,83.9,0,0,0,28.3-18.6,88,88,0,0,0,18.8-27.9,85.7,85.7,0,0,0,6.9-34.5,88.3,88.3,0,0,0-6.9-35.1,86.7,86.7,0,0,0-18.8-28.1,84.1,84.1,0,0,0-28.1-18.6A92.3,92.3,0,0,0,1515.6,174.7Z"/>
    <path d="M1692.6,192.4h.9a66.6,66.6,0,0,1,24.8-26.5c10.6-6.5,22.5-9.7,35.8-9.7s24.2,2,32.7,5.9a50.8,50.8,0,0,1,20.6,17.1c5.2,7.3,8.8,16.3,10.8,26.7a183.3,183.3,0,0,1,3.1,35.7V365h-19.9V241.6a234.9,234.9,0,0,0-1.3-25.9,56,56,0,0,0-6.4-21.3,36.5,36.5,0,0,0-14.8-14.3c-6.5-3.6-15.4-5.4-26.6-5.4-13,0-23.3,2.8-31.2,8.2a55,55,0,0,0-17.9,21,98.7,98.7,0,0,0-8.4,28.8,224.1,224.1,0,0,0-2.2,31.4V365h-19.9V160.6h19.9Z"/>
  </g>
</svg>
