<svg xmlns="http://www.w3.org/2000/svg" xmlns:xlink="http://www.w3.org/1999/xlink" width="70.6" height="169.6" viewBox="0 0 70.6 169.6">
  <defs>
    <linearGradient id="a" data-name="白、黑 2" x1="-8609.61" y1="-1896.23" x2="-8570.24" y2="-1896.23" gradientTransform="translate(6491.4 -5915.5) rotate(-55.2)" gradientUnits="userSpaceOnUse">
      <stop offset="0" stop-color="#fff"/>
      <stop offset="1" stop-color="#040000"/>
    </linearGradient>
    <linearGradient id="b" x1="-2370.31" y1="-454.88" x2="-2370.31" y2="-568.06" gradientTransform="translate(-2334.4 -398.5) rotate(180)" xlink:href="#a"/>
  </defs>
  <g>
    <g>
      <path d="M5.6,10.3a1.8,1.8,0,0,0-.8-.9,2,2,0,0,0-1.1-.3H3.1l-.6.4a1,1,0,0,0-.4.5,1.4,1.4,0,0,0-.2.6,1.1,1.1,0,0,0,.4,1,3.1,3.1,0,0,0,.9.7l1.3.4,1.3.6a4.3,4.3,0,0,1,.9,1,2.1,2.1,0,0,1,.4,1.5,2.8,2.8,0,0,1-.3,1.3,4.1,4.1,0,0,1-.7,1.1A4.1,4.1,0,0,1,5,19l-1.3.2a4,4,0,0,1-2.4-.7A3.8,3.8,0,0,1,0,16.4l1-.3a3.1,3.1,0,0,0,1,1.5,2.4,2.4,0,0,0,1.7.6,2.3,2.3,0,0,0,1.7-.7A2.4,2.4,0,0,0,6,15.8a1.9,1.9,0,0,0-.1-.8l-.5-.6-.7-.3a1.1,1.1,0,0,0-.7-.3l-1.1-.5-1-.5a3.4,3.4,0,0,1-.8-.9,3.1,3.1,0,0,1-.2-1.1,3.6,3.6,0,0,1,.2-1.1l.6-.8a2.1,2.1,0,0,1,1-.6l1.1-.2a3.7,3.7,0,0,1,1.6.5A2.5,2.5,0,0,1,6.5,9.8Z" style="fill: #b2b2b3"/>
      <path d="M23,10.8a9.6,9.6,0,0,0-1.7-1.3,4.6,4.6,0,0,0-2.1-.4,3.3,3.3,0,0,0-1.7.4,2.8,2.8,0,0,0-1.4,1,7.1,7.1,0,0,0-1,1.4,5.1,5.1,0,0,0-.3,1.7,5.7,5.7,0,0,0,.3,1.8,7.1,7.1,0,0,0,1,1.4,4.5,4.5,0,0,0,1.3,1.1,5.7,5.7,0,0,0,1.8.3,3.8,3.8,0,0,0,2.1-.5,4.9,4.9,0,0,0,1.8-1.4v1.4a4.2,4.2,0,0,1-1.8,1.1,5.2,5.2,0,0,1-2.1.4,4.6,4.6,0,0,1-2.1-.4,5.7,5.7,0,0,1-1.8-1.2,5.4,5.4,0,0,1-1.1-1.8,5.4,5.4,0,0,1-.4-2.2,5.2,5.2,0,0,1,.4-2.1,5.4,5.4,0,0,1,1.1-1.8,5.7,5.7,0,0,1,1.8-1.2,7.2,7.2,0,0,1,2.2-.4,6.3,6.3,0,0,1,1.9.3l1.8,1Z" style="fill: #b2b2b3"/>
      <path d="M31.9,9.7h0a2,2,0,0,1,.9-1.1,2.4,2.4,0,0,1,1.4-.5h.6l.5.2-.5.9-.4-.2h-.3a1.6,1.6,0,0,0-1.4.5,2.4,2.4,0,0,0-.6,1.1,7.7,7.7,0,0,0-.2,1.5V19H30.8V8.3h1.1Z" style="fill: #b2b2b3"/>
      <path d="M46.8,8.1a7.8,7.8,0,0,1,2.2.4,4.3,4.3,0,0,1,1.7,1.2,5.7,5.7,0,0,1,1.2,1.8,5.1,5.1,0,0,1,.5,2.2,5.9,5.9,0,0,1-.5,2.2,6.6,6.6,0,0,1-1.2,1.7A4.3,4.3,0,0,1,49,18.8a6.2,6.2,0,0,1-4.4,0,6.6,6.6,0,0,1-1.7-1.2,5.7,5.7,0,0,1-1.2-1.8,5.2,5.2,0,0,1-.4-2.1,5.4,5.4,0,0,1,.4-2.2,5.2,5.2,0,0,1,1.2-1.7,3.3,3.3,0,0,1,1.7-1.2A5.4,5.4,0,0,1,46.8,8.1Zm-.1,1a3.3,3.3,0,0,0-1.7.4,3.1,3.1,0,0,0-1.5,1l-.9,1.4a5.7,5.7,0,0,0-.3,1.8,4.7,4.7,0,0,0,.3,1.7,7.8,7.8,0,0,0,1,1.5,5,5,0,0,0,1.4,1,4.7,4.7,0,0,0,1.7.3,4.8,4.8,0,0,0,1.8-.3,4,4,0,0,0,1.5-1,7.1,7.1,0,0,0,1-1.4,5.7,5.7,0,0,0,.3-1.8,4.8,4.8,0,0,0-.3-1.8,5.6,5.6,0,0,0-1-1.5,5.6,5.6,0,0,0-1.5-1A4.8,4.8,0,0,0,46.7,9.1Z" style="fill: #b2b2b3"/>
      <path d="M61,19H59.9V0H61Z" style="fill: #b2b2b3"/>
      <path d="M70.6,19h-1V0h1Z" style="fill: #b2b2b3"/>
    </g>
    <g>
      <circle cx="35.9" cy="60.2" r="19.4" transform="translate(-31.5 40.8) rotate(-43.2)" style="fill: none;stroke-miterlimit: 10;stroke-width: 0.5px;stroke: url(#a)"/>
      <line x1="35.9" y1="169.6" x2="35.9" y2="56.4" style="fill: none;stroke-miterlimit: 10;stroke-width: 0.5px;stroke: url(#b)"/>
    </g>
  </g>
</svg>
