<svg xmlns="http://www.w3.org/2000/svg" width="1360.3" height="424" viewBox="0 0 1360.3 424">
  <g>
    <path d="M48,419H25.5V209H0V188H25.5V84.5c0-8.7.4-18.3,1.2-29S30.2,35.7,34.5,28A52.2,52.2,0,0,1,56.2,7,64.4,64.4,0,0,1,86,0a55.6,55.6,0,0,1,20,3.5V24l-9-2a41.9,41.9,0,0,0-9.5-1c-9.7,0-17.2,2.2-22.5,6.5A38,38,0,0,0,53.2,44a76.1,76.1,0,0,0-4.5,22c-.5,8-.7,15.7-.7,23v99h58v21H48Z"/>
    <path d="M145.5,305.5c-.4,14.6,1.7,28,6.2,40A85.8,85.8,0,0,0,171,376.2,86.9,86.9,0,0,0,200.7,396a99.4,99.4,0,0,0,37.3,7c18,0,34-4.9,48-14.5a107.1,107.1,0,0,0,33.5-38l19,11q-16,30-42.5,46.2c-17.7,10.8-38,16.3-61,16.3-17,0-32.4-3.3-46.3-9.8A110.4,110.4,0,0,1,153.2,388a115.6,115.6,0,0,1-22.5-38.5A140.9,140.9,0,0,1,123,303a130.2,130.2,0,0,1,8-45.8A117.4,117.4,0,0,1,153.7,219,111,111,0,0,1,189,192.7c13.6-6.5,29-9.7,46-9.7s32.9,3.2,46.7,9.7a103.7,103.7,0,0,1,35,26.5,118.1,118.1,0,0,1,21.8,39,147.4,147.4,0,0,1,7.5,47.3Zm178-21a95.5,95.5,0,0,0-9.3-30.5,92.7,92.7,0,0,0-19-25.8,88.8,88.8,0,0,0-26.7-17.7,81,81,0,0,0-33-6.5,85.2,85.2,0,0,0-33.3,6.5A91.2,91.2,0,0,0,174.5,228a95,95,0,0,0-19.8,25.5,81.3,81.3,0,0,0-9.2,31Z"/>
    <path d="M603.4,419H580.9V377.5h-1a82.3,82.3,0,0,1-16.2,19.7A102.7,102.7,0,0,1,542.2,412a108.2,108.2,0,0,1-24.8,9,112.3,112.3,0,0,1-25.5,3c-17.6,0-33.5-3.2-47.5-9.5a106.2,106.2,0,0,1-35.7-26,119.1,119.1,0,0,1-22.8-38.8A140.4,140.4,0,0,1,378,302a136.9,136.9,0,0,1,7.9-47.3A115.6,115.6,0,0,1,408.4,217a100.6,100.6,0,0,1,35.5-25c14-6,29.7-9,47-9a114.9,114.9,0,0,1,50.8,11.5A93.1,93.1,0,0,1,579.9,228h1V188h22.5ZM489.9,204a80.5,80.5,0,0,0-36.5,8.2,89.6,89.6,0,0,0-28.2,22A105.5,105.5,0,0,0,400.4,302a116.4,116.4,0,0,0,6.3,38.2,98.7,98.7,0,0,0,18.2,32.3,89.7,89.7,0,0,0,28.8,22.2c11.2,5.5,23.7,8.3,37.7,8.3s27.7-2.8,39-8.3a81,81,0,0,0,28.5-22.5,100.3,100.3,0,0,0,17.5-33,129.3,129.3,0,0,0,6-39.7,104.8,104.8,0,0,0-6.5-37.5,86.9,86.9,0,0,0-18.7-30.3,90.7,90.7,0,0,0-29.3-20.2C516.6,206.5,503.9,204,489.9,204Z"/>
    <path d="M705.4,419H682.9V209H657.4V188h25.5V105.5h22.5V188h40.5v21H705.4Z"/>
    <path d="M947.4,188V326.5c0,11.6-.5,23.2-1.5,34.7A60.9,60.9,0,0,1,933.4,393a71,71,0,0,1-30.8,23.5,101.3,101.3,0,0,1-76.5,0A70.7,70.7,0,0,1,795.4,393a60.9,60.9,0,0,1-12.5-31.8c-1-11.5-1.5-23.1-1.5-34.7V188h22.5V318.5a278.2,278.2,0,0,0,1.8,32,75.5,75.5,0,0,0,7.7,27,46.3,46.3,0,0,0,18,18.5c8,4.6,19,7,33,7s25-2.4,33-7a46.3,46.3,0,0,0,18-18.5,75.5,75.5,0,0,0,7.7-27,278.2,278.2,0,0,0,1.8-32V188Z"/>
    <path d="M1043.4,218h1q6.9-16,19.2-25.5c8.2-6.3,18.4-9.5,30.8-9.5a50.3,50.3,0,0,1,12.7,1.5,86.5,86.5,0,0,1,11.8,4l-12,20a26.5,26.5,0,0,0-7.8-3.5,30.2,30.2,0,0,0-8.2-1q-19.1,0-28.8,10.5a61,61,0,0,0-14,25.5,125.7,125.7,0,0,0-4.5,31.7c-.2,11.2-.2,20.9-.2,29.3V419h-22.5V188h22.5Z"/>
    <path d="M1159.9,305.5c-.4,14.6,1.7,28,6.2,40a85.8,85.8,0,0,0,19.3,30.7,86.9,86.9,0,0,0,29.7,19.8,99.3,99.3,0,0,0,37.2,7c18,0,34-4.9,48-14.5a106.1,106.1,0,0,0,33.5-38l19,11q-15.9,30-42.5,46.2c-17.6,10.8-38,16.3-61,16.3-17,0-32.4-3.3-46.2-9.8a109.3,109.3,0,0,1-35.5-26.2,115.6,115.6,0,0,1-22.5-38.5,138.3,138.3,0,0,1-7.7-46.5,130.2,130.2,0,0,1,8-45.8,117.4,117.4,0,0,1,22.7-38.2,110.6,110.6,0,0,1,35.2-26.3c13.7-6.5,29-9.7,46-9.7s33,3.2,46.8,9.7a103.7,103.7,0,0,1,35,26.5,117.9,117.9,0,0,1,21.7,39,147.4,147.4,0,0,1,7.5,47.3Zm177.9-21a92.9,92.9,0,0,0-9.2-30.5,94.7,94.7,0,0,0-19-25.8,89.3,89.3,0,0,0-26.8-17.7,81,81,0,0,0-33-6.5,85.1,85.1,0,0,0-33.2,6.5,91.7,91.7,0,0,0-27.8,17.5,96.7,96.7,0,0,0-19.7,25.5,79.6,79.6,0,0,0-9.2,31Z"/>
  </g>
</svg>
