<svg xmlns="http://www.w3.org/2000/svg" width="1920" height="427.3" viewBox="0 0 1920 427.3">
  <g>
    <polygon points="1872.3 3 1594.3 3 1594.3 92.7 1679.2 92.7 1679.2 424.8 1791.1 424.8 1791.1 92.7 1872.3 92.7 1872.3 3"/>
    <rect x="641.1" y="2.7" width="108.2" height="421.83"/>
    <polygon points="591.6 92.5 591.6 2.7 308.1 2.7 308.1 424.6 588.1 424.6 588.1 331.2 419.1 331.2 419.1 262.1 538.7 262.1 538.7 161.5 419.1 161.5 419.1 92.5 591.6 92.5"/>
    <polygon points="0 2.7 0 424.6 255.3 424.6 255.3 330.7 112.8 330.7 112.8 2.7 0 2.7"/>
    <polygon points="1541.5 424.8 1541.5 3 1430.5 3 1430.5 161.3 1307.7 161.3 1307.7 3 1196.7 3 1196.7 424.8 1307.7 424.8 1307.7 262.5 1430.5 262.5 1430.5 424.8 1541.5 424.8"/>
    <path d="M1858.8,365.4a33.2,33.2,0,0,0,0,46.5,31.2,31.2,0,0,0,23.1,9.6,31.6,31.6,0,0,0,23.2-9.6,33.2,33.2,0,0,0,0-46.5,32.7,32.7,0,0,0-46.3,0Zm50.1,50.2a38,38,0,0,1-64.9-27,37.9,37.9,0,0,1,37.9-37.9,36.9,36.9,0,0,1,27,11.1,36.3,36.3,0,0,1,11.1,26.8,37.1,37.1,0,0,1-11.1,27Zm-19.8-41.4c-1.9-1-4.8-1.6-8.9-1.6h-6.3v15.2h6.7a20.4,20.4,0,0,0,7-1,6.4,6.4,0,0,0,4.3-6.5c0-3-1-5.1-2.8-6.1Zm-7.9-6.6q7.8,0,11.4,1.5c4.3,1.8,6.5,5.3,6.5,10.6a9.2,9.2,0,0,1-4.1,8.2,15.1,15.1,0,0,1-6.1,2c3.3.6,5.7,1.9,7.2,4.1a11.7,11.7,0,0,1,2.3,6.5v3.1c0,.9,0,2,.1,3.1a5.8,5.8,0,0,0,.4,2.1l.2.6h-6.9a.9.9,0,0,0-.1-.5.8.8,0,0,0-.1-.4v-4.7c0-4.8-1.3-8-4-9.6s-4.3-1.3-8.2-1.3h-5.8v16.5h-7.3V367.6Z" style="fill-rule: evenodd"/>
    <path d="M1015.8,0C898,0,802.1,95.8,802.1,213.7S898,427.3,1015.8,427.3a213.7,213.7,0,0,0,139-51.3l-75.1-75a111.8,111.8,0,0,1-24.2,13.3,107.3,107.3,0,0,1-39.7,7.5c-59.6,0-108.2-48.5-108.2-108.1a108.3,108.3,0,0,1,108.2-108.2,104.6,104.6,0,0,1,60.4,18.6l75.4-75.4a212.6,212.6,0,0,0-55.7-33.1A210.5,210.5,0,0,0,1015.8,0Z"/>
  </g>
</svg>
