<svg xmlns="http://www.w3.org/2000/svg" width="1116.3" height="463.5" viewBox="0 0 1116.3 463.5">
  <g>
    <path d="M221.5,260.9Q203.2,241,181,230.1t-50-10.8a100.6,100.6,0,0,0-42.2,8.8,106.9,106.9,0,0,0-33.6,24.2A115.5,115.5,0,0,0,33,287.5a112.1,112.1,0,0,0-8,41.7,114.8,114.8,0,0,0,30.2,77.4A110.3,110.3,0,0,0,88.5,431a96.3,96.3,0,0,0,41.9,9.2,113.2,113.2,0,0,0,52.2-12.5,133.5,133.5,0,0,0,42.2-33.6V428a142,142,0,0,1-43.3,26.4,137.9,137.9,0,0,1-49.9,9.1,129.3,129.3,0,0,1-94.1-39.1A131.9,131.9,0,0,1,10,381.9,142.5,142.5,0,0,1,10,277a131.9,131.9,0,0,1,27.7-42.5,131.2,131.2,0,0,1,42-28.3A133.1,133.1,0,0,1,132.1,196a143.8,143.8,0,0,1,47.5,7.7,135.5,135.5,0,0,1,41.9,23.9Z"/>
    <path d="M398,196a137.5,137.5,0,0,1,53,10.2,133.7,133.7,0,0,1,42.8,28.1,130.8,130.8,0,0,1,28.5,42.4,137.8,137.8,0,0,1,0,106,130.2,130.2,0,0,1-28.5,42.5,131.8,131.8,0,0,1-42.8,28,135.7,135.7,0,0,1-53,10.3A128.7,128.7,0,0,1,346.1,453a134.9,134.9,0,0,1-42.2-28.9,141.3,141.3,0,0,1-28.6-42.5,127.3,127.3,0,0,1-10.5-51.3,133.5,133.5,0,0,1,38.6-94.9A131.6,131.6,0,0,1,398,196Zm-1.7,23.3a102.2,102.2,0,0,0-42.4,8.8A104.9,104.9,0,0,0,320,252.3a114.6,114.6,0,0,0-22.2,35.5,113.4,113.4,0,0,0-8,42.5,109.6,109.6,0,0,0,8,41.6,113.1,113.1,0,0,0,22.5,35.3,106.4,106.4,0,0,0,33.9,24.1,100.3,100.3,0,0,0,42.1,8.9,116.6,116.6,0,0,0,43.9-8.3,106.3,106.3,0,0,0,35.5-23.3,110.8,110.8,0,0,0,23.6-35,109,109,0,0,0,8.6-43.3,112.2,112.2,0,0,0-8.6-44.1,109.9,109.9,0,0,0-23.6-35.3,105.6,105.6,0,0,0-35.2-23.3C427,222,412.2,219.3,396.3,219.3Z"/>
    <path d="M618.4,458h-25V0h25Z"/>
    <path d="M812.1,196a137.5,137.5,0,0,1,53,10.2,135.2,135.2,0,0,1,71.4,176.5,129.1,129.1,0,0,1-71.4,70.5,135.7,135.7,0,0,1-53,10.3A128.7,128.7,0,0,1,760.2,453,134.9,134.9,0,0,1,718,424.1a141.3,141.3,0,0,1-28.6-42.5,127.3,127.3,0,0,1-10.5-51.3,133.7,133.7,0,0,1,81-123.8A130.9,130.9,0,0,1,812.1,196Zm-1.7,23.3a102.2,102.2,0,0,0-42.4,8.8,104.9,104.9,0,0,0-33.9,24.2,114.6,114.6,0,0,0-22.2,35.5,113.4,113.4,0,0,0-8,42.5,109.6,109.6,0,0,0,8,41.6,113.1,113.1,0,0,0,22.5,35.3,106.4,106.4,0,0,0,33.9,24.1,100.3,100.3,0,0,0,42.1,8.9,116.6,116.6,0,0,0,43.9-8.3,106.3,106.3,0,0,0,35.5-23.3,110.8,110.8,0,0,0,23.6-35,109,109,0,0,0,8.6-43.3,112.2,112.2,0,0,0-8.6-44.1,109.9,109.9,0,0,0-23.6-35.3,105.6,105.6,0,0,0-35.2-23.3C841.1,222,826.3,219.3,810.4,219.3Z"/>
    <path d="M1032.5,234.8h1.1c5.2-11.8,12.3-21.3,21.4-28.3s20.4-10.5,34.1-10.5a57.1,57.1,0,0,1,14.2,1.6,91.4,91.4,0,0,1,13,4.5L1103,224.3a29.5,29.5,0,0,0-8.6-3.9,33.6,33.6,0,0,0-9.2-1.1c-14.1,0-24.7,3.9-31.9,11.6a67.9,67.9,0,0,0-15.5,28.3,130.9,130.9,0,0,0-5,35.3c-.2,12.4-.3,23.2-.3,32.5V458h-25V201.5h25Z"/>
  </g>
</svg>
