<svg xmlns="http://www.w3.org/2000/svg" width="104" height="467.3" viewBox="0 0 104 467.3">
  <g>
    <polygon points="103.3 455.7 103.3 388 81.4 388 81.4 408.7 0.6 408.7 0.6 435.9 81.4 435.9 81.4 455.7 103.3 455.7"/>
    <rect x="0.7" y="156" width="102.7" height="26.33"/>
    <polygon points="81.5 144 103.3 144 103.3 75 0.7 75 0.7 143.1 23.4 143.1 23.4 102 40.2 102 40.2 131.1 64.7 131.1 64.7 102 81.5 102 81.5 144"/>
    <polygon points="103.3 0 0.7 0 0.7 62.1 23.5 62.1 23.5 27.5 103.3 27.5 103.3 0"/>
    <polygon points="0.6 375.1 103.3 375.1 103.3 348.1 64.8 348.1 64.8 318.2 103.3 318.2 103.3 291.2 0.6 291.2 0.6 318.2 40.1 318.2 40.1 348.1 0.6 348.1 0.6 375.1"/>
    <path d="M15.1,452.4a7.7,7.7,0,0,0-5.7-2.3,7.3,7.3,0,0,0-5.6,2.3,7.7,7.7,0,0,0,0,11.2A7.4,7.4,0,0,0,9.4,466a7.8,7.8,0,0,0,5.7-2.4,8,8,0,0,0,0-11.2ZM2.9,464.6A8.7,8.7,0,0,1,.1,458a8.5,8.5,0,0,1,2.8-6.5,8.9,8.9,0,0,1,6.5-2.7,9,9,0,0,1,6.6,2.7,9.3,9.3,0,0,1,0,13.1,9,9,0,0,1-6.6,2.7,8.9,8.9,0,0,1-6.5-2.7Zm10-4.9a3.7,3.7,0,0,0,.4-2.1v-1.5H9.6v1.6a4,4,0,0,0,.3,1.7,1.4,1.4,0,0,0,1.5,1c.8,0,1.3-.2,1.5-.7Zm1.6-1.9a9.4,9.4,0,0,1-.3,2.8,2.5,2.5,0,0,1-2.6,1.6,2.3,2.3,0,0,1-2-1,5.3,5.3,0,0,1-.5-1.5,2.7,2.7,0,0,1-1,1.8,3.3,3.3,0,0,1-1.6.5H4.4v-1.7H5.7a2.7,2.7,0,0,0,2.4-.9,4.9,4.9,0,0,0,.3-2v-1.4h-4v-1.8H14.5v3.5Z" style="fill-rule: evenodd"/>
    <path d="M104,247.2A52,52,0,1,0,3.6,266.3a53.1,53.1,0,0,0,8.9,14.8l18.3-18.3a22.9,22.9,0,0,1-3.3-5.9,26.3,26.3,0,1,1,50.8-9.7,25.7,25.7,0,0,1-1.9,9.9,22.7,22.7,0,0,1-2.6,4.8l18.3,18.4A52,52,0,0,0,104,247.2Z"/>
  </g>
</svg>
