<svg xmlns="http://www.w3.org/2000/svg" width="200" height="199" preserveAspectRatio="none">
  <g id="圖層_1-2-2" data-name="圖層 1-2">
    <path d="M1.79,168.57,2,169C1.92,168.81,2,168.54,1.79,168.57Z"/>
    <path d="M1.29,177l.23-.12v-.15Z"/>
    <path d="M200.06,0H1.25a2.34,2.34,0,0,0-.19.5c.08,1.42.89.27,1.08,1.27L1.7,3H2c.18.2-.11.37-.17.37.39-.09.13,1,.19,1.53l-.34-.19C.84,6.15,2.48,7,2.06,8.09l-.61.75L1.94,9c-.29.46-.68.54-.5,1.3.87,2.66-.2,5.53.35,8.23-.07,0-.15-.08-.15-.16C2.74,20.67.32,22,1.27,24.1L1.46,24c-.1,1.09.19-.14.46.65-.61.15-.47,1.38-.69,2,.12-.09.11-.31.2-.49.13.12.49.16.38.48-.83.69-.74,2.19-1,3.29C1.2,30,1.56,31,2.2,31.46c-.14.11-.45.32-.74.5.25.41.05.71-.18,1v-.9h0v-.15a1.31,1.31,0,0,0,.06-.32c-.37-.43-.3,0-.76,0,0,.36-.14,1.11.21,1.19a1.74,1.74,0,0,0,.13.59.53.53,0,0,0-.07.44v-.07a.6.6,0,0,1,.15.09c.19.71-.49,1.7-.81,2.29.58-.58.66.14,1.07.14a13.39,13.39,0,0,1-.06-1.55.29.29,0,0,0,.27.13c.45.78-.39,1.33-.08,2.46.05-.07.14-.22.3-.17a.76.76,0,0,1-.47.86c.41.1.71,1,.53,1.38-.34.38-.46.32-.46,1l.29-.3c.24.8-.43.65-.19,1.31-.12-.26.19-.29.25-.09-.16.83-.32.85-.91,1.44l.46-.11c-.3.63-.77,1.86-.3,2-.84-.09-.4,1.57-.4,2.17a.33.33,0,0,1,.33-.27c-.6,1.29,0,2.61,0,3.91l.7.21c0,.64-1.37.89-1.37,1.64L.48,52a12,12,0,0,0,.07,2.93H1c-.21.39-.21.87-.43,1.25,1.13.88-.59,3.48.67,5.08l-.87.11c0,.61-.15,1.4.5,1.68v-.13c.67,0,0,.62.17,1-.08.33-.51.58-.64.33.44,1.63,0,4.07.77,5.07C.89,71,.2,72.19.29,74H.4c.07.59.35,1.78,1.07,1.78C1.3,77,.31,77.82.63,79.34L.91,79c.14.38-.3,1-.29,1.15s.16,0,.26,0c.25.36-.14.58-.21.87l.24-.12c.5,1.21-.48,3.11-.36,4.66.07-.26.35-.11.46,0-.8.6-.61,2.35-.8,3l.32-.4c-.53,1.26.85,1.09.31,2.35L.38,89.8c.14.51,0,.94-.38.82.27.63.62.11.69,1,.23,0,.16-.64.45-.35l.6,1.24h0v0c.05,0,.06.19,0,.6-1-.11,0,1-1,.41-.08,1.76.58,3.25.12,4.76,1,.62,0,3,1.29,2.85a2.76,2.76,0,0,1-.75,2.08c-.1-.17.06-.39.13-.57-.37.23-.37,1.26-.37,1.69a6.58,6.58,0,0,1,1-1.91,13.33,13.33,0,0,1-.75,2.29l.65.2c-.48.65.52.55-.12,1.2L1.75,106c.05,1.2-.6,1.21-.68,2.33l.25,0c.09.39-.5,1,.09,1.33v-.73c.45.08.65.63.88.88-.12.78-.74.28-.8.66.43.17.23,0,.65-.22a5.64,5.64,0,0,1-.88,2.64.22.22,0,0,0,.16,0c.08.9-.69,1.69-.33,2.24l.07-.17c.62.71-.59,1.86.47,2,.2.34,0-.77.49-.22.33,1.07-.9.7-.6,1.64,0-.13,0-.13.13-.13a23.19,23.19,0,0,1-.24,2.34c.87.87-.2,2.87.8,3.87-.33-.31-.41.18-.54.26a.13.13,0,0,1,.12,0c0,.39-.31.43-.45.58.31.27-.34,1.07-.13,1.27-.23,0-.17.31-.17.65.26-.69.49-.22.84-.53.11,1-1,1.18-.81,2.25l.42.6c-.62.09-.38,1.09-.62,1.09.2.18.32.41.64.41-.15.43.18,1.07-.21,1.25l-.17-.43C1.38,133.13.45,134,.88,135h1c.35.68-.58,1.25,0,1.84-.32-.2-.22-.25-.54.19-.07-.26.18-.74.18-1.17l-.57.92.27-1.43c-.38.61-.28.57-.68.32-.31.87.47.93.09,1.76.13.33.48,0,.68.33-.3.65.48,1.25.31,1.74a.11.11,0,0,1,.13-.08c-.09.52-.05.86-.34,1L1.3,140c0,.35-.37.41-.14,1.09-.22.4-.71.62-.71.19-.06.18.2.56.49.42,0,1.06-1,.53-.57,1.53a.14.14,0,0,1,.13-.1,1.3,1.3,0,0,1,.05.44c.17-.5.73.41.57-.59.51.16.1.82.3,1.16-.35.52-.74.06-1,.32.17,0,.17.21.24.47l-.4-.25a1.79,1.79,0,0,1-.08.69l.15-.44c.07.45.69,1.17.32,2,.16-.22.47-.66.68-.11-.25.91.16.21.46.73-.09.9-.7.15-.46,1.48,0,.14-.23,0-.33-.13.15.85-.06,1.34.15,2.12-.1-.29-.22-.45-.38,0,.32-.23.3.72.5,1.06l-.19.09c.21.27.29,0,.36-.24-.11,0-.11-.08-.11-.24.18-.43.92-.28,1,.41-.19.73-.71.61-.9.49.2,1-.9.92-.6,1.86,0,.21.79.93.86,1.61-.44.35-.33-.85-.71-.45,1.13,1.13-.67,2.33,0,3.82l.55-.19a3.91,3.91,0,0,1,0,1.08l-.3-.52c-.12.35,0,1.17.4.9-.4.78-.14,1,0,1.67,0-.77-.08,0,.2-.57a1.78,1.78,0,0,1,0,1.43c.19-.09.49.2.49.42a7.58,7.58,0,0,0-.46,2.15H2c-.21,1.23.55,2.56.07,3.8v0c-.51-.43-.36,1-.57,1.33.13.09.36.13.36.34-.48,0-.26.48-.48.65.17.43.56,0,.56.68a.19.19,0,0,1,0,.07.36.36,0,0,1-.46.21,1.67,1.67,0,0,1,.49,1c.13-.13,0-.34,0-.43.25,0,.16.2.49.2,0,.34-.46.14-.29.57l.38-.4c.1.17-.09.39-.09.48a.35.35,0,0,1,.32-.21v.51c-.34.08-.78-.24-1.06-.24.3.94-.23,1.67-.23,2.4l.45-.13a.88.88,0,0,1-.36.65v.55a.66.66,0,0,1,.67-.44c-.13.58,0,1.38-.62,1.53h.1c.22.78.35,2.4.55,2.35-.2.83.15,1.91-.45,1.91-.16.5.75,1.29,0,1.65.4.59.16,0,.61-.15.39.59-.62,1.19.24,1.38-.26.69-.17-.16-.56.08.8.14.13,1.28.59,1.92-.32.29-.2-.29-.54.21.2,0,.25.21.25.35l-.5.12.85.45v.61c-.33.14-.53-.3-.7.7v-.08c.51.36-.4.93,0,1.87-.1-.32.24-.13.38-.24l-.2.52h.12c.37.45-.21.39.13.93a.29.29,0,0,1,.22-.24v.73l-.13.18.13-.06v6H200.06ZM.92,32.32h0c-.06.18.06.45-.06.42s-.18-.11-.12-.35A.67.67,0,0,1,.92,32.32Zm1.82,160-.07-.07a.35.35,0,0,0,.07-.24Z"/>
    <path d="M2.07,169.29h.06a.23.23,0,0,1-.07-.07Z"/>
    <path d="M1.24,162.73h.42C1.41,162.78,1.3,162.4,1.24,162.73Z"/>
  </g>
</svg>
