<svg xmlns="http://www.w3.org/2000/svg" xmlns:xlink="http://www.w3.org/1999/xlink" width="48.6" height="126.5" viewBox="0 0 48.6 126.5">
  <defs>
    <linearGradient id="a" data-name="未命名漸層 12" x1="-2659.16" y1="-2732.58" x2="-2762.55" y2="-2732.58" gradientTransform="translate(-2708.5 2785.7) rotate(90)" gradientUnits="userSpaceOnUse">
      <stop offset="0" stop-color="#fff"/>
      <stop offset="0.07" stop-color="#fefcfb"/>
      <stop offset="0.14" stop-color="#fbf2f0"/>
      <stop offset="0.21" stop-color="#f6e3dc"/>
      <stop offset="0.28" stop-color="#efcdc1"/>
      <stop offset="0.34" stop-color="#e6b09e"/>
      <stop offset="0.41" stop-color="#db8e74"/>
      <stop offset="0.43" stop-color="#d88468"/>
      <stop offset="0.59" stop-color="#d36a57"/>
      <stop offset="0.93" stop-color="#c7292a"/>
      <stop offset="1" stop-color="#c41b21"/>
    </linearGradient>
    <linearGradient id="b" x1="-7231.35" y1="-3615.84" x2="-7183.13" y2="-3615.84" gradientTransform="translate(-797.3 8045.6) rotate(69.2)" xlink:href="#a"/>
  </defs>
  <g>
    <line x1="24.1" y1="23.1" x2="24.1" y2="126.5" style="fill: none;stroke-miterlimit: 10;stroke-width: 0.25px;stroke: url(#a)"/>
    <g>
      <path d="M38,28.6a2,2,0,0,0,.8-.8,1.4,1.4,0,0,0,.3-1.1,1.3,1.3,0,0,0-.1-.6l-.3-.6-.6-.4-.6-.2a1.2,1.2,0,0,0-1,.4,1.7,1.7,0,0,0-.6,1c-.2.3-.3.8-.5,1.2a3.1,3.1,0,0,1-.6,1.3,2.6,2.6,0,0,1-.9.9,2.4,2.4,0,0,1-1.5.4L31,29.9a3.9,3.9,0,0,1-1-.8,2.6,2.6,0,0,1-.7-1.1,2.8,2.8,0,0,1-.3-1.3,3.6,3.6,0,0,1,.8-2.3,3.7,3.7,0,0,1,2-1.4l.3,1a4,4,0,0,0-1.5,1,2.4,2.4,0,0,0-.6,1.7,2.4,2.4,0,0,0,2.4,2.4l.8-.2c.3-.1.4-.3.6-.5l.4-.6.3-.8c.1-.4.3-.7.4-1.1a3.3,3.3,0,0,1,.6-1,1.8,1.8,0,0,1,.8-.7,2,2,0,0,1,1.1-.3l1.1.2.9.6a3.1,3.1,0,0,1,.5,1,3.6,3.6,0,0,1,.2,1.1,2.3,2.3,0,0,1-.5,1.5,2.8,2.8,0,0,1-1.2,1.2Z" style="fill: #fff"/>
      <path d="M37.5,46a6.4,6.4,0,0,0,1.3-1.7,5.4,5.4,0,0,0,.1-3.8,3.8,3.8,0,0,0-1.1-1.4,4.2,4.2,0,0,0-1.4-.9,3.5,3.5,0,0,0-1.7-.4,3.9,3.9,0,0,0-1.8.4,4.2,4.2,0,0,0-1.4.9,4.9,4.9,0,0,0-1.1,1.4,4.7,4.7,0,0,0-.3,1.7,5.4,5.4,0,0,0,.5,2.2A5.8,5.8,0,0,0,32,46.1H30.6a5.4,5.4,0,0,1-1.1-1.8,4.5,4.5,0,0,1-.4-2,7.8,7.8,0,0,1,.4-2.2,5.2,5.2,0,0,1,1.2-1.7,5.7,5.7,0,0,1,1.8-1.2,4.9,4.9,0,0,1,2.1-.4,5.4,5.4,0,0,1,2.2.4,5.4,5.4,0,0,1,1.8,1.1,5.7,5.7,0,0,1,1.2,1.8,7.1,7.1,0,0,1,.4,2.1,6.4,6.4,0,0,1-.3,2,4.2,4.2,0,0,1-1,1.7Z" style="fill: #fff"/>
      <path d="M38.7,54.9h0a2.4,2.4,0,0,1,1.1.9,2.2,2.2,0,0,1,.5,1.4,1.3,1.3,0,0,1-.1.6.8.8,0,0,1-.2.5l-.9-.5c.1-.1.1-.3.2-.4v-.3a2,2,0,0,0-.5-1.4,2.3,2.3,0,0,0-1.2-.6l-1.4-.2H29.4v-1H40v1.1Z" style="fill: #fff"/>
      <path d="M40.3,69.8a4.1,4.1,0,0,1-.4,2.2,3.9,3.9,0,0,1-1.1,1.7A5.7,5.7,0,0,1,37,74.9a5.1,5.1,0,0,1-2.2.5,8.5,8.5,0,0,1-2.2-.4,6.6,6.6,0,0,1-1.7-1.2A5.7,5.7,0,0,1,29.7,72a5.4,5.4,0,0,1-.4-2.2,4.9,4.9,0,0,1,.4-2.1,5.7,5.7,0,0,1,1.2-1.8,6.6,6.6,0,0,1,1.7-1.2,5.4,5.4,0,0,1,2.2-.4,5.2,5.2,0,0,1,2.1.4,5.7,5.7,0,0,1,1.8,1.2,5.2,5.2,0,0,1,1.2,1.7A5.4,5.4,0,0,1,40.3,69.8Zm-.9-.1a3.9,3.9,0,0,0-.4-1.8,4.5,4.5,0,0,0-1-1.4l-1.5-.9a4.7,4.7,0,0,0-1.7-.3,3.9,3.9,0,0,0-1.8.4,4.2,4.2,0,0,0-1.4.9,4.5,4.5,0,0,0-1,1.4,3.4,3.4,0,0,0-.4,1.8,5.8,5.8,0,0,0,.4,1.8,3.3,3.3,0,0,0,1,1.4A4.5,4.5,0,0,0,33,74a5.8,5.8,0,0,0,1.8.4l1.8-.4a5.6,5.6,0,0,0,1.5-1,3.8,3.8,0,0,0,.9-1.5A3.4,3.4,0,0,0,39.4,69.7Z" style="fill: #fff"/>
      <path d="M29.6,84V83H48.5v1Z" style="fill: #fff"/>
      <path d="M29.6,93.7V92.6h19v1.1Z" style="fill: #fff"/>
    </g>
    <circle cx="24.1" cy="24.1" r="24" transform="translate(-4.6 42.5) rotate(-77.6)" style="fill: none;stroke-miterlimit: 10;stroke-width: 0.25px;stroke: url(#b)"/>
  </g>
</svg>
