<svg xmlns="http://www.w3.org/2000/svg" width="1139.7" height="253.3" viewBox="0 0 1139.7 253.3">
  <path d="M339.6,128.9h46.5C388.2,93.6,339.5,94,339.6,128.9Zm0,0h46.5C388.2,93.6,339.5,94,339.6,128.9Zm0,0h46.5C388.2,93.6,339.5,94,339.6,128.9Zm130,39.5c5.3,8.6,23.3,5.9,36.4,5.2V145.9C483.5,144.6,456.2,146.8,469.6,168.4Zm0,0c5.3,8.6,23.3,5.9,36.4,5.2V145.9C483.5,144.6,456.2,146.8,469.6,168.4Zm-130-39.5h46.5C388.2,93.6,339.5,94,339.6,128.9Zm0,0h46.5C388.2,93.6,339.5,94,339.6,128.9Zm130,39.5c5.3,8.6,23.3,5.9,36.4,5.2V145.9C483.5,144.6,456.2,146.8,469.6,168.4Zm0,0c5.3,8.6,23.3,5.9,36.4,5.2V145.9C483.5,144.6,456.2,146.8,469.6,168.4Zm-130-39.5h46.5C388.2,93.6,339.5,94,339.6,128.9ZM1125.5,0H14.2C5.1,0,0,4.7,0,14.2V239.1c0,9.4,5.1,14.2,14.2,14.2H1125.5c9,0,14.2-4.8,14.2-14.2V14.2C1139.7,4.7,1134.5,0,1125.5,0ZM232.8,79.1c-45.8-7.9-80.7,2.1-80.4,46,.2,41.5,33.6,53.3,80.4,45.1v20.5c-59.6,9.1-114.5-6.1-119.8-57.5-6.3-60.9,53.4-88,119.8-74.7ZM288,192.5H258.9V57.4H288Zm122.1-21.6c2,4.3-.5,12.1,0,17.9C373,198,330,194.9,315,167.9c-10.8-19.5-8.6-51.3,6.9-67.7,17.4-18.5,64-22.5,83.5-1.8,10.9,11.6,13.8,26.7,13.7,48.3H339.6C339.8,178.3,382.5,177.4,410.1,170.9Zm126.3,19.7c-40,2.7-103.9,13.2-101.6-33.7,1.4-29.8,43.7-30.1,71.2-28.9,5.2-33.5-42.8-22.8-64-20V88.4c28.9-3.2,69.8-8.1,86.2,9.1C541.5,111.3,535.3,156,536.4,190.6Zm95.6.7-.4-74.5c-5.2-16.7-42.3-2.8-42.3-2.8l-.5,77.5-29.7-.4.4-104.8h26.6v9.9c74.8-30.1,76.4,16.3,76.4,16.3l.2,78.8Zm133.8-1.5H690.7c-8.6-2.2-5.5-13.7-5.5-13.7l38.2-84.4c5.7-9.7,10.7-.3,10.7-.3l38.4,86.1C775.6,188.2,765.8,189.8,765.8,189.8Zm125.4.5h-27v-8.2c-75.2,32.6-75.7-19.4-75.7-19.4V86.6h30.2l.4,71.4c6.5,24.1,42.4,4.7,42.4,4.7V87.1h29.7ZM1028.6,144c-3.6,44.6-47.3,47.3-47.3,47.3-17.1,2-36.9.2-36.9.2v24.1H912.6V82.6c26.2-1.7,64.2.4,64.2.4C1039,89.7,1028.6,144,1028.6,144Zm-58.7-41.2-25.5-.3v69l23.4.4s18.9-2.9,23.4-24.1C991.2,147.8,997.5,112.5,969.9,102.8ZM469.6,168.4c5.3,8.6,23.3,5.9,36.4,5.2V145.9C483.5,144.6,456.2,146.8,469.6,168.4Zm-130-39.5h46.5C388.2,93.6,339.5,94,339.6,128.9Zm0,0h46.5C388.2,93.6,339.5,94,339.6,128.9Zm130,39.5c5.3,8.6,23.3,5.9,36.4,5.2V145.9C483.5,144.6,456.2,146.8,469.6,168.4Zm0,0c5.3,8.6,23.3,5.9,36.4,5.2V145.9C483.5,144.6,456.2,146.8,469.6,168.4Zm-130-39.5h46.5C388.2,93.6,339.5,94,339.6,128.9Zm0,0h46.5C388.2,93.6,339.5,94,339.6,128.9Zm130,39.5c5.3,8.6,23.3,5.9,36.4,5.2V145.9C483.5,144.6,456.2,146.8,469.6,168.4Zm0,0c5.3,8.6,23.3,5.9,36.4,5.2V145.9C483.5,144.6,456.2,146.8,469.6,168.4Zm-130-39.5h46.5C388.2,93.6,339.5,94,339.6,128.9Z" style="fill: #cf121f"/>
</svg>
