<svg xmlns="http://www.w3.org/2000/svg" width="4040.3" height="194.3" viewBox="0 0 4040.3 194.3">
  <g style="opacity: 0.1">
    <g>
      <path d="M22.3,192H11.9V94.2H0V84.5H11.9V46.1H22.3V84.5H41.2v9.7H22.3Z" style="fill: #fff"/>
      <path d="M90.8,82.1A56.7,56.7,0,0,1,113,86.5a53.4,53.4,0,0,1,17.9,11.7,56.7,56.7,0,0,1,0,80.1,57.1,57.1,0,0,1-40.1,16A54.4,54.4,0,0,1,69,189.9a58.6,58.6,0,0,1-17.7-12.1,60.7,60.7,0,0,1-12-17.8,54,54,0,0,1-4.4-21.5,55.2,55.2,0,0,1,4.3-21.9A56.1,56.1,0,0,1,51.1,98.7,55.1,55.1,0,0,1,68.9,86.6,53.6,53.6,0,0,1,90.8,82.1Zm-.7,9.8a44,44,0,0,0-17.8,3.7,42,42,0,0,0-14.2,10.2,44.7,44.7,0,0,0-9.3,14.9,46.6,46.6,0,0,0-3.4,17.8,47.6,47.6,0,0,0,12.8,32.2,43.8,43.8,0,0,0,14.2,10.1,41.6,41.6,0,0,0,17.7,3.7,48.4,48.4,0,0,0,18.3-3.4,44.9,44.9,0,0,0,14.9-9.8,46.4,46.4,0,0,0,9.9-14.7,45.3,45.3,0,0,0,3.6-18.1,46.6,46.6,0,0,0-3.6-18.5,45.8,45.8,0,0,0-9.9-14.8,44.6,44.6,0,0,0-14.7-9.8A49.1,49.1,0,0,0,90.1,91.9Z" style="fill: #fff"/>
      <path d="M216.9,0h10.5V103.1h.4a44.7,44.7,0,0,1,17.8-15.6,53.4,53.4,0,0,1,23.6-5.4A54,54,0,0,1,291,86.3,47.7,47.7,0,0,1,307.5,98a51.6,51.6,0,0,1,10.6,17.5,63.1,63.1,0,0,1,3.7,22,65.2,65.2,0,0,1-3.7,22.3,53.9,53.9,0,0,1-10.6,18,48.9,48.9,0,0,1-16.7,12.1,55.3,55.3,0,0,1-34,3,45.9,45.9,0,0,1-11.4-4.2,43.1,43.1,0,0,1-10-6.8,39.2,39.2,0,0,1-7.6-9.2h-.4V192H216.9ZM269,184.5a39.6,39.6,0,0,0,17.7-3.8,40.4,40.4,0,0,0,13.4-10.4,47.7,47.7,0,0,0,8.4-15,55.3,55.3,0,0,0,2.9-17.8,47.5,47.5,0,0,0-3.1-17.1,43.3,43.3,0,0,0-8.6-14.5,42.3,42.3,0,0,0-13.2-10.1,37.3,37.3,0,0,0-17-3.9,43.8,43.8,0,0,0-18.2,3.6,41.1,41.1,0,0,0-13.4,9.8,43.3,43.3,0,0,0-8.3,14.5,57,57,0,0,0,0,35.9,47.2,47.2,0,0,0,8.3,14.9A39.2,39.2,0,0,0,269,184.5Z" style="fill: #fff"/>
      <path d="M333.2,139.2a50.5,50.5,0,0,0,3,18.6,38.9,38.9,0,0,0,8.9,14.3,41.7,41.7,0,0,0,13.9,9.2,44.8,44.8,0,0,0,17.3,3.2,38.1,38.1,0,0,0,22.3-6.7,48.6,48.6,0,0,0,15.6-17.7l8.9,5.1a56,56,0,0,1-19.8,21.6c-8.2,5-17.7,7.5-28.4,7.5a50.2,50.2,0,0,1-21.5-4.5,49.3,49.3,0,0,1-16.5-12.2,53,53,0,0,1-10.5-18,64.4,64.4,0,0,1-3.6-21.6,61.2,61.2,0,0,1,3.7-21.3,55,55,0,0,1,10.6-17.8,51,51,0,0,1,16.4-12.2,49.4,49.4,0,0,1,21.4-4.6,51.2,51.2,0,0,1,21.8,4.6A47.1,47.1,0,0,1,412.9,99a55,55,0,0,1,10.2,18.2,69,69,0,0,1,3.5,22Zm82.9-9.8a44.1,44.1,0,0,0-4.3-14.2,43.8,43.8,0,0,0-21.3-20.3,38.8,38.8,0,0,0-15.4-3,39.9,39.9,0,0,0-15.4,3A43.7,43.7,0,0,0,337.5,115a38.2,38.2,0,0,0-4.3,14.4Z" style="fill: #fff"/>
      <path d="M578.5,109.4a56,56,0,0,0-17-12.9,46.2,46.2,0,0,0-20.9-4.6,43.1,43.1,0,0,0-17.7,3.7,44.7,44.7,0,0,0-14.1,10.2,49.6,49.6,0,0,0-9.3,14.7,47.4,47.4,0,0,0-3.4,17.5,48.7,48.7,0,0,0,3.4,17.6,50.6,50.6,0,0,0,9.3,14.9,47.6,47.6,0,0,0,14,10.2,39.5,39.5,0,0,0,17.6,3.8,47,47,0,0,0,21.8-5.2,56.3,56.3,0,0,0,17.7-14.1v14.2a60.5,60.5,0,0,1-18.1,11.1,59.6,59.6,0,0,1-21,3.8,55.4,55.4,0,0,1-22-4.4,54.6,54.6,0,0,1-17.4-12,53.5,53.5,0,0,1-11.5-17.8,59.7,59.7,0,0,1,0-44,53.1,53.1,0,0,1,29.2-29.6,54.7,54.7,0,0,1,22-4.4A60.2,60.2,0,0,1,561,85.4a57,57,0,0,1,17.5,10Z" style="fill: #fff"/>
      <path d="M638.6,82.1a56.7,56.7,0,0,1,22.2,4.4,53.4,53.4,0,0,1,17.9,11.7,56.2,56.2,0,0,1-40.1,96.1,54.4,54.4,0,0,1-21.8-4.4,58.6,58.6,0,0,1-17.7-12.1,60.7,60.7,0,0,1-12-17.8,54,54,0,0,1-4.4-21.5,55.2,55.2,0,0,1,4.3-21.9,56.1,56.1,0,0,1,11.9-17.9,55.1,55.1,0,0,1,17.8-12.1A53.6,53.6,0,0,1,638.6,82.1Zm-.7,9.8a44,44,0,0,0-17.8,3.7,42,42,0,0,0-14.2,10.2,44.7,44.7,0,0,0-9.3,14.9,46.6,46.6,0,0,0-3.4,17.8A47.6,47.6,0,0,0,606,170.7a43.8,43.8,0,0,0,14.2,10.1,41.6,41.6,0,0,0,17.7,3.7,48.4,48.4,0,0,0,18.3-3.4,44.9,44.9,0,0,0,14.9-9.8,46.4,46.4,0,0,0,9.9-14.7,45.3,45.3,0,0,0,3.6-18.1A46.6,46.6,0,0,0,681,120a45.8,45.8,0,0,0-9.9-14.8,44.6,44.6,0,0,0-14.7-9.8A49.1,49.1,0,0,0,637.9,91.9Z" style="fill: #fff"/>
      <path d="M717,101.2h.4a35.8,35.8,0,0,1,31.9-19.1c7,0,12.7,1.1,17.2,3.2a27.3,27.3,0,0,1,10.9,8.9,37.3,37.3,0,0,1,5.7,14.1,96.9,96.9,0,0,1,1.6,18.8V192H774.2V127.1a119.5,119.5,0,0,0-.7-13.7,29.4,29.4,0,0,0-3.3-11.1,19.7,19.7,0,0,0-7.8-7.6c-3.5-1.8-8.1-2.8-14-2.8s-12.3,1.5-16.4,4.3a28,28,0,0,0-9.4,11.1,50.2,50.2,0,0,0-4.5,15.1,133.2,133.2,0,0,0-1.1,16.5V192H706.5V84.5H717Z" style="fill: #fff"/>
      <path d="M818.2,192H807.7V94.2H795.9V84.5h11.8V46.1h10.5V84.5h18.9v9.7H818.2Z" style="fill: #fff"/>
      <path d="M850.6,39.1a9.6,9.6,0,0,1,9.5,9.5,9.1,9.1,0,0,1-2.8,6.8,9.5,9.5,0,0,1-13.5,0,9.5,9.5,0,0,1,0-13.5A9.1,9.1,0,0,1,850.6,39.1ZM855.7,192H845.2V84.5h10.5Z" style="fill: #fff"/>
      <path d="M892.2,101.2h.5a34.8,34.8,0,0,1,13-13.9,35.8,35.8,0,0,1,18.9-5.2c6.9,0,12.7,1.1,17.2,3.2a27,27,0,0,1,10.8,8.9,37.3,37.3,0,0,1,5.7,14.1,96.9,96.9,0,0,1,1.6,18.8V192H949.5V127.1c0-4.8-.3-9.4-.7-13.7a29.5,29.5,0,0,0-3.4-11.1,19.7,19.7,0,0,0-7.8-7.6c-3.4-1.8-8.1-2.8-14-2.8s-12.3,1.5-16.4,4.3a28.9,28.9,0,0,0-9.4,11.1,47.5,47.5,0,0,0-4.4,15.1,116.6,116.6,0,0,0-1.2,16.5V192H881.7V84.5h10.5Z" style="fill: #fff"/>
      <path d="M1057.4,84.5v64.4c0,5.5-.2,10.9-.7,16.2a27.6,27.6,0,0,1-5.8,14.8,32.1,32.1,0,0,1-14.3,10.9,47,47,0,0,1-35.6,0,32.1,32.1,0,0,1-14.3-10.9,27.6,27.6,0,0,1-5.8-14.8c-.5-5.3-.7-10.7-.7-16.2V84.5h10.4v60.7a120.5,120.5,0,0,0,.9,14.9,34.4,34.4,0,0,0,3.6,12.6,21.4,21.4,0,0,0,8.3,8.6c3.8,2.2,8.9,3.2,15.4,3.2s11.6-1,15.4-3.2a21.4,21.4,0,0,0,8.3-8.6,34.4,34.4,0,0,0,3.6-12.6,120.5,120.5,0,0,0,.9-14.9V84.5Z" style="fill: #fff"/>
      <path d="M1077.7,139.2a48.5,48.5,0,0,0,2.9,18.6,39.3,39.3,0,0,0,22.8,23.5,44.8,44.8,0,0,0,17.3,3.2,38.4,38.4,0,0,0,22.4-6.7,49.5,49.5,0,0,0,15.6-17.7l8.8,5.1a56,56,0,0,1-19.8,21.6c-8.2,5-17.7,7.5-28.4,7.5a50.2,50.2,0,0,1-21.5-4.5,51.4,51.4,0,0,1-16.5-12.2,53,53,0,0,1-10.5-18,64.4,64.4,0,0,1-3.6-21.6,61.2,61.2,0,0,1,3.7-21.3,55,55,0,0,1,10.6-17.8,52.1,52.1,0,0,1,16.4-12.2,49.7,49.7,0,0,1,21.4-4.6,50.9,50.9,0,0,1,21.8,4.6A47.5,47.5,0,0,1,1157.4,99a54.8,54.8,0,0,1,10.1,18.2,69,69,0,0,1,3.5,22Zm82.8-9.8a41.7,41.7,0,0,0-4.3-14.2,43.2,43.2,0,0,0-8.8-12,44,44,0,0,0-12.5-8.3,38.3,38.3,0,0,0-15.3-3,40.4,40.4,0,0,0-15.5,3A44,44,0,0,0,1082,115a36.4,36.4,0,0,0-4.3,14.4Z" style="fill: #fff"/>
      <path d="M1325,112.4v10.5h-44.2V112.4Z" style="fill: #fff"/>
      <path d="M1457,192h-10.5V94.2h-11.8V84.5h11.8V46.1H1457V84.5h18.8v9.7H1457Z" style="fill: #fff"/>
      <path d="M1525.4,82.1a56.7,56.7,0,0,1,22.2,4.4,55.6,55.6,0,0,1,34.4,51.7,57,57,0,0,1-16.4,40.1,58.3,58.3,0,0,1-18,11.7,56.7,56.7,0,0,1-22.2,4.3,53.9,53.9,0,0,1-21.7-4.4,56.2,56.2,0,0,1-17.7-12.1,57,57,0,0,1-12-17.8,52.4,52.4,0,0,1-4.4-21.5,55.2,55.2,0,0,1,4.3-21.9,55.3,55.3,0,0,1,29.6-30A54,54,0,0,1,1525.4,82.1Zm-.7,9.8a43,43,0,0,0-32,13.9,48.6,48.6,0,0,0-12.7,32.7,47.3,47.3,0,0,0,3.4,17.4,48.5,48.5,0,0,0,9.4,14.8,46,46,0,0,0,14.2,10.1,41.9,41.9,0,0,0,17.7,3.7,48.9,48.9,0,0,0,18.4-3.4,46,46,0,0,0,14.9-9.8,46.4,46.4,0,0,0,9.9-14.7,45.3,45.3,0,0,0,3.6-18.1,46.6,46.6,0,0,0-3.6-18.5,45.8,45.8,0,0,0-9.9-14.8,44,44,0,0,0-14.8-9.8A48.7,48.7,0,0,0,1524.7,91.9Z" style="fill: #fff"/>
      <path d="M1651.5,0H1662V103.1h.5a44.1,44.1,0,0,1,17.8-15.6,52.7,52.7,0,0,1,23.6-5.4,54.3,54.3,0,0,1,21.8,4.2A48.6,48.6,0,0,1,1742.2,98a51.6,51.6,0,0,1,10.6,17.5,65.5,65.5,0,0,1,3.7,22,67.7,67.7,0,0,1-3.7,22.3,53.9,53.9,0,0,1-10.6,18,50.3,50.3,0,0,1-16.8,12.1,54,54,0,0,1-22,4.4,54.6,54.6,0,0,1-12-1.4,49,49,0,0,1-11.4-4.2,47.7,47.7,0,0,1-10-6.8,38.8,38.8,0,0,1-7.5-9.2h-.5V192h-10.5Zm52.2,184.5a39,39,0,0,0,31-14.2,44.1,44.1,0,0,0,8.4-15,55.3,55.3,0,0,0,2.9-17.8,49.7,49.7,0,0,0-3-17.1,45,45,0,0,0-8.6-14.5,42.7,42.7,0,0,0-13.3-10.1,37,37,0,0,0-17-3.9,43.3,43.3,0,0,0-18.1,3.6,39.1,39.1,0,0,0-13.4,9.8,45.2,45.2,0,0,0-8.4,14.5,57,57,0,0,0,0,35.9,49.5,49.5,0,0,0,8.4,14.9,39.4,39.4,0,0,0,13.3,10.2A40.5,40.5,0,0,0,1703.7,184.5Z" style="fill: #fff"/>
      <path d="M1767.9,139.2a48.5,48.5,0,0,0,2.9,18.6,40.5,40.5,0,0,0,9,14.3,41.2,41.2,0,0,0,13.8,9.2,45.1,45.1,0,0,0,17.3,3.2,38.4,38.4,0,0,0,22.4-6.7,49.5,49.5,0,0,0,15.6-17.7l8.8,5.1a54.5,54.5,0,0,1-19.8,21.6c-8.2,5-17.6,7.5-28.3,7.5a50.6,50.6,0,0,1-21.6-4.5,51.4,51.4,0,0,1-16.5-12.2,53,53,0,0,1-10.5-18,64.4,64.4,0,0,1-3.6-21.6,63.6,63.6,0,0,1,3.7-21.3,56.9,56.9,0,0,1,10.6-17.8,52.1,52.1,0,0,1,16.4-12.2,49.9,49.9,0,0,1,21.5-4.6,50.8,50.8,0,0,1,21.7,4.6A47.5,47.5,0,0,1,1847.6,99a54.8,54.8,0,0,1,10.1,18.2,69,69,0,0,1,3.5,22Zm82.8-9.8a41.7,41.7,0,0,0-4.3-14.2,43.2,43.2,0,0,0-8.8-12,44,44,0,0,0-12.5-8.3,38,38,0,0,0-15.3-3,40.4,40.4,0,0,0-15.5,3,44,44,0,0,0-22.1,20.1,38.2,38.2,0,0,0-4.3,14.4Z" style="fill: #fff"/>
      <path d="M2013.2,109.4a56,56,0,0,0-17-12.9,46.3,46.3,0,0,0-21-4.6,43,43,0,0,0-17.6,3.7,42.6,42.6,0,0,0-14.1,10.2,45.9,45.9,0,0,0-9.3,14.7,45.5,45.5,0,0,0-3.4,17.5,48.6,48.6,0,0,0,12.7,32.5,47.2,47.2,0,0,0,13.9,10.2,39.8,39.8,0,0,0,17.6,3.8,47.1,47.1,0,0,0,21.9-5.2,57.5,57.5,0,0,0,17.7-14.1v14.2a61,61,0,0,1-18.2,11.1,59.1,59.1,0,0,1-20.9,3.8,55,55,0,0,1-22-4.4,54,54,0,0,1-17.5-12,55.1,55.1,0,0,1-11.5-17.8,59.7,59.7,0,0,1,0-44,56.5,56.5,0,0,1,11.6-17.8,54.5,54.5,0,0,1,17.6-11.8,55.4,55.4,0,0,1,22-4.4,59.8,59.8,0,0,1,19.9,3.3,57.5,57.5,0,0,1,17.6,10Z" style="fill: #fff"/>
      <path d="M2073.2,82.1a56.7,56.7,0,0,1,22.2,4.4,55.6,55.6,0,0,1,34.4,51.7,57,57,0,0,1-16.4,40.1,58.3,58.3,0,0,1-18,11.7,56.7,56.7,0,0,1-22.2,4.3,53.9,53.9,0,0,1-21.7-4.4,56.2,56.2,0,0,1-17.7-12.1,57,57,0,0,1-12-17.8,52.4,52.4,0,0,1-4.4-21.5,55.2,55.2,0,0,1,4.3-21.9,55.3,55.3,0,0,1,29.6-30A54,54,0,0,1,2073.2,82.1Zm-.7,9.8a43,43,0,0,0-32,13.9,48.6,48.6,0,0,0-12.7,32.7,47.3,47.3,0,0,0,3.4,17.4,48.5,48.5,0,0,0,9.4,14.8,46,46,0,0,0,14.2,10.1,41.9,41.9,0,0,0,17.7,3.7,48.9,48.9,0,0,0,18.4-3.4,46,46,0,0,0,14.9-9.8,46.4,46.4,0,0,0,9.9-14.7,45.3,45.3,0,0,0,3.6-18.1,46.6,46.6,0,0,0-3.6-18.5,45.8,45.8,0,0,0-9.9-14.8,44,44,0,0,0-14.8-9.8A48.7,48.7,0,0,0,2072.5,91.9Z" style="fill: #fff"/>
      <path d="M2151.6,101.2h.5a34.8,34.8,0,0,1,13-13.9,35.8,35.8,0,0,1,18.9-5.2c7,0,12.7,1.1,17.2,3.2a27,27,0,0,1,10.8,8.9,37.3,37.3,0,0,1,5.7,14.1,96.5,96.5,0,0,1,1.7,18.8V192h-10.5V127.1c0-4.8-.3-9.4-.7-13.7a29.5,29.5,0,0,0-3.4-11.1,19.7,19.7,0,0,0-7.8-7.6c-3.4-1.8-8.1-2.8-14-2.8s-12.2,1.5-16.4,4.3a28.9,28.9,0,0,0-9.4,11.1,50.2,50.2,0,0,0-4.4,15.1,116.6,116.6,0,0,0-1.2,16.5V192h-10.4V84.5h10.4Z" style="fill: #fff"/>
      <path d="M2252.9,192h-10.5V94.2h-11.9V84.5h11.9V46.1h10.5V84.5h18.8v9.7h-18.8Z" style="fill: #fff"/>
      <path d="M2285.2,39.1a9.4,9.4,0,0,1,9.5,9.5,9.4,9.4,0,0,1-2.7,6.8,9.7,9.7,0,0,1-6.8,2.8,9.3,9.3,0,0,1-6.7-2.8,9.5,9.5,0,0,1,0-13.5A8.9,8.9,0,0,1,2285.2,39.1Zm5.1,152.9h-10.4V84.5h10.4Z" style="fill: #fff"/>
      <path d="M2326.9,101.2h.4a35.8,35.8,0,0,1,31.9-19.1c7,0,12.7,1.1,17.2,3.2a28,28,0,0,1,10.9,8.9,37.3,37.3,0,0,1,5.7,14.1,105.5,105.5,0,0,1,1.6,18.8V192h-10.5V127.1a119.5,119.5,0,0,0-.7-13.7,29.5,29.5,0,0,0-3.4-11.1,18.5,18.5,0,0,0-7.8-7.6c-3.4-1.8-8-2.8-13.9-2.8s-12.3,1.5-16.4,4.3a29.1,29.1,0,0,0-9.5,11.1,53.2,53.2,0,0,0-4.4,15.1,116.3,116.3,0,0,0-1.1,16.5V192h-10.5V84.5h10.5Z" style="fill: #fff"/>
      <path d="M2492.1,84.5v64.4c0,5.5-.2,10.9-.7,16.2a28.4,28.4,0,0,1-5.8,14.8,32.7,32.7,0,0,1-14.3,10.9,46.6,46.6,0,0,1-17.8,3.5,45.9,45.9,0,0,1-17.8-3.5,32.4,32.4,0,0,1-14.4-10.9,28.4,28.4,0,0,1-5.8-14.8c-.4-5.3-.7-10.7-.7-16.2V84.5h10.5v60.7a144.1,144.1,0,0,0,.8,14.9,38.8,38.8,0,0,0,3.6,12.6,22.3,22.3,0,0,0,8.4,8.6c3.7,2.2,8.8,3.2,15.4,3.2s11.6-1,15.3-3.2a22.3,22.3,0,0,0,8.4-8.6,34.4,34.4,0,0,0,3.6-12.6,144.1,144.1,0,0,0,.8-14.9V84.5Z" style="fill: #fff"/>
      <path d="M2512.3,139.2a50.5,50.5,0,0,0,2.9,18.6,40.5,40.5,0,0,0,9,14.3,42.3,42.3,0,0,0,13.8,9.2,45.6,45.6,0,0,0,17.4,3.2,38.1,38.1,0,0,0,22.3-6.7,49.5,49.5,0,0,0,15.6-17.7l8.9,5.1a56,56,0,0,1-19.8,21.6,53.8,53.8,0,0,1-28.4,7.5,50.2,50.2,0,0,1-21.5-4.5,50.7,50.7,0,0,1-16.6-12.2,54.5,54.5,0,0,1-10.4-18,64.4,64.4,0,0,1-3.6-21.6,61.2,61.2,0,0,1,3.7-21.3,55,55,0,0,1,10.6-17.8,49.9,49.9,0,0,1,16.4-12.2,49.4,49.4,0,0,1,21.4-4.6,50.8,50.8,0,0,1,21.7,4.6A46.6,46.6,0,0,1,2592,99a55,55,0,0,1,10.2,18.2,69,69,0,0,1,3.4,22Zm82.9-9.8a44.1,44.1,0,0,0-4.3-14.2,43.8,43.8,0,0,0-21.3-20.3,38.8,38.8,0,0,0-15.4-3,40.7,40.7,0,0,0-15.5,3,46.5,46.5,0,0,0-12.9,8.2,44.6,44.6,0,0,0-9.2,11.9,38.2,38.2,0,0,0-4.3,14.4Z" style="fill: #fff"/>
      <path d="M2759.7,112.4v10.5h-44.2V112.4Z" style="fill: #fff"/>
      <path d="M2891.6,192h-10.4V94.2h-11.9V84.5h11.9V46.1h10.4V84.5h18.9v9.7h-18.9Z" style="fill: #fff"/>
      <path d="M2960.1,82.1a56.7,56.7,0,0,1,22.2,4.4,53.4,53.4,0,0,1,17.9,11.7,56.2,56.2,0,0,1-40.1,96.1,54.8,54.8,0,0,1-21.8-4.4,58.6,58.6,0,0,1-17.7-12.1,60.7,60.7,0,0,1-12-17.8,54,54,0,0,1-4.4-21.5,55.2,55.2,0,0,1,4.3-21.9,56.1,56.1,0,0,1,11.9-17.9,55.1,55.1,0,0,1,17.8-12.1A53.6,53.6,0,0,1,2960.1,82.1Zm-.7,9.8a44,44,0,0,0-17.8,3.7,43,43,0,0,0-14.2,10.2,44.7,44.7,0,0,0-9.3,14.9,46.6,46.6,0,0,0-3.4,17.8,47.6,47.6,0,0,0,12.8,32.2,43.8,43.8,0,0,0,14.2,10.1,41.6,41.6,0,0,0,17.7,3.7,48.4,48.4,0,0,0,18.3-3.4,43.9,43.9,0,0,0,14.9-9.8,46.4,46.4,0,0,0,9.9-14.7,45.3,45.3,0,0,0,3.6-18.1,46.6,46.6,0,0,0-3.6-18.5,45.8,45.8,0,0,0-9.9-14.8,43.6,43.6,0,0,0-14.7-9.8A49.1,49.1,0,0,0,2959.4,91.9Z" style="fill: #fff"/>
      <path d="M3086.2,0h10.5V103.1h.4a44.7,44.7,0,0,1,17.8-15.6,56.3,56.3,0,0,1,45.4-1.2A47.7,47.7,0,0,1,3176.8,98a51.6,51.6,0,0,1,10.6,17.5,63.1,63.1,0,0,1,3.7,22,65.2,65.2,0,0,1-3.7,22.3,53.9,53.9,0,0,1-10.6,18,48.9,48.9,0,0,1-16.7,12.1,55.3,55.3,0,0,1-34,3,45.9,45.9,0,0,1-11.4-4.2,45.3,45.3,0,0,1-10-6.8,39.2,39.2,0,0,1-7.6-9.2h-.4V192h-10.5Zm52.1,184.5a39.6,39.6,0,0,0,17.7-3.8,40.4,40.4,0,0,0,13.4-10.4,47.7,47.7,0,0,0,8.4-15,55.3,55.3,0,0,0,2.9-17.8,47.5,47.5,0,0,0-3.1-17.1,43.3,43.3,0,0,0-8.6-14.5,42.3,42.3,0,0,0-13.2-10.1,37,37,0,0,0-17-3.9,43.8,43.8,0,0,0-18.2,3.6,39.7,39.7,0,0,0-13.3,9.8,41.8,41.8,0,0,0-8.4,14.5,57,57,0,0,0,0,35.9,45.6,45.6,0,0,0,8.4,14.9,39.1,39.1,0,0,0,13.2,10.2A40.5,40.5,0,0,0,3138.3,184.5Z" style="fill: #fff"/>
      <path d="M3202.5,139.2a50.5,50.5,0,0,0,3,18.6,38.9,38.9,0,0,0,8.9,14.3,41.7,41.7,0,0,0,13.9,9.2,44.8,44.8,0,0,0,17.3,3.2,38.1,38.1,0,0,0,22.3-6.7,47.7,47.7,0,0,0,15.6-17.7l8.9,5.1a56,56,0,0,1-19.8,21.6c-8.2,5-17.7,7.5-28.4,7.5a50.2,50.2,0,0,1-21.5-4.5,49.3,49.3,0,0,1-16.5-12.2,53,53,0,0,1-10.5-18,64.4,64.4,0,0,1-3.6-21.6,61.2,61.2,0,0,1,3.7-21.3,55,55,0,0,1,10.6-17.8,51,51,0,0,1,16.4-12.2,49.7,49.7,0,0,1,21.4-4.6,51.2,51.2,0,0,1,21.8,4.6A48.5,48.5,0,0,1,3282.3,99a56.6,56.6,0,0,1,10.1,18.2,69,69,0,0,1,3.5,22Zm82.9-9.8a44.1,44.1,0,0,0-4.3-14.2,43.8,43.8,0,0,0-21.3-20.3,38.8,38.8,0,0,0-15.4-3,39.9,39.9,0,0,0-15.4,3,47,47,0,0,0-13,8.2,44.3,44.3,0,0,0-9.1,11.9,36.6,36.6,0,0,0-4.4,14.4Z" style="fill: #fff"/>
      <path d="M3447.8,109.4a56,56,0,0,0-17-12.9,46.2,46.2,0,0,0-20.9-4.6,43.1,43.1,0,0,0-17.7,3.7,44.7,44.7,0,0,0-14.1,10.2,49.6,49.6,0,0,0-9.3,14.7,47.4,47.4,0,0,0-3.4,17.5,48.7,48.7,0,0,0,3.4,17.6,50.6,50.6,0,0,0,9.3,14.9,47.6,47.6,0,0,0,14,10.2,39.5,39.5,0,0,0,17.6,3.8,47,47,0,0,0,21.8-5.2,55.2,55.2,0,0,0,17.7-14.1v14.2a60.5,60.5,0,0,1-18.1,11.1,59.6,59.6,0,0,1-21,3.8,55.4,55.4,0,0,1-22-4.4,54.1,54.1,0,0,1-28.9-29.8,59.7,59.7,0,0,1,0-44,54.8,54.8,0,0,1,11.6-17.8,53.4,53.4,0,0,1,17.6-11.8,54.7,54.7,0,0,1,22-4.4,60.2,60.2,0,0,1,19.9,3.3,57,57,0,0,1,17.5,10Z" style="fill: #fff"/>
      <path d="M3507.9,82.1a56.7,56.7,0,0,1,22.2,4.4A53.4,53.4,0,0,1,3548,98.2a56.2,56.2,0,0,1-40.1,96.1,54.8,54.8,0,0,1-21.8-4.4,58.6,58.6,0,0,1-17.7-12.1,60.7,60.7,0,0,1-12-17.8,54,54,0,0,1-4.4-21.5,55.2,55.2,0,0,1,4.3-21.9,56.1,56.1,0,0,1,11.9-17.9A55.1,55.1,0,0,1,3486,86.6,53.6,53.6,0,0,1,3507.9,82.1Zm-.7,9.8a44,44,0,0,0-17.8,3.7,43,43,0,0,0-14.2,10.2,44.7,44.7,0,0,0-9.3,14.9,46.6,46.6,0,0,0-3.4,17.8,47.6,47.6,0,0,0,12.8,32.2,43.8,43.8,0,0,0,14.2,10.1,41.6,41.6,0,0,0,17.7,3.7,48.4,48.4,0,0,0,18.3-3.4,43.9,43.9,0,0,0,14.9-9.8,46.4,46.4,0,0,0,9.9-14.7,45.3,45.3,0,0,0,3.6-18.1,46.6,46.6,0,0,0-3.6-18.5,45.8,45.8,0,0,0-9.9-14.8,43.6,43.6,0,0,0-14.7-9.8A49.1,49.1,0,0,0,3507.2,91.9Z" style="fill: #fff"/>
      <path d="M3586.3,101.2h.5a34.8,34.8,0,0,1,13-13.9,35.7,35.7,0,0,1,18.8-5.2c7,0,12.8,1.1,17.3,3.2a27,27,0,0,1,10.8,8.9,37.3,37.3,0,0,1,5.7,14.1,96.9,96.9,0,0,1,1.6,18.8V192h-10.5V127.1a119.5,119.5,0,0,0-.7-13.7,29.4,29.4,0,0,0-3.3-11.1,19.7,19.7,0,0,0-7.8-7.6c-3.5-1.8-8.1-2.8-14-2.8s-12.3,1.5-16.4,4.3a28,28,0,0,0-9.4,11.1,50.2,50.2,0,0,0-4.5,15.1,133.2,133.2,0,0,0-1.1,16.5V192h-10.5V84.5h10.5Z" style="fill: #fff"/>
      <path d="M3687.5,192H3677V94.2h-11.8V84.5H3677V46.1h10.5V84.5h18.9v9.7h-18.9Z" style="fill: #fff"/>
      <path d="M3719.9,39.1a9.6,9.6,0,0,1,9.5,9.5,9.1,9.1,0,0,1-2.8,6.8,9.5,9.5,0,0,1-13.5,0,9.5,9.5,0,0,1,0-13.5A9.1,9.1,0,0,1,3719.9,39.1ZM3725,192h-10.5V84.5H3725Z" style="fill: #fff"/>
      <path d="M3761.5,101.2h.5a34.8,34.8,0,0,1,13-13.9,35.8,35.8,0,0,1,18.9-5.2c6.9,0,12.7,1.1,17.2,3.2a27,27,0,0,1,10.8,8.9,37.3,37.3,0,0,1,5.7,14.1,96.9,96.9,0,0,1,1.6,18.8V192h-10.4V127.1c0-4.8-.3-9.4-.7-13.7a29.5,29.5,0,0,0-3.4-11.1,19.7,19.7,0,0,0-7.8-7.6c-3.4-1.8-8.1-2.8-14-2.8s-12.3,1.5-16.4,4.3a28.9,28.9,0,0,0-9.4,11.1,50.2,50.2,0,0,0-4.4,15.1,116.6,116.6,0,0,0-1.2,16.5V192H3751V84.5h10.5Z" style="fill: #fff"/>
      <path d="M3926.7,84.5v64.4c0,5.5-.2,10.9-.7,16.2a27.6,27.6,0,0,1-5.8,14.8,32.1,32.1,0,0,1-14.3,10.9,47,47,0,0,1-35.6,0,32.1,32.1,0,0,1-14.3-10.9,27.6,27.6,0,0,1-5.8-14.8c-.5-5.3-.7-10.7-.7-16.2V84.5h10.4v60.7a120.5,120.5,0,0,0,.9,14.9,34.4,34.4,0,0,0,3.6,12.6,21.4,21.4,0,0,0,8.3,8.6c3.8,2.2,8.9,3.2,15.4,3.2s11.6-1,15.4-3.2a21.4,21.4,0,0,0,8.3-8.6,34.4,34.4,0,0,0,3.6-12.6,120.5,120.5,0,0,0,.9-14.9V84.5Z" style="fill: #fff"/>
      <path d="M3947,139.2a48.5,48.5,0,0,0,2.9,18.6,39.3,39.3,0,0,0,22.8,23.5,44.8,44.8,0,0,0,17.3,3.2,38.4,38.4,0,0,0,22.4-6.7,49.5,49.5,0,0,0,15.6-17.7l8.8,5.1a56,56,0,0,1-19.8,21.6c-8.2,5-17.7,7.5-28.4,7.5a50.2,50.2,0,0,1-21.5-4.5,51.4,51.4,0,0,1-16.5-12.2,53,53,0,0,1-10.5-18,64.4,64.4,0,0,1-3.6-21.6,61.2,61.2,0,0,1,3.7-21.3,55,55,0,0,1,10.6-17.8,52.1,52.1,0,0,1,16.4-12.2,49.7,49.7,0,0,1,21.4-4.6,50.9,50.9,0,0,1,21.8,4.6A47.5,47.5,0,0,1,4026.7,99a54.8,54.8,0,0,1,10.1,18.2,69,69,0,0,1,3.5,22Zm82.8-9.8a41.7,41.7,0,0,0-4.3-14.2,43.2,43.2,0,0,0-8.8-12,44,44,0,0,0-12.5-8.3,38,38,0,0,0-15.3-3,40.4,40.4,0,0,0-15.5,3,44,44,0,0,0-22.1,20.1,36.4,36.4,0,0,0-4.3,14.4Z" style="fill: #fff"/>
    </g>
  </g>
</svg>
