<svg xmlns="http://www.w3.org/2000/svg" width="123.4" height="117.5" viewBox="0 0 123.4 117.5">
  <path d="M61.8,0l4.6.2A70,70,0,0,1,84,3.4a76.4,76.4,0,0,1,9.4,3.7,62.6,62.6,0,0,1,13.3,8.8A50.2,50.2,0,0,1,117.1,28a43.6,43.6,0,0,1,5.3,13.3,38.5,38.5,0,0,1,.8,4.9,36.2,36.2,0,0,1,.1,5.7,36.4,36.4,0,0,1-2.1,11.2A46,46,0,0,1,116,73.5c-1.7,2.4-3.5,4.6-5.4,6.8a71.1,71.1,0,0,1-5.3,5.6l-5.8,5.2c-3.1,2.7-6.3,5.2-9.6,7.6l-9.2,6.5c-4,2.8-8,5.3-12.2,7.8-2.2,1.2-4.3,2.5-6.6,3.5a13.4,13.4,0,0,1-2.6.9H57.8a1.7,1.7,0,0,1-1.6-1.4,5.3,5.3,0,0,1,.1-2.5c.3-2.1.7-4.1,1-6.2a14.5,14.5,0,0,0,0-3.6,3.7,3.7,0,0,0-2.2-3.1A12.3,12.3,0,0,0,51,99.3,78.4,78.4,0,0,1,40.3,97a67.6,67.6,0,0,1-12.2-4.9,57.9,57.9,0,0,1-11.6-7.9A48.5,48.5,0,0,1,7.5,74,44.8,44.8,0,0,1,1.2,60.1,50.7,50.7,0,0,1,.1,53.3q-.2-3,0-6A41.6,41.6,0,0,1,3.3,33.8a49.6,49.6,0,0,1,8.2-12.9,58.9,58.9,0,0,1,10.3-9,61.9,61.9,0,0,1,9-5.2A71.5,71.5,0,0,1,44.5,2,60.1,60.1,0,0,1,54.1.4L58.6.1ZM73.4,53.6h-.1c-.1-.1-.2-.1-.2-.2C70.5,50,68,46.5,65.5,43.1l-4.2-5.6a1.5,1.5,0,0,0-1.6-.8H55.8c-.8,0-1.2.5-1.3,1.3V64.6A1.3,1.3,0,0,0,55.9,66h4c1,0,1.4-.5,1.4-1.5V48.9l.3.4,6.9,9.3,5,6.7a1.4,1.4,0,0,0,1.3.7h3.6c1.3.1,1.8-.5,1.8-1.7-.1-8.7,0-17.3,0-26a.6.6,0,0,0-.1-.4A1.1,1.1,0,0,0,79,36.7H74.6a1.2,1.2,0,0,0-1.2,1.2V53.6ZM91.1,43.5h11.8a1.1,1.1,0,0,0,1.1-1.2V37.9a1.2,1.2,0,0,0-1.1-1.2H85.7A1.3,1.3,0,0,0,84.3,38V64.3a2,2,0,0,0,.1.7,1.2,1.2,0,0,0,1.1,1H103a1.2,1.2,0,0,0,1-1.1V60.3a1,1,0,0,0-1-1H91.1V54.7h12a1.3,1.3,0,0,0,.9-1.1V49.1a1.2,1.2,0,0,0-.9-1.1h-12ZM27,59.2V38.1c0-.9-.4-1.4-1.2-1.4H21.4a1.2,1.2,0,0,0-1.2,1.2V64.8A1.4,1.4,0,0,0,21.3,66H38.8a1.2,1.2,0,0,0,1.1-1.2,32.3,32.3,0,0,0,0-4.4,1.2,1.2,0,0,0-1-1.2H27Zm23.4-7.8V38.2a1.3,1.3,0,0,0-1.5-1.5H45.1a1.3,1.3,0,0,0-1.5,1.5V64.6A1.3,1.3,0,0,0,44.8,66h4.3a1.3,1.3,0,0,0,1.3-1.3V51.4Z" style="fill: #008e45"/>
</svg>
