<svg xmlns="http://www.w3.org/2000/svg" width="1089.1" height="256.3" viewBox="0 0 1089.1 256.3">
  <g style="opacity: 0.2">
    <path d="M.1,252.1l1.7-20.7c.2-3.7.6-10.6,1.1-20.8L8,85.4,10.2.1,27.8.3,44.2.1c-1.7,15.8-3.2,38.4-4.6,68,13-2.9,23.5-4.8,31.8-5.8a201.9,201.9,0,0,1,24.4-1.4c15.5,0,29.1,1.9,40.9,5.9A63.8,63.8,0,0,1,166,86.3a82,82,0,0,1,16.3,30.1,124.2,124.2,0,0,1,4.8,34.9,142,142,0,0,1-5.8,40.7,107,107,0,0,1-17.5,34.9,68.9,68.9,0,0,1-28.5,22.2,94.3,94.3,0,0,1-36.8,7.1,81.4,81.4,0,0,1-20.1-2.4,71.3,71.3,0,0,1-17-6.3,54.8,54.8,0,0,1-12.8-9.3,61.8,61.8,0,0,1-8.7-10.3,122.3,122.3,0,0,1-7.6-14.2l-.6,38.4c-7.1-.3-12.2-.4-15.1-.4ZM37.8,92.8q-1.3,30.6-1.8,40.5t-.6,23.4c0,19.4,2.2,34.2,6.6,44.6s11.1,18.2,19.9,23.5A57.6,57.6,0,0,0,92,232.7c12.9,0,24-3.3,33.3-9.8s16.6-16.4,21.8-29.8a115.4,115.4,0,0,0,7.7-41.6q0-30.5-16.1-49.1C127.9,90,111.8,83.7,90.1,83.7a158.9,158.9,0,0,0-23.3,1.9A220.4,220.4,0,0,0,37.8,92.8Z" style="fill: none;stroke: #c6c7c8;stroke-miterlimit: 10;stroke-width: 0.2404400110244751px"/>
    <path d="M253,252.1q6.6-106.5,6.6-170l-.2-17,15.6.2,15.7-.2-1.5,30.6a110.8,110.8,0,0,1,12.1-17.2,45.7,45.7,0,0,1,11.9-9.6,59.4,59.4,0,0,1,15-5.9,71.7,71.7,0,0,1,17.5-2.1A66.6,66.6,0,0,1,361,62.7c.1,8.1.5,17.2,1.3,27.3a78.6,78.6,0,0,0-20.5-3.1,50.7,50.7,0,0,0-19.6,3.6,44.6,44.6,0,0,0-15.6,10.9,57.5,57.5,0,0,0-11.3,17.4c-2.5,5.4-4.4,12.4-5.6,21.1s-2.4,24.3-3.1,47c-.5,16.6-.7,34.2-.7,52.8v12.4c-6.7-.3-12-.4-16.1-.4S260.5,251.8,253,252.1Z" style="fill: none;stroke: #c6c7c8;stroke-miterlimit: 10;stroke-width: 0.2404400110244751px"/>
    <path d="M427.8,94.8c1.1-5.4,2.2-13.4,3.5-24A320.2,320.2,0,0,1,469.8,63a249.6,249.6,0,0,1,31.8-2.1,152.7,152.7,0,0,1,31.1,3c9.7,2,17.7,5.3,24.1,9.9s10.6,9.8,12.7,15.7a56.1,56.1,0,0,1,3.2,19c0,8.5-.7,22.7-1.9,42.7s-2.3,38.5-3,55.5-1,32.1-1,45.4c-6.6-.3-12.1-.4-16.3-.4s-9.5.1-16.8.4l4-50.4,2.8-59.6c-4.4,3.3-7.6,5.6-9.7,7a70.6,70.6,0,0,1-7.3,3.8c-2.8,1.1-5.7,2.3-9,3.3s-9.6,2.9-19,5.4-16.1,4.6-20.1,5.9a122.5,122.5,0,0,0-20.1,8.2,57.9,57.9,0,0,0-12.4,8.8,29.3,29.3,0,0,0-7,9.6,33,33,0,0,0-2.4,12.4,27.1,27.1,0,0,0,5.9,17.3,29.9,29.9,0,0,0,14.9,10.3,70.8,70.8,0,0,0,21.5,2.9,133.6,133.6,0,0,0,16.2-1.1c5.7-.7,13.2-2.6,22.7-5.6a200.8,200.8,0,0,0-5.9,22,200.4,200.4,0,0,1-22,3.2c-5.6.4-11,.7-16,.7-16.9,0-30-2-39.5-6s-16.6-9.9-21.2-18a51.1,51.1,0,0,1-7.1-26.3,45.6,45.6,0,0,1,9.3-28,56.2,56.2,0,0,1,12.1-11.5,86.8,86.8,0,0,1,16.4-9.4c5.7-2.4,12.4-4.9,20-7.3s19.9-5.6,36.8-9.7a132.4,132.4,0,0,0,13.8-3.7c3.8-1.3,7.2-2.6,10.2-3.8a37.8,37.8,0,0,0,7.7-4.4,29.4,29.4,0,0,0,6.1-6.1,26.4,26.4,0,0,0,4.1-7.2,24.5,24.5,0,0,0,1.3-7.4,22.2,22.2,0,0,0-5.9-15.5,31.8,31.8,0,0,0-15.5-9.1A86.7,86.7,0,0,0,497,80.2a160.9,160.9,0,0,0-24.6,2,167.3,167.3,0,0,0-21.8,4.6C444.5,88.6,436.9,91.3,427.8,94.8Z" style="fill: none;stroke: #c6c7c8;stroke-miterlimit: 10;stroke-width: 0.2404400110244751px"/>
    <path d="M645.9,252.1q8.9-115.8,9.2-187l16.7.2,16-.2L685.4,102c3.1-5.2,5.5-9.1,7.4-11.9a54.8,54.8,0,0,1,7.4-8.8,64,64,0,0,1,25.6-15.2,114.2,114.2,0,0,1,17.3-4,128.3,128.3,0,0,1,17.4-1.2,120.1,120.1,0,0,1,30.7,3.8c9.8,2.6,17.9,6.8,24.3,12.7S826.1,89.8,828.2,97a80.9,80.9,0,0,1,3.2,23.5c0,1.6,0,4.7-.1,9.2s-.4,10.5-.8,17.9L826.9,225c-.3,7.3-.5,16.4-.6,27.1-5.5-.3-10.8-.4-15.7-.4s-11.7.1-17,.4c1.2-14.9,2.2-29.2,2.8-43l2.4-43c.8-14.8,1.1-25.9,1.1-33.4,0-10.9-1.8-19.5-5.5-26s-9.6-11.4-17.7-14.9a69,69,0,0,0-27.4-5.3c-14.3,0-26.5,3.4-36.8,10.2s-16.6,15.2-21.8,26.7c-3.6,8.3-6.1,20.5-7.6,36.6-1.8,19.3-3.2,50-3.9,92.1-6.9-.3-12.2-.4-16-.4S653.7,251.8,645.9,252.1Z" style="fill: none;stroke: #c6c7c8;stroke-miterlimit: 10;stroke-width: 0.2404400110244751px"/>
    <path d="M1079.9,252.5c-7.3-.3-12.3-.4-15.2-.4h-16l2.2-39.9a160,160,0,0,1-10.2,16,66,66,0,0,1-10,10.6,75.5,75.5,0,0,1-13.5,9,71.9,71.9,0,0,1-17.1,6.1,84.8,84.8,0,0,1-19.9,2.3,87,87,0,0,1-33.5-6.5,73.3,73.3,0,0,1-26.5-18.5,71.4,71.4,0,0,1-15.7-27.9,115.8,115.8,0,0,1-4.8-33.4,120.2,120.2,0,0,1,9.1-45.7q9-22.5,25.5-37.2a92.1,92.1,0,0,1,37.4-20.4,167.5,167.5,0,0,1,44.3-5.7,248,248,0,0,1,38.6,3.6c.6-13.4.9-24.5.9-33.4,0-12.8-.1-23.1-.2-31l16.8.2,16.8-.2-5.3,104.3-3.7,119.4ZM1053.3,87.8a114.3,114.3,0,0,0-18.9-4.2,115.5,115.5,0,0,0-15.3-1,111.1,111.1,0,0,0-33.8,5.1,73.3,73.3,0,0,0-28.5,16.7c-8.1,7.8-14.4,17.6-18.9,29.6a100.7,100.7,0,0,0-6.6,35,81.7,81.7,0,0,0,6.3,32.1A49.1,49.1,0,0,0,957,224.3c8.8,5.6,19.1,8.4,30.8,8.4a58.6,58.6,0,0,0,19.2-2.9,51.7,51.7,0,0,0,15.7-8.4c4.8-3.6,9.2-8.6,13.4-14.9a80.9,80.9,0,0,0,10-21.8c2.1-7.2,3.6-17,4.6-29.3.5-6.1,1-17.7,1.7-34.9Z" style="fill: none;stroke: #c6c7c8;stroke-miterlimit: 10;stroke-width: 0.2404400110244751px"/>
  </g>
</svg>
