<svg xmlns="http://www.w3.org/2000/svg" xmlns:xlink="http://www.w3.org/1999/xlink" width="83.7" height="39.7" viewBox="0 0 83.7 39.7">
  <defs>
    <linearGradient id="a" data-name="白、黑 3" x1="-663.07" y1="552.99" x2="-623.34" y2="552.99" gradientTransform="translate(635.6 646.4) rotate(88.3)" gradientUnits="userSpaceOnUse">
      <stop offset="0" stop-color="#fff"/>
      <stop offset="1" stop-color="#050000"/>
    </linearGradient>
    <linearGradient id="b" x1="72.2" y1="19.86" x2="0" y2="19.86" gradientTransform="matrix(1, 0, 0, 1, 0, 0)" xlink:href="#a"/>
    <linearGradient id="c" x1="72.2" y1="19.87" x2="0" y2="19.87" gradientTransform="matrix(1, 0, 0, 1, 0, 0)" xlink:href="#a"/>
  </defs>
  <g>
    <circle cx="63.8" cy="19.9" r="19.5" transform="translate(42 83) rotate(-88.3)" style="fill: none;stroke-miterlimit: 10;stroke-width: 0.75px;stroke: url(#a)"/>
    <g>
      <line y1="19.9" x2="70.9" y2="19.9" style="fill: none;stroke-miterlimit: 10;stroke-width: 0.75px;stroke: url(#b)"/>
      <path d="M63.8,24.9a.5.5,0,0,1,.1-.7l6.8-4.3-6.8-4.4a.5.5,0,1,1,.6-.8L72,19.4a.6.6,0,0,1,0,.9l-7.5,4.8h-.3C64,25.1,63.9,25.1,63.8,24.9Z" style="fill: url(#c)"/>
    </g>
  </g>
</svg>
