<svg xmlns="http://www.w3.org/2000/svg" xmlns:xlink="http://www.w3.org/1999/xlink" viewBox="0 0 83.65 39.75"><defs><style>.cls-1,.cls-2{fill:none;stroke-miterlimit:10;stroke-width:0.75px;}.cls-1{stroke:url(#未命名漸層);}.cls-2{stroke:url(#未命名漸層_2);}.cls-3{fill:url(#未命名漸層_7);}</style><linearGradient id="未命名漸層" x1="-663.06" y1="1590.9" x2="-623.31" y2="1590.9" gradientTransform="translate(706.97 -1571.03)" gradientUnits="userSpaceOnUse"><stop offset="0" stop-color="#fff"/><stop offset="0.01" stop-color="#f6f6f6"/><stop offset="0.05" stop-color="#c9c8c8"/><stop offset="0.09" stop-color="#9f9d9d"/><stop offset="0.14" stop-color="#7a7777"/><stop offset="0.2" stop-color="#5a5757"/><stop offset="0.25" stop-color="#3f3b3b"/><stop offset="0.32" stop-color="#2a2525"/><stop offset="0.4" stop-color="#191414"/><stop offset="0.49" stop-color="#0d0909"/><stop offset="0.63" stop-color="#070202"/><stop offset="1" stop-color="#050000"/></linearGradient><linearGradient id="未命名漸層_2" x1="72.2" y1="1057.84" x2="0" y2="1057.84" gradientTransform="translate(70.9 1077.8) rotate(180)" gradientUnits="userSpaceOnUse"><stop offset="0" stop-color="#fff"/><stop offset="1" stop-color="#050000"/></linearGradient><linearGradient id="未命名漸層_7" x1="117.77" y1="1057.83" x2="45.57" y2="1057.83" gradientTransform="translate(0 -1037.89)" gradientUnits="userSpaceOnUse"><stop offset="0" stop-color="#050000"/><stop offset="0.39" stop-color="#070202"/><stop offset="0.48" stop-color="#090404"/><stop offset="0.52" stop-color="#0a0505"/><stop offset="0.6" stop-color="#120d0d"/><stop offset="0.67" stop-color="#211c1c"/><stop offset="0.73" stop-color="#353131"/><stop offset="0.79" stop-color="#504d4d"/><stop offset="0.85" stop-color="#716e6e"/><stop offset="0.9" stop-color="#989696"/><stop offset="0.95" stop-color="#c5c4c4"/><stop offset="0.99" stop-color="#f7f7f7"/><stop offset="1" stop-color="#fff"/></linearGradient></defs><g id="圖層_2" data-name="圖層 2"><g id="圖層_1-2" data-name="圖層 1"><g id="圖層_2-2" data-name="圖層 2"><g id="圖層_1-2-2" data-name="圖層 1-2"><circle class="cls-1" cx="63.78" cy="19.87" r="19.5"/><line class="cls-2" x1="70.9" y1="19.95" y2="19.95"/><path class="cls-3" d="M63.8,25a.5.5,0,0,1,.1-.7h0L70.7,20l-6.8-4.4a.51.51,0,0,1-.1-.71.5.5,0,0,1,.7-.09h0L72,19.5a.59.59,0,0,1,0,.83h0v.06l-7.5,4.8h-.3C64,25.16,63.9,25.16,63.8,25Z"/></g></g></g></g></svg>