<svg xmlns="http://www.w3.org/2000/svg" width="278.8" height="60" viewBox="0 0 278.8 60">
  <g>
    <path d="M19.6,20.8l-1.9-1.3-4.8-2.8a49.4,49.4,0,0,1-3.2,5.9c-.7.9-1.4,1.9-2.3,2.9a59.1,59.1,0,0,1-7.4,8l4.9,6.6L7.2,38V59.7h7.2v-30a38.3,38.3,0,0,0,3.3-5.3A32,32,0,0,0,19.6,20.8Z" style="fill: #1a1a1a"/>
    <path d="M19.6,46.8a21.7,21.7,0,0,1-1.9,4.1,22,22,0,0,1-1.9,3l1.9,1.7,1.9,1.7,1.8,1.6c2.1-2.8,4-6.9,5.8-12.2l-6.3-3C20.5,44.7,20.1,45.8,19.6,46.8Z" style="fill: #1a1a1a"/>
    <path d="M51,39.8h8.7V33.2H19.6v6.6H39.2l-3.7,3.9a25.2,25.2,0,0,1,4,4,14.3,14.3,0,0,1,2.3,2.6l4.5-5.5a30.7,30.7,0,0,0-5.8-5H51Z" style="fill: #1a1a1a"/>
    <path d="M49.3,50.5l-4.2-2.4a16.1,16.1,0,0,1-.4,3.9,2.5,2.5,0,0,1-1.1,1.6H36.3c-1-.1-1.4-.9-1.4-2.3V43.9h-7v9.7a5.5,5.5,0,0,0,2,4.7,5.4,5.4,0,0,0,3.5,1.1,32.3,32.3,0,0,0,4.6.3h1.5a41,41,0,0,0,6.6-.3,8.8,8.8,0,0,0,3.2-.8h.2A4.4,4.4,0,0,0,51,56.2,23.7,23.7,0,0,0,52,52l-1-.6Z" style="fill: #1a1a1a"/>
    <path d="M9.7,15.6c.9-1.2,2.2-2.4,3.5-4a44.3,44.3,0,0,0,4.5-6.8,5.4,5.4,0,0,1,.7-1.3l-.7-.3L11.8,0,9.7,3.5c-.7,1-1.6,2-2.4,3S3,10.8,1,12.5l5,6.4A44.7,44.7,0,0,0,9.7,15.6Z" style="fill: #1a1a1a"/>
    <path d="M35.9,10.8v2.7H21.2V31h37V13.5h-15V10.8H58.3V4.3H43.2V.1H35.9V4.3h-15v6.5h15Zm-4.4,14H28.2V19.6h3.3Zm16-5.2h3.7v5.2H47.5Zm-9.5,0h3.1v5.2H38Z" style="fill: #1a1a1a"/>
    <path d="M51,45.6,50,46a5.9,5.9,0,0,1,1,1.7A51.5,51.5,0,0,1,55.1,57L62,53.8a56,56,0,0,0-5.6-10.6Z" style="fill: #1a1a1a"/>
    <polygon points="77.5 1.3 77.5 60 85.4 60 85.4 58.6 108.2 58.6 132.2 58.6 132.2 51.4 108.2 51.4 85.4 51.4 85.4 8.4 108.2 8.4 132.2 8.4 132.2 1.3 108.2 1.3 77.5 1.3" style="fill: #1a1a1a"/>
    <path d="M119.6,50V31h10.3V24H99.1V20.9l9.1-1c7.2-1,13.6-2.1,19.3-3.4l-4.2-7.2a140.6,140.6,0,0,1-15.1,2.9c-5,.7-10.6,1.3-16.8,1.7v9.2c0,8-.6,13.5-1.6,16.3a15.6,15.6,0,0,1-3.3,6l6.4,5.2a21.5,21.5,0,0,0,4.5-7.3c.9-2.7,1.4-6.7,1.5-12.3h12.7V50Z" style="fill: #1a1a1a"/>
    <path d="M173.7,32.8a74.1,74.1,0,0,0,7.5-3.5l1.4-.8a49.9,49.9,0,0,0,18.9-17.7V5.3H173a9.7,9.7,0,0,0,1.6-2.8L166.9.1c-1.5,3-4,5.9-7.3,9.2a47.1,47.1,0,0,1-10.2,8.5l6.7,5.2a56.9,56.9,0,0,0,10.7-9.5,1.9,1.9,0,0,1,1-1H191a38.5,38.5,0,0,1-9.8,8.1,41.6,41.6,0,0,1-4.7,2.4,79.4,79.4,0,0,0-8.7-6.7l-6.5,4.9a49,49,0,0,1,6.5,5.4,113.2,113.2,0,0,1-21.1,4.6L151,39c2.7-.5,5.6-1,8.2-1.7V59.7h7.6V57h28.9v2.7h7.5V32.8H173.7Zm22,7.3v9.7H166.8V40.1h28.9Z" style="fill: #1a1a1a"/>
    <path d="M275.7,11.8h-7V20H257.3v6.9h11.4V48.4a11.9,11.9,0,0,1-.4,3.2,1.4,1.4,0,0,1-1.4.8,20,20,0,0,1-4.9-.7l-2.1-.8,1.2,7.3.9.3a17.1,17.1,0,0,0,6,.9c2.9,0,5-.7,6.2-2.1s1.5-3.7,1.5-7.3V26.9h3.1V20h-3.1Z" style="fill: #1a1a1a"/>
    <path d="M262,4.2H221.9v23q0,7.4-.6,14.4a134.6,134.6,0,0,1-2.2,13.9l6.7,3.9a83.3,83.3,0,0,0,2.4-12.7,120,120,0,0,0,1-16.1V10.8h49.6V4.2Z" style="fill: #1a1a1a"/>
    <path d="M251.6,50.7v-.2a23.5,23.5,0,0,0,1.8-4.5l-3.9-1.3h6V30.3H230.4V44.7h3.7l-3.4,2.1a29.6,29.6,0,0,1,3.5,5.2h-5.3l1.2,7.1,11.9-1c5.2-.4,10.1-1,14.8-1.6l-1-6.3Zm-6.7-1.5-.9,2.1h-2a27.3,27.3,0,0,1-4.1.3l3.6-2.1a21.3,21.3,0,0,0-3.1-4.9h7.9C245.8,46.2,245.4,47.7,244.9,49.2Zm3.9-10.5H237.1V36.2h11.7Z" style="fill: #1a1a1a"/>
    <path d="M266.6,42.1A64.2,64.2,0,0,0,263.8,31l-1.8.5-5,1.6a52.3,52.3,0,0,1,2.4,11.3l2.6-.8Z" style="fill: #1a1a1a"/>
    <polygon points="247 11.6 242 11.6 240.1 11.6 240.1 14.2 229.9 14.2 229.9 20.5 240.1 20.5 240.1 22.7 231.5 22.7 231.5 29 242 29 254.9 29 254.9 22.7 247 22.7 247 20.5 256.8 20.5 256.8 14.2 247 14.2 247 11.6" style="fill: #1a1a1a"/>
  </g>
</svg>
