<svg xmlns="http://www.w3.org/2000/svg" width="45.8" height="44.5" viewBox="0 0 45.8 44.5">
  <path d="M0,20.5v-3L.2,17A16.2,16.2,0,0,1,4.6,7.7C8.8,3,14.2.7,20.5.1A24.9,24.9,0,0,1,38.7,5.3c8.6,6.7,9.5,18,2.2,26-4.5,4.8-9.9,8.4-15.4,11.9a13.9,13.9,0,0,1-2.8,1.2,2.1,2.1,0,0,1-2.9-2.2,10.6,10.6,0,0,1,.2-2.5c.2-1.1.2-1.2-1-1.5a24.5,24.5,0,0,1-3.7-.8c-6.9-2.1-12-6.1-14.4-13C.5,23.1.3,21.8,0,20.5Zm26-1.2h-.3a59.2,59.2,0,0,0-3.5-4.8,1.4,1.4,0,0,0-1.3-.5c-.3,0-.7.7-.7,1.1-.1,2.5,0,5.1-.1,7.6a1.1,1.1,0,0,0,1,1.3c.7.2,1.2-.4,1.2-1.4s0-2.6,0-4c1.4,1.6,2.6,3.2,3.8,4.8a1.5,1.5,0,0,0,1.2.5c.4,0,.8-.7.8-1,.1-2.8.1-5.5.1-8.2-.1-.6-.4-1.1-1.1-1.1A1,1,0,0,0,26,14.8v4.5Zm5.8-3.6h3.8c.7,0,1.3-.3,1.3-1.1s-.5-1.1-1.3-1.1H31c-1,0-1.4.4-1.4,1.4s-.1,5.1,0,7.6S30,24,31,24h4.5c1.1,0,1.7-.4,1.6-1.1s-.8-1.1-1.6-1.1H31.8v-2h3.1c.7,0,1.3-.3,1.3-1.1a1,1,0,0,0-1.3-1H31.8ZM11.4,22V15.1c0-.7-.2-1.4-1.1-1.4s-1.1.6-1.1,1.4v7.7c0,.9.4,1.4,1.3,1.4H14c.8,0,1.3-.3,1.3-1.1S14.8,22,14.1,22Zm4.8-3.2v4c0,.8.3,1.3,1.1,1.3s1.1-.5,1.1-1.3V15c0-.7-.3-1.3-1.1-1.3s-1.1.5-1.1,1.3Z" style="fill: #333"/>
</svg>
