<svg xmlns="http://www.w3.org/2000/svg" width="37.8" height="37.6" viewBox="0 0 37.8 37.6">
  <g>
    <path d="M37,30c-1.4-3-6.4-9.5-10.3-8.2-1.8.6-2.4,2.3-3.9,3.2s-5.5-.7-7.2-2.1a11.9,11.9,0,0,1-3.3-5.2c-.7-2.5.5-3,2-4.6,3.7-3.9-.1-7.4-3.4-10.2S4.8-.2,2.2,3.5a9.2,9.2,0,0,0-1.3,7c2,10.4,10.9,19.9,20.2,24.2,2.6,1.2,5.7,2.3,8.5,2.2S38,33.9,37,30Z" style="fill: none;stroke: #2e3335;stroke-miterlimit: 10;stroke-width: 1.43568198882574px"/>
    <line x1="24.7" y1="23.2" x2="35.8" y2="34" style="fill: none;stroke: #2e3335;stroke-miterlimit: 10;stroke-width: 1.43568198882574px"/>
    <line x1="3.3" y1="2.2" x2="14.3" y2="13.1" style="fill: none;stroke: #2e3335;stroke-miterlimit: 10;stroke-width: 1.43568198882574px"/>
  </g>
</svg>
