<svg xmlns="http://www.w3.org/2000/svg" width="622.1" height="134" viewBox="0 0 622.1 134">
  <path d="M80.1,24.9v5.9H47.2V69.9h82.6V30.8H96.3V24.9h33.8V10.5H96.3V1.1H80.1v9.4H46.6V24.9H80.1ZM70.4,56.1H62.8V44.6h7.6ZM106,44.6h8.1V56.1H106Zm-21.3,0h6.9V56.1H84.7Zm25.4,45H90.4a62,62,0,0,1,12.8,11.2L93.2,113a47.2,47.2,0,0,0-5-5.9,75.2,75.2,0,0,0-9.1-8.8l8.5-8.7H43.8V74.9h89.4V89.6H110.1Zm28.1,31.2L122.9,128a118,118,0,0,0-9.1-20.9,24,24,0,0,0-2.1-3.8l2.1-.9,11.9-5.3A113.5,113.5,0,0,1,138.2,120.8Zm-24.4-5.3,2.2,1.3c-.6,3.7-1.2,7.2-2.2,9.4s-1.8,4-3.4,5l-.3.3a23,23,0,0,1-7.2,1.8c-1.9.4-6.9.7-14.7.7H84.7a82,82,0,0,1-10.3-.7,12.7,12.7,0,0,1-7.8-2.4c-2.8-2.3-4.4-5.7-4.4-10.6V98.6H77.9v16.9c0,3.1.9,4.8,3.1,5,.6,0,2.2.3,3.7.3a12.7,12.7,0,0,0,3.5-.3,89.2,89.2,0,0,0,9.1-.2,5.9,5.9,0,0,0,2.5-3.5,56.9,56.9,0,0,0,.9-8.8l9.4,5.4ZM46.6,98.3l14.1,6.6c-4.1,11.9-8.2,21-12.8,27.2l-4.1-3.5-4.4-3.7-4.1-3.8a45.4,45.4,0,0,0,4.1-6.8,47.8,47.8,0,0,0,4.4-9.1ZM39.4,55.2A83,83,0,0,1,32.2,67v67H16V85.5a31.2,31.2,0,0,1-5.1,4.7L0,75.5c5.3-4.4,10.6-10.6,16.6-17.8,1.8-2.2,3.4-4.4,5-6.6A100.6,100.6,0,0,0,28.8,38l10.6,6.2,4.4,2.9C42.5,49.5,41.3,52.3,39.4,55.2ZM13.4,43,2.2,28.6A185.6,185.6,0,0,0,16.3,15.2c1.8-2.2,3.7-4.5,5.3-6.6S25,3.3,26.3.8L39.4,8l1.6.6c-.6.9-1,1.9-1.6,2.8a83.3,83.3,0,0,1-10,15.3c-2.8,3.5-5.6,6.2-7.8,8.8S15.7,41.1,13.4,43ZM240.6,2.5h53.6v16H189.5v96.2H294.2v16H189.5v3.1H171.9V2.5Zm7.5,109.1V69H219.9c-.8,20.7-2.1,31.1-13.5,43.8L192,101.2c14-14.8,10.4-45.9,11-70.5,25-1.6,49.6-4.7,71.5-10.3l9.4,16.3a545.8,545.8,0,0,1-63.7,9.7v6.9h69V69H266v42.6ZM387,73c25.5-10.3,46.9-24.5,62.4-49.2V11.6h-64a27.1,27.1,0,0,0,3.8-6.3L372,0c-8.4,14.1-24.1,29.9-39.2,39.5l15,11.6c9.8-6.4,17.9-15,26-23.5h52.1c-7.7,9.2-20.3,18.4-32.6,23.5a144.5,144.5,0,0,0-19.5-15L359.4,47a123.4,123.4,0,0,1,14.4,12.2c-13.1,4.4-28.8,7.9-47,10.3l9.4,17.3a183.4,183.4,0,0,0,18.5-3.7v50.1h16.9v-6h64.6v6h16.9V73Zm49.2,16.3V111H371.6V89.3Zm179-44.8h6.9V59.9h-6.9v51.7c1.9,22.9-15.9,24-32.6,18.2l-2.8-16.4c4.9,1.8,15,6.3,18.8,1.6,2-3.3.5-50.4.9-55.1H574.1V44.5h25.4V26h15.7Zm-53.9,68.6c1.2-3.7,3.3-6.9,4.1-10.6l-8.8-2.8h13.5V67.4H513.9V99.7h8.2l-7.5,4.7a57.5,57.5,0,0,1,7.8,11.6c-4.1,0-7.8.3-11.9.3l2.8,15.7c20-1.4,40.7-3.4,59.6-5.7l-2.2-14.1Zm-15.1-3.4c-.6,1.6-1.2,3.1-1.9,4.7-4.5.5-9.1.8-13.7,1l8.1-4.7a53.2,53.2,0,0,0-6.9-11h17.6C548.4,103.1,547.5,106.3,546.2,109.7ZM555,86.2H529V80.5h26ZM622.1,9.1V23.8h-111c-.1,34.6,1.9,75.5-7.5,108.8l-15-8.8c8.6-36.1,5.8-78.3,6.2-114.7ZM584.5,97.2l-5.7,1.9a135.2,135.2,0,0,0-5.3-25.4L588.6,69a131.1,131.1,0,0,1,6.2,24.7ZM550.9,31.3h22V45.4h-22v5.1h17.9V64.6H516.5V50.5h19.1V45.4H512.7V31.3h22.9V25.7h15.3Z" style="fill: #fff"/>
</svg>
