<svg xmlns="http://www.w3.org/2000/svg" width="351.8" height="151.5" viewBox="0 0 351.8 151.5">
  <g>
    <path d="M128.5,94.1c.2-2.7.3-5.4.4-8.2s1.2-5.6,1.7-8.5.3-5.1,1.2-7.6,1-4.9,1.8-7.4,1.1-2.2,1.4-3.3a30.6,30.6,0,0,1,.5-3.2c.4-1.1,1-2,1.4-3s.5-2.6,1-3.9c1.8-4.5,3.6-8.8,5.6-13.2,3.9-9.1,8.6-18.7,15.4-26.1A37,37,0,0,1,171.2.9c2.4-1.2,4.9-.9,7.5-.9s5.3-.1,8,1.9c4.3,3.3,6.5,7.6,8.3,12.7a43.3,43.3,0,0,1,1.8,7.3c.4,2.6,2.2,6.5,1.3,9s-3.2,1.8-3.9-.2-.4-5.9-.9-8.6c-.9-4.7-2.9-10.2-5.9-14-7.4-9.3-20.2-3.8-26.8,3.5S148.8,29.4,145,38.9a46.6,46.6,0,0,0-2.6,7.1,14,14,0,0,1-1.5,3.3c-.6,1.2-.5,2.5-.9,3.9a17.5,17.5,0,0,1-1.3,2.8,19.1,19.1,0,0,0-.6,3.3c-.4,2.6-1.8,4.7-2.1,7.3s-1.6,5.3-2,8.1-.3,5.8-1,8.7a56.9,56.9,0,0,0-.9,17c.6,5.2,1.9,11.5,5.4,15.5s9.6,5.3,14.8,3.7c2-.7,4.2-1,6.2-1.9s5-2.5,7.4-4a96.3,96.3,0,0,0,13.5-10.3,133.5,133.5,0,0,0,12.1-12.8c3.3-4,8-8.3,10.3-13.1,1.1-2.4.5-5.6,1.2-8.2a57.2,57.2,0,0,0,1.4-8.1c.3-2.7,1.5-5.1,1.9-7.7a63.7,63.7,0,0,1,2-7.5c.4-1.2.4-2.5.8-3.7s1-2,1.4-3,.4-2.3.9-3.4a35.9,35.9,0,0,0,1.7-3.4A42,42,0,0,1,221.9,19c2.9-3,7.6-6.5,11.1-2.5s1.6,9.7.5,14.6-3.2,8.9-5.1,13.2a108.3,108.3,0,0,1-8.1,14c-3.1,4.9-6.7,9.5-10.3,14.1a34.1,34.1,0,0,0-4.3,5.9c-.4.8-.9,2.5.5,2.6s1.6-1.5,2.2-2.1c5.2-4.9,5.1,7.2,6,9.2,2.5,5.9,10.2-2.8,12.1-5.5s1.6-4.4,3.3-4.9,2.4,2.9,2.3,4.4a6,6,0,0,0,3.6,5.6c2.6,1,4.9-.5,7.3-1.4,4.9-1.7,7.9-5.4,10.8-9.5a18.2,18.2,0,0,1,5.5-5.2c2.5-1.4,4.9-.2,6.9,1.5,4.1,3.5-1.7,10.5,3.4,14s10.6-1.9,13.7-4.7a67.7,67.7,0,0,0,5.1-5.6c2.1-2.6,3-1.1,3.3,1.4.1.8-.2,2,.8,2.3s1.6-1.1,2.2-1.6c2.2-2.1,4.3-.5,5.2,2s0,4.7,1.7,6.3,4.3.2,6.2-1c4.6-2.8,6.4-7.6,10.1-11.2,1.5-1.5,3.5-3.6,5.7-4s2.2.1,3.5-.5,1.9-1.6,3-.6.3,5.9.2,7.7-.4,6-.8,9-1.9,6.4-.4,7.5,5.5-2.8,6.7-3.5a89.4,89.4,0,0,0,12.9-11c.6-.6,1.5-1.7,2.4-1.3s.6,1.6.1,2.3c-1.4,2.3-3.9,4.2-5.9,6.1A80,80,0,0,1,332,96.4c-2.4,1.4-3.5,2.1-4.1,4.9a56.6,56.6,0,0,0-1.6,8.2,22.2,22.2,0,0,1-.6,4.4,38.2,38.2,0,0,0-1.3,3.6,58.6,58.6,0,0,1-1.9,7.2c-.8,2.4-1.5,4.8-2.4,7.2a39.8,39.8,0,0,1-3.6,7.5c-2.6,4.3-6.4,9.8-11.4,11.6a11.2,11.2,0,0,1-7,0c-2.2-1.2-3-4.2-3.2-6.5a36.6,36.6,0,0,1,.2-8.1,20.2,20.2,0,0,1,.5-4.3c.3-1.3,1-2.4,1.4-3.7,3.4-10.7,10.2-18.5,18.9-25.4,2-1.6,4.1-3.2,6.2-4.6s3.2-2.8,3.3-5.7,1.2-6.3,0-7.8-4.8.3-6.6-.1-3.2-1.6-5.5.5a30.2,30.2,0,0,1-7.1,5.2c-2,1-4.7,1.5-6.8.4s-1.7-4.3-2.6-6.5c-2.5-6.1-5.3,5.9-8.2,2.7-1.1-1.2.4-4.8-2.3-3.9s-4.3,4-6.6,5.3-9.9,4.6-13.5,1c-1.3-1.3-1.9-4.4-3.5-5.2s-2,.2-3,.4a7.8,7.8,0,0,1-4,0c-1.3-.4-2-1.2-3.6-.8s-2.3,1.6-3.4,2.3a48.9,48.9,0,0,1-6.7,3.9,13.1,13.1,0,0,1-7.3,1.1c-2.7-.4-3.9-2.1-5.4-4.1s-3.2-.3-4.9,1.5a15.8,15.8,0,0,1-6.2,4.6c-2.1.8-5.2.6-6.5-1.5s-.7-4.6-1.4-6.8c-2.3-7.3-5.8,8.9-8.6,3.4-.5-1.1.7-4.9-1.7-3.8s-2,2.3-2.6,3.1l-3.2,4A120.9,120.9,0,0,1,167.6,116a58.3,58.3,0,0,1-14.2,6.9c-4.8,1.9-11.6,1.3-15.8-1.6C128.8,115.2,128.8,103.7,128.5,94.1Zm169.6,45a49.8,49.8,0,0,0,.5,6c.8,1.7,2.6,3.6,4.6,3.3,4.6-.5,8.2-5.7,10.3-9.3a46,46,0,0,0,2.9-5.9c.8-2,1.8-4.2,2.4-6.3s.2-2.1.6-3.2.9-1.8,1.3-2.8.5-4.7,1.2-7a33,33,0,0,0,1.5-7.6c.2-2,.7-4.5-2-3.4s-4.6,3.4-6.5,5a58.9,58.9,0,0,0-5.8,5.4A41.6,41.6,0,0,0,298.1,139.1ZM231.2,24.2c0-1.6-.3-4.3-1.7-5.4s-2.8-.1-4,.8c-3.6,2.7-5.8,6.6-8,10.6a54.6,54.6,0,0,0-3.9,9.7c-.5,1.8-1.5,3.2-1.9,5a65.5,65.5,0,0,1-1.9,6.3c-.4,1.9-.3,3.9-.8,5.7s-1.4,3.9-1.6,6.1-.6,4.3-.6,6.3.9,2.6,2.3,1.1a35.8,35.8,0,0,0,4-5.6c1.2-1.9,2.8-3.7,4-5.6s3.9-6.7,5.8-10.1a53.6,53.6,0,0,0,2.8-5.3,63.2,63.2,0,0,0,2.5-6c.6-2.2,1.8-4.1,2.1-6.3S230.9,26.6,231.2,24.2Zm87.8,55c-.6,4.1,7.2,2,6.8-1.9S319.3,75.8,319,79.2Zm-62.4-.1c-.6,4.4,7.8,1.8,6.4-2.5S256.5,76,256.6,79.1Z" style="fill: #fff"/>
    <path d="M34.8,14.8c22-.3,44-.5,65.4-5.6,2.7-.6,18-6.2,17.5-2.4s-18.6,6.1-21.9,6.7C75.5,17.1,55.7,18,34.9,18c-1.5-.1-10.1-1.2-10.7.7s8.5,4.6,9.3,5.1a84,84,0,0,1,11.5,7,61.7,61.7,0,0,1,5.4,4.8c.8.8,3.4,5.2,4.5,5.5,3.8,1.1,4.7-14.1,6.6-17.2s1.9-3.8,3.2-.4-2.8,10.7-3.5,13.4c-4,15.1-8.9,30-11.9,45.3-1.8,9.4-4.2,18.1-4.4,27.8-.1,3.8,1.4,9.1.7,12.6-1.5,7.1-4-.9-4.4-4.1-2.3-17.6,4.9-36.8,9.4-53.4,2.6-9.5,5-18-2.5-25.9S29.5,26.5,19.6,22.6c-3-1.2-5.9-2.3-9-3.2S-1.7,17.8.2,15.4,34.8,15.9,34.8,14.8Z" style="fill: #fff"/>
    <path d="M75.8,91.2a10,10,0,0,1-4.9-.9l-1.7-.6A8.2,8.2,0,0,1,64,84.5a6.1,6.1,0,0,1-.3-2.7,13.2,13.2,0,0,1,.4-3.4c.8-4.4,5.1-6.3,8.7-5.6S77.4,76.1,76,79a6.6,6.6,0,0,1-2.6,2.9,10.9,10.9,0,0,0-1.7,1.3,2.2,2.2,0,0,0,.4,3.7,6.8,6.8,0,0,0,5.9.8,23.2,23.2,0,0,0,9.4-5.3,34.7,34.7,0,0,0,2.5-2.9L91.6,78a.9.9,0,0,1,1.4.2c.6.5.7.9.3,1.5L92.5,81c-1.6,1.6-3.1,3.4-4.9,4.9a17,17,0,0,1-5.4,3.4l-.8.4A8.1,8.1,0,0,1,75.8,91.2ZM67.3,78.3c0,1.3.5,1.7,1.5,1.5a6.8,6.8,0,0,0,3.4-2.1,1.2,1.2,0,0,0-.8-2.1,5,5,0,0,0-2.4.3A2.5,2.5,0,0,0,67.3,78.3Z" style="fill: #fff"/>
  </g>
</svg>
