<svg xmlns="http://www.w3.org/2000/svg" width="105.9" height="22.8" viewBox="0 0 105.9 22.8">
  <g>
    <path d="M18.7,19.2l-1.6-.9c0,.8-.1,1.3-.1,1.5l-.4.6H13.8c-.4,0-.5-.3-.5-.9V16.7H10.6v3.7a2.5,2.5,0,0,0,.7,1.8,2.9,2.9,0,0,0,1.4.4h4.8l1.2-.3h.1a1.7,1.7,0,0,0,.6-.8c.1-.4.3-1,.4-1.6l-.4-.3Z" style="fill: #fff"/>
    <path d="M7.5,17.8c-.3.5-.5,1.1-.8,1.5A4.7,4.7,0,0,1,6,20.5l.7.6.8.7.6.6a17.3,17.3,0,0,0,2.2-4.7L7.9,16.6C7.8,17,7.6,17.4,7.5,17.8Z" style="fill: #fff"/>
    <path d="M19.4,17.3l-.4.2a2.1,2.1,0,0,1,.4.6,19.4,19.4,0,0,1,1.5,3.6l2.6-1.3a15.3,15.3,0,0,0-2.1-4Z" style="fill: #fff"/>
    <path d="M3.7,5.9,5,4.4A10.6,10.6,0,0,0,6.7,1.8L7,1.3H6.7L4.5,0,3.7,1.3,2.8,2.5.4,4.7,2.3,7.2Z" style="fill: #fff"/>
    <path d="M7.5,7.9l-.8-.5L4.9,6.3A12.7,12.7,0,0,1,3.7,8.6L2.8,9.7a20.9,20.9,0,0,1-2.8,3l1.9,2.5a5.9,5.9,0,0,0,.8-.8v8.3H5.5V11.3a10.6,10.6,0,0,0,1.2-2C7,8.8,7.2,8.3,7.5,7.9Z" style="fill: #fff"/>
    <path d="M13.6,4.1v1H8v6.7H22.1V5.1H16.4v-1h5.8V1.7H16.4V.1H13.6V1.7H7.9V4.1h5.7ZM12,9.4H10.7V7.5H12Zm6.1-1.9h1.3V9.4H18.1Zm-3.7,0h1.2V9.4H14.4Z" style="fill: #fff"/>
    <path d="M19.4,15.1h3.3V12.6H7.5v2.5h7.4l-1.4,1.5c.5.4,1,1,1.5,1.5l.9,1L17.6,17l-2.2-1.9h4Z" style="fill: #fff"/>
    <polygon points="29.4 0.5 29.4 22.8 32.4 22.8 32.4 22.3 41.1 22.3 50.2 22.3 50.2 19.5 41.1 19.5 32.4 19.5 32.4 3.2 41.1 3.2 50.2 3.2 50.2 0.5 41.1 0.5 29.4 0.5" style="fill: #fff"/>
    <path d="M45.4,19V11.8h4V9.1H37.7V7.9l3.4-.3c2.7-.4,5.2-.8,7.4-1.3L46.9,3.5c-1.7.4-3.6.8-5.8,1.1l-6.4.7V8.8a21.3,21.3,0,0,1-.6,6.2,7.1,7.1,0,0,1-1.2,2.3l2.4,1.9A7.3,7.3,0,0,0,37,16.5a22.5,22.5,0,0,0,.6-4.7h4.8V19Z" style="fill: #fff"/>
    <path d="M66,12.5l2.9-1.4.5-.3a18.4,18.4,0,0,0,7.2-6.7V2H65.7a6.1,6.1,0,0,0,.7-1l-3-.9a15.4,15.4,0,0,1-2.7,3.4,20.7,20.7,0,0,1-3.9,3.3l2.5,1.9a20,20,0,0,0,4.1-3.6l.3-.4h8.9a14.2,14.2,0,0,1-3.7,3.1,6.6,6.6,0,0,1-1.9.9,23.6,23.6,0,0,0-3.3-2.5L61.3,8l2.4,2.1a37,37,0,0,1-7.9,1.8l1.6,2.9,3.1-.6v8.5h2.9v-1H74.3v1h2.9V12.5H66Zm8.3,2.7v3.7H63.4V15.2H74.3Z" style="fill: #fff"/>
    <path d="M99.5,1.6H84.3v8.7c0,1.9-.1,3.7-.2,5.5a45.2,45.2,0,0,1-.9,5.3l2.6,1.5a46.3,46.3,0,0,0,.9-4.9,39.9,39.9,0,0,0,.4-6.1V4.1h18.8V1.6Z" style="fill: #fff"/>
    <path d="M104.8,4.5h-2.7V7.6H97.8v2.6h4.3v8.2a3.7,3.7,0,0,1-.2,1.2c0,.2-.2.3-.5.3l-1.9-.2-.8-.4.5,2.8h.3a6.2,6.2,0,0,0,2.3.4,3.3,3.3,0,0,0,2.4-.8,5.5,5.5,0,0,0,.6-2.8V10.2h1.1V7.6h-1.1Z" style="fill: #fff"/>
    <path d="M95.6,19.3h0a12.2,12.2,0,0,0,.7-1.7L94.8,17h2.3V11.5H87.6V17h1.3l-1.2.8a13.7,13.7,0,0,1,1.3,2H87l.4,2.7,4.6-.4,5.6-.6-.4-2.4ZM93,18.7l-.3.8H92l-1.6.2,1.4-.8A12.2,12.2,0,0,0,90.6,17h3A11.5,11.5,0,0,1,93,18.7Zm1.5-4H90.1v-1h4.4Z" style="fill: #fff"/>
    <polygon points="93.8 4.4 92 4.4 91.2 4.4 91.2 5.4 87.3 5.4 87.3 7.8 91.2 7.8 91.2 8.6 88 8.6 88 11 92 11 96.9 11 96.9 8.6 93.8 8.6 93.8 7.8 97.6 7.8 97.6 5.4 93.8 5.4 93.8 4.4" style="fill: #fff"/>
    <path d="M101.3,16a21.3,21.3,0,0,0-1.1-4.2l-.7.2-1.8.6a25,25,0,0,1,.9,4.3l.9-.3Z" style="fill: #fff"/>
  </g>
</svg>
