<svg xmlns="http://www.w3.org/2000/svg" xmlns:xlink="http://www.w3.org/1999/xlink" width="152.7" height="73.5" viewBox="0 0 152.7 73.5">
  <defs>
    <linearGradient id="a" data-name="白、黑" x1="-7103.31" y1="-2948.85" x2="-7029.85" y2="-2948.85" gradientTransform="matrix(0.99, -0.15, 0.15, 0.99, 7538.44, 1918)" gradientUnits="userSpaceOnUse">
      <stop offset="0" stop-color="#fff"/>
      <stop offset="1"/>
    </linearGradient>
    <linearGradient id="b" x1="16.91" y1="66.03" x2="113.9" y2="7.75" gradientTransform="matrix(1, 0, 0, 1, 0, 0)" xlink:href="#a"/>
    <linearGradient id="c" x1="30.5" y1="88.65" x2="127.49" y2="30.37" gradientTransform="matrix(1, 0, 0, 1, 0, 0)" xlink:href="#a"/>
  </defs>
  <g>
    <circle cx="116" cy="36.7" r="36.2" style="fill: none;stroke-miterlimit: 10;stroke-width: 1.14782967710969px;stroke: url(#a)"/>
    <g>
      <line y1="37.4" x2="129" y2="37.4" style="fill: none;stroke-miterlimit: 10;stroke-width: 0.906921138435081px;stroke: url(#b)"/>
      <path d="M114.9,47.4a1,1,0,0,1,.3-1.5l13.3-8.5-13.3-8.5a.9.9,0,0,1-.3-1.4,1,1,0,0,1,1.4-.3L131,36.6a1,1,0,0,1,.5.8,1.1,1.1,0,0,1-.5.9l-14.7,9.4h-.6C115.4,47.8,115,47.7,114.9,47.4Z" style="fill: url(#c)"/>
    </g>
  </g>
</svg>
