<svg xmlns="http://www.w3.org/2000/svg" width="79.4" height="17.1" viewBox="0 0 79.4 17.1">
  <g>
    <path d="M5.6,5.9,5,5.6,3.7,4.8,2.8,6.4l-.7.9A11.2,11.2,0,0,1,0,9.5l1.4,1.9.6-.6V17H4.1V8.5A6,6,0,0,0,5,7C5.3,6.6,5.4,6.2,5.6,5.9Z" style="fill: #231815"/>
    <path d="M5.6,13.3A6.7,6.7,0,0,1,5,14.5a4.1,4.1,0,0,1-.5.9l.5.5.6.4.5.5a12.8,12.8,0,0,0,1.6-3.5L6,12.5A3,3,0,0,0,5.6,13.3Z" style="fill: #231815"/>
    <path d="M14.5,11.3H17V9.5H5.6v1.8h5.6l-1.1,1.2,1.2,1.1.6.7,1.3-1.5a8,8,0,0,0-1.7-1.5h3Z" style="fill: #231815"/>
    <path d="M10.2,3.1v.7H6v5H16.6v-5H12.3V3.1h4.3V1.2H12.3V0H10.2V1.2H6V3.1h4.2ZM9,7.1H8V5.6H9Zm4.5-1.5h1.1V7.1H13.5Zm-2.7,0h.9V7.1h-.9Z" style="fill: #231815"/>
    <path d="M2.8,4.4l1-1.1A10,10,0,0,0,5,1.4c.1-.2.2-.3.2-.4H5L3.4,0,2.8,1l-.7.8L.3,3.6,1.7,5.4Z" style="fill: #231815"/>
    <path d="M14.1,14.4l-1.2-.7a4.2,4.2,0,0,1-.2,1.1c0,.2-.1.3-.3.5H10.3c-.2,0-.4-.2-.4-.6V12.5h-2v2.8a1.5,1.5,0,0,0,1.6,1.6h3.6l1-.2h0a1.6,1.6,0,0,0,.4-.7,3.5,3.5,0,0,0,.3-1.2h-.3Z" style="fill: #231815"/>
    <path d="M14.5,13h-.2c.1.2.2.3.2.5a11.1,11.1,0,0,1,1.2,2.7l2-1a21.1,21.1,0,0,0-1.6-3Z" style="fill: #231815"/>
    <path d="M34.1,14.3V8.8H37v-2H28.2V6l2.6-.3a55.3,55.3,0,0,0,5.5-1L35.2,2.6a37.6,37.6,0,0,1-4.4.9L26,4V6.6a15.7,15.7,0,0,1-.4,4.6,4,4,0,0,1-1,1.7l1.9,1.5a6.9,6.9,0,0,0,1.3-2.1,13.3,13.3,0,0,0,.4-3.5h3.6v5.5Z" style="fill: #231815"/>
    <polygon points="22.1 0.4 22.1 17.1 24.3 17.1 24.3 16.7 30.8 16.7 37.7 16.7 37.7 14.7 30.8 14.7 24.3 14.7 24.3 2.4 30.8 2.4 37.7 2.4 37.7 0.4 30.8 0.4 22.1 0.4" style="fill: #231815"/>
    <path d="M49.5,9.3a13.6,13.6,0,0,0,2.1-1l.4-.2a13.6,13.6,0,0,0,5.4-5V1.5H49.3a5.6,5.6,0,0,0,.5-.8L47.6,0a12,12,0,0,1-2.1,2.6,11.6,11.6,0,0,1-2.9,2.5l1.9,1.4a12.7,12.7,0,0,0,3-2.7l.3-.2h6.6a11.1,11.1,0,0,1-2.8,2.3,5.2,5.2,0,0,1-1.3.6,18.1,18.1,0,0,0-2.5-1.9L46,6a13.7,13.7,0,0,1,1.8,1.6,38.8,38.8,0,0,1-6,1.3L43,11.1l2.4-.5V17h2.1v-.7h8.3V17h2.1V9.3H49.5Zm6.3,2.1v2.8H47.5V11.4h8.3Z" style="fill: #231815"/>
    <path d="M76,12a24.9,24.9,0,0,0-.8-3.2l-.5.2-1.4.4a16.1,16.1,0,0,1,.6,3.3l.8-.3Z" style="fill: #231815"/>
    <path d="M78.6,3.4h-2V5.7H73.3v2h3.3v6.1a2,2,0,0,1-.2.9c0,.2-.2.2-.4.2a3,3,0,0,1-1.3-.2l-.6-.2.3,2.1h.3a4.7,4.7,0,0,0,1.7.2,2.1,2.1,0,0,0,1.7-.6,3,3,0,0,0,.5-2V7.7h.8v-2h-.8Z" style="fill: #231815"/>
    <path d="M74.7,1.2H63.2V7.7c0,1.4,0,2.8-.1,4.2s-.4,2.4-.7,3.9l1.9,1.1a15.3,15.3,0,0,0,.7-3.6,34.4,34.4,0,0,0,.3-4.6V3.1H79.4V1.2Z" style="fill: #231815"/>
    <polygon points="70.4 3.3 69 3.3 68.4 3.3 68.4 4 65.5 4 65.5 5.8 68.4 5.8 68.4 6.5 66 6.5 66 8.3 69 8.3 72.7 8.3 72.7 6.5 70.4 6.5 70.4 5.8 73.2 5.8 73.2 4 70.4 4 70.4 3.3" style="fill: #231815"/>
    <path d="M71.7,14.5h0a11.2,11.2,0,0,0,.5-1.3l-1.1-.4h1.7V8.6H65.7v4.1h1l-1,.6a6.5,6.5,0,0,1,1,1.5H65.2l.4,2,3.4-.3,4.2-.5-.3-1.8ZM69.8,14l-.3.6H67.8l1-.6a8,8,0,0,0-.9-1.4h2.3C70.1,13.2,69.9,13.6,69.8,14Zm1.1-3H67.6v-.7h3.3Z" style="fill: #231815"/>
  </g>
</svg>
