<svg xmlns="http://www.w3.org/2000/svg" xmlns:xlink="http://www.w3.org/1999/xlink" width="65.3" height="185.9" viewBox="0 0 65.3 185.9">
  <defs>
    <linearGradient id="a" data-name="白、黑" x1="272.29" y1="-152.9" x2="337.22" y2="-152.9" gradientTransform="translate(185.5 337.2) rotate(-90)" gradientUnits="userSpaceOnUse">
      <stop offset="0" stop-color="#fff"/>
      <stop offset="1"/>
    </linearGradient>
    <linearGradient id="b" x1="316.17" y1="-152.9" x2="245.65" y2="-152.9" xlink:href="#a"/>
  </defs>
  <g>
    <g>
      <path d="M21,177.4H41.8v3H21v5.5H18.3V171.8H21Z"/>
      <path d="M21.4,167.6a12.2,12.2,0,0,1-3.6-8.7,12.3,12.3,0,0,1,12.3-12.3,11.8,11.8,0,0,1,8.7,3.5,12.7,12.7,0,0,1,0,17.5,11.9,11.9,0,0,1-8.7,3.6A11.9,11.9,0,0,1,21.4,167.6Zm15.4-2.1a9,9,0,0,0,2.8-6.6,8.7,8.7,0,0,0-2.8-6.6,8.9,8.9,0,0,0-6.7-2.8,9.8,9.8,0,0,0-6.8,2.6,9.4,9.4,0,0,0-2.8,6.8,9.1,9.1,0,0,0,2.8,6.7,9.4,9.4,0,0,0,6.8,2.7A9.3,9.3,0,0,0,36.8,165.5Z"/>
      <path d="M32,140.8h9.8v2.9H18.3v-3.4c0-3.4.6-5.9,1.7-7.3a6.1,6.1,0,0,1,5.1-2.1c2.3,0,4.1.7,5.2,2.3a9.8,9.8,0,0,1,1.7,5.9Zm-11.1,0h8.4v-1a14.8,14.8,0,0,0-.1-2.2,7.6,7.6,0,0,0-.6-2,3.7,3.7,0,0,0-1.3-1.5,5.2,5.2,0,0,0-2.3-.5,3.5,3.5,0,0,0-2.1.6,3,3,0,0,0-1.3,1.6,6.5,6.5,0,0,0-.5,2,12.7,12.7,0,0,0-.2,2.2Z"/>
    </g>
    <g>
      <ellipse cx="32.6" cy="32.5" rx="31.8" ry="31.6" style="fill: none;stroke-miterlimit: 10;stroke-width: 1.58636168080641px;stroke: url(#a)"/>
      <path d="M64.6,90.9l-32.1-68C21,47.7,12.2,66.5.7,91.2" style="fill: none;stroke-miterlimit: 10;stroke-width: 1.58636168080641px;stroke: url(#b)"/>
    </g>
  </g>
</svg>
