<svg xmlns="http://www.w3.org/2000/svg" xmlns:xlink="http://www.w3.org/1999/xlink" width="137.4" height="52.6" viewBox="0 0 137.4 52.6">
  <defs>
    <linearGradient id="a" data-name="白、黑" x1="85.05" y1="26.32" x2="137.4" y2="26.32" gradientUnits="userSpaceOnUse">
      <stop offset="0" stop-color="#fff"/>
      <stop offset="1"/>
    </linearGradient>
    <linearGradient id="b" x1="120.42" y1="26.32" x2="63.56" y2="26.32" xlink:href="#a"/>
  </defs>
  <g>
    <g>
      <path d="M2.9,20.9v2H3a4.1,4.1,0,0,1,1.9-1.8,5,5,0,0,1,2.7-.7q3,0,4.2,1.8A8.3,8.3,0,0,1,13,27v9.1H10V27.4a6.9,6.9,0,0,0-.6-3.3C9,23.4,8.1,23,6.7,23l-1.6.2A2.3,2.3,0,0,0,4,24l-.6,1a2.3,2.3,0,0,0-.3,1.3c-.1.6-.1,1-.2,1.4v8.4H0V20.9Z"/>
      <path d="M30.4,29H18.8a5.1,5.1,0,0,0,1.3,3.5A3.9,3.9,0,0,0,23.3,34a4.5,4.5,0,0,0,2.7-.7A9.3,9.3,0,0,0,27.9,31l2.5,1.4a8,8,0,0,1-7.1,4.2,6.8,6.8,0,0,1-5.4-2.3,8,8,0,0,1-2.1-5.7,9.3,9.3,0,0,1,1.9-5.9,7,7,0,0,1,5.5-2.3,6.3,6.3,0,0,1,5.3,2.3,8.5,8.5,0,0,1,1.9,5.8ZM18.9,26.8h8.5A4.3,4.3,0,0,0,26.1,24a4.1,4.1,0,0,0-2.9-1,4,4,0,0,0-2.8,1A4.8,4.8,0,0,0,18.9,26.8Z"/>
      <path d="M37.2,27.8l-5.5-6.9h3.5l3.6,4.9,3.9-4.9h3.6l-5.6,6.9,6.5,8.3H43.8l-5-6.2-4.9,6.2H30.4Z"/>
      <path d="M52.1,23.6V36.1H49.2V23.6H47.6V20.9h1.6V15.1h2.9v5.8H55v2.7Z"/>
    </g>
    <g>
      <ellipse cx="111.2" cy="26.3" rx="25.5" ry="25.7" style="fill: none;stroke-miterlimit: 10;stroke-width: 1.27910159946316px;stroke: url(#a)"/>
      <path d="M64.1,52.1l54.8-25.9L63.8.6" style="fill: none;stroke-miterlimit: 10;stroke-width: 1.27910159946316px;stroke: url(#b)"/>
    </g>
  </g>
</svg>
