<svg xmlns="http://www.w3.org/2000/svg" xmlns:xlink="http://www.w3.org/1999/xlink" width="138.9" height="52.6" viewBox="0 0 138.9 52.6">
  <defs>
    <linearGradient id="a" data-name="白、黑" x1="87.7" y1="26.32" x2="140.05" y2="26.32" gradientTransform="translate(140.1 52.6) rotate(180)" gradientUnits="userSpaceOnUse">
      <stop offset="0" stop-color="#fff"/>
      <stop offset="1"/>
    </linearGradient>
    <linearGradient id="b" x1="123.08" y1="26.32" x2="66.22" y2="26.32" xlink:href="#a"/>
  </defs>
  <g>
    <g>
      <path d="M83.4,20.4V23h.1a6.1,6.1,0,0,1,5.3-3,6.5,6.5,0,0,1,5.1,2.3,8.2,8.2,0,0,1,2,5.6A9.1,9.1,0,0,1,94,33.8a6.6,6.6,0,0,1-5.4,2.4,6,6,0,0,1-2.9-.8,6.3,6.3,0,0,1-2.2-2.1h-.1v11H80.5V20.4Zm4.7,13.2A4.7,4.7,0,0,0,91.7,32,6,6,0,0,0,93,28a5.9,5.9,0,0,0-1.3-3.9,4.6,4.6,0,0,0-3.6-1.5,4.1,4.1,0,0,0-3.5,1.6A5.7,5.7,0,0,0,83.2,28a6.5,6.5,0,0,0,1.3,3.9A4.5,4.5,0,0,0,88.1,33.6Z"/>
      <path d="M101.9,20.4v2.5h.1a6,6,0,0,1,1.6-2.2,4.6,4.6,0,0,1,2.6-.7,4.4,4.4,0,0,1,2.4.7l-1.4,2.7a2.4,2.4,0,0,0-1.8-.6,3.4,3.4,0,0,0-1.8.4,2.6,2.6,0,0,0-1.1,1.4,4.8,4.8,0,0,0-.5,1.7,10.3,10.3,0,0,0-.1,1.9v7.4H99V20.4Z"/>
      <path d="M123.6,28.5H111.9a6.3,6.3,0,0,0,1.3,3.6,4.3,4.3,0,0,0,3.3,1.5,4,4,0,0,0,2.6-.8,7.2,7.2,0,0,0,2-2.2l2.5,1.4a8.9,8.9,0,0,1-3,3.1,8.1,8.1,0,0,1-4.1,1.1,6.8,6.8,0,0,1-5.4-2.3,8,8,0,0,1-2.1-5.7,9.6,9.6,0,0,1,1.9-6,6.8,6.8,0,0,1,5.5-2.2,6.3,6.3,0,0,1,5.3,2.2,9.3,9.3,0,0,1,1.9,5.9Zm-11.5-2.2h8.5a4.3,4.3,0,0,0-1.3-2.8,4.1,4.1,0,0,0-2.9-1,3.9,3.9,0,0,0-2.8,1.1A4.6,4.6,0,0,0,112.1,26.3Z"/>
      <path d="M126.9,20.4l4.4,9.5,4.3-9.5h3.3l-7.6,15.8-7.7-15.8Z"/>
    </g>
    <g>
      <ellipse cx="26.2" cy="26.3" rx="25.5" ry="25.7" style="fill: none;stroke-miterlimit: 10;stroke-width: 1.27910159946316px;stroke: url(#a)"/>
      <path d="M73.3.6,18.5,26.5,73.6,52.1" style="fill: none;stroke-miterlimit: 10;stroke-width: 1.27910159946316px;stroke: url(#b)"/>
    </g>
  </g>
</svg>
