<svg xmlns="http://www.w3.org/2000/svg" xmlns:xlink="http://www.w3.org/1999/xlink" width="88.9" height="50.2" viewBox="0 0 88.9 50.2">
  <defs>
    <linearGradient id="a" data-name="白、黑 3" x1="-549.8" y1="190.3" x2="-499.61" y2="190.3" gradientTransform="translate(269.6 543.9) rotate(88.3)" gradientUnits="userSpaceOnUse">
      <stop offset="0" stop-color="#fff"/>
      <stop offset="1" stop-color="#050000"/>
    </linearGradient>
    <linearGradient id="b" x1="72.2" y1="25.05" x2="0" y2="25.43" gradientTransform="matrix(1, 0, 0, 1, 0, 0)" xlink:href="#a"/>
    <linearGradient id="c" x1="72.2" y1="25.05" x2="0" y2="25.43" gradientTransform="matrix(1, 0, 0, 1, 0, 0)" xlink:href="#a"/>
  </defs>
  <g>
    <circle cx="63.8" cy="25.1" r="24.7" transform="translate(37.2 88.3) rotate(-88.6)" style="fill: none;stroke-miterlimit: 10;stroke-width: 0.75px;stroke: url(#a)"/>
    <g>
      <line y1="25.4" x2="70.9" y2="25.1" style="fill: none;stroke-miterlimit: 10;stroke-width: 0.75px;stroke: url(#b)"/>
      <path d="M63.8,30.1a.5.5,0,0,1,.1-.7l6.8-4.3-6.8-4.3a.7.7,0,0,1-.2-.7.5.5,0,0,1,.8-.2L72,24.6a.8.8,0,0,1,.2.5l-.2.4-7.5,4.8h-.3A.5.5,0,0,1,63.8,30.1Z" style="fill: url(#c)"/>
    </g>
  </g>
</svg>
