<svg xmlns="http://www.w3.org/2000/svg" xmlns:xlink="http://www.w3.org/1999/xlink" width="121" height="121" viewBox="0 0 121 121">
  <defs>
    <linearGradient id="a" data-name="白、黑" x1="-512.79" y1="1218.73" x2="-391.79" y2="1218.73" gradientTransform="translate(-1158.2 -391.8) rotate(-90)" gradientUnits="userSpaceOnUse">
      <stop offset="0" stop-color="#fff"/>
      <stop offset="1"/>
    </linearGradient>
  </defs>
  <g>
    <circle cx="60.5" cy="60.5" r="59.5" style="fill: none;stroke-miterlimit: 10;stroke-width: 2px;stroke: url(#a)"/>
    <g>
      <path d="M19.7,55.6c0-1.9-.1-3.5-.2-5.1h3l.2,3h.1a6.5,6.5,0,0,1,5.9-3.4,5.5,5.5,0,0,1,5.4,3.8h.1a7.5,7.5,0,0,1,2.1-2.5,6.2,6.2,0,0,1,4.2-1.3c2.5,0,6.2,1.6,6.2,8.2V69.4H43.3V58.7c0-3.6-1.3-5.8-4.1-5.8a4.3,4.3,0,0,0-4,3.1,4.7,4.7,0,0,0-.3,1.7V69.4H31.5V58.1c0-3-1.3-5.2-3.9-5.2a4.7,4.7,0,0,0-4.3,3.4A4.7,4.7,0,0,0,23,58V69.4H19.7Z"/>
      <path d="M69.4,59.8c0,7-4.8,10-9.4,10s-9.1-3.7-9.1-9.7,4.2-10,9.4-10S69.4,54,69.4,59.8Zm-15,.2c0,4.1,2.4,7.3,5.7,7.3s5.8-3.1,5.8-7.4-1.6-7.3-5.7-7.3S54.4,56.4,54.4,60Z"/>
      <path d="M73.8,56.4c0-2.2-.1-4.1-.2-5.9h3v3.7h.2a5.6,5.6,0,0,1,5.2-4.1h1v3.2H81.9c-2.4,0-4.1,1.8-4.6,4.4a8.1,8.1,0,0,0-.1,1.6V69.4H73.8Z"/>
      <path d="M88.1,60.6c0,4.6,3,6.5,6.5,6.5a13.5,13.5,0,0,0,5.2-.9l.6,2.4a14.4,14.4,0,0,1-6.3,1.2c-5.8,0-9.3-3.8-9.3-9.5s3.3-10.2,8.9-10.2,7.8,5.4,7.8,8.9c0,.7-.1,1.2-.1,1.6Zm10-2.5c.1-2.2-.9-5.6-4.7-5.6s-5,3.2-5.3,5.6Z"/>
    </g>
  </g>
</svg>
