<svg xmlns="http://www.w3.org/2000/svg" width="250" height="250.4" viewBox="0 0 250 250.4">
  <g style="opacity: 0.72">
    <path d="M148.2,16.6a79.9,79.9,0,0,1-5.5,6c26.7,17.6,69,33.4,106.8,42-8.3,7.5-19.2,22.3-24.4,31.3-7.7-2.3-16-5.2-24.1-8.3v83.2a99.6,99.6,0,0,0,8.3-6.2l27.2,22.8c-10.6,6.7-22.5,13.5-33.9,19.7a241.7,241.7,0,0,1,27.7,17.6l-26.7,25.1c-14.5-11.9-40.4-27.7-65.8-41.2a166.5,166.5,0,0,0,0,28.3c-70.5,7.2-83.4,9.6-92,13.2-2.6-7.5-10.3-20.7-15.8-26.2a28.4,28.4,0,0,0,13.2-24.1V87.4c-6.4,2.8-13.2,5.4-19.9,7.8C18.6,86.1,9,73.6.5,65.4,43.8,52.9,90.7,30.1,114.8.3Zm45.6,68.2a364,364,0,0,1-37.3-17.9V80.4H88.3V65.1A368.6,368.6,0,0,1,49.7,84.8ZM163,111H80.3v7H163ZM80.3,147.5H163v-6.2H80.3Zm52.6,58.6c-8.8-4.7-17.4-8.9-25.1-12.5l22-19.7H80.3v36.3ZM138.1,56c-6.5-4.1-12.5-8.3-18.2-12.4A196.6,196.6,0,0,1,102.8,56Zm-1.3,117.9c10.6,4.7,22.5,10.4,34.4,16.4,8.6-5.2,17.7-10.9,25.7-16.4Z" style="fill: none;stroke: #000;stroke-miterlimit: 10;stroke-width: 0.5px"/>
  </g>
</svg>
