<svg xmlns="http://www.w3.org/2000/svg" xmlns:xlink="http://www.w3.org/1999/xlink" width="67.7" height="220.9" viewBox="0 0 67.7 220.9">
  <defs>
    <linearGradient id="a" data-name="白、黑" x1="-386.45" y1="2296.56" x2="-318.77" y2="2296.56" gradientTransform="matrix(-0.15, -0.99, 0.99, -0.15, -2289.59, 21.65)" gradientUnits="userSpaceOnUse">
      <stop offset="0" stop-color="#fff"/>
      <stop offset="1"/>
    </linearGradient>
    <linearGradient id="b" x1="59.54" y1="131.24" x2="6.67" y2="43.25" gradientTransform="matrix(1, 0, 0, 1, 0, 0)" xlink:href="#a"/>
    <linearGradient id="c" x1="77.04" y1="120.73" x2="24.17" y2="32.73" gradientTransform="matrix(1, 0, 0, 1, 0, 0)" xlink:href="#a"/>
  </defs>
  <g>
    <g>
      <path d="M21.3,211.8H43.7v3.1H21.3v6H18.4V205.8h2.9Z"/>
      <path d="M21.7,201.1a13.2,13.2,0,0,1,0-18.7,12.8,12.8,0,0,1,9.4-3.9,12.8,12.8,0,0,1,9.4,3.9,12.9,12.9,0,0,1,3.8,9.4,13.1,13.1,0,0,1-3.8,9.4,12.7,12.7,0,0,1-9.4,3.8A12.8,12.8,0,0,1,21.7,201.1Zm16.6-2.2a10,10,0,0,0,0-14.3,9.6,9.6,0,0,0-7.2-2.9,10.1,10.1,0,0,0-7.3,2.8,9.7,9.7,0,0,0-3,7.3,9.5,9.5,0,0,0,3,7.2,10.2,10.2,0,0,0,7.3,2.9A9.7,9.7,0,0,0,38.3,198.9Z"/>
      <path d="M33.1,172.3H43.7v3.1H18.4v-3.6c0-3.7.6-6.4,1.8-7.9a6.7,6.7,0,0,1,5.5-2.3c2.5,0,4.4.8,5.6,2.5a10.3,10.3,0,0,1,1.8,6.4Zm-11.9,0h9.1v-1a16.9,16.9,0,0,0-.2-2.5,8.3,8.3,0,0,0-.6-2.1,3.6,3.6,0,0,0-1.4-1.6,4.9,4.9,0,0,0-2.5-.6,4.1,4.1,0,0,0-2.3.6,4.2,4.2,0,0,0-1.4,1.8,16,16,0,0,0-.5,2.1,16.6,16.6,0,0,0-.2,2.4Z"/>
    </g>
    <circle cx="33.8" cy="33.8" r="32.8" style="fill: none;stroke-miterlimit: 10;stroke-width: 2px;stroke: url(#a)"/>
    <g>
      <line x1="33.8" y1="146.1" x2="33.8" y2="30.9" style="fill: none;stroke-miterlimit: 10;stroke-width: 2px;stroke: url(#b)"/>
      <path d="M47.3,50a1.4,1.4,0,0,1-1.9-.4L33.8,31.5,22.3,49.6a1.4,1.4,0,0,1-1.9.4,1.4,1.4,0,0,1-.4-1.9L32.7,28.2a1.4,1.4,0,0,1,1.1-.7,1.4,1.4,0,0,1,1.2.7L47.7,48.1a1,1,0,0,1,.2.7A1.3,1.3,0,0,1,47.3,50Z" style="fill: url(#c)"/>
    </g>
  </g>
</svg>
