<svg xmlns="http://www.w3.org/2000/svg" width="1080.5" height="225.2" viewBox="0 0 1080.5 225.2">
  <g style="opacity: 0.38">
    <g>
      <path d="M.3,142.6c0-51.7,32.3-82.7,64.9-82.7,17.4,0,27.6,6.4,37.9,16.3l-2-23.4V.3h49.5V221.1H110.5l-3.6-15.2h-1.1c-11,11-26.2,19-41.2,19C25.4,224.9.3,193.7.3,142.6Zm100.8,28.7V109.4A34.7,34.7,0,0,0,76.8,100c-13.5,0-26,12.7-26,41.7s10,42.9,26.8,42.9C87,184.6,94.5,181.5,101.1,171.3Z" style="fill: none;stroke: #000;stroke-miterlimit: 10;stroke-width: 0.5px"/>
      <path d="M190.1,142.6c0-51.2,36.5-82.7,74.6-82.7,45.3,0,67.4,32.9,67.4,76,0,8.6-1.1,17.4-2.2,21H237.6c4.5,21.6,19.4,30.4,39.3,30.4,11.3,0,21.8-3.3,33.1-9.9L326.3,207c-16.3,11.6-37.8,17.9-56.3,17.9C224.9,224.9,190.1,194.5,190.1,142.6Zm100.3-17.7c0-15.8-6.9-27.4-24.9-27.4-13.5,0-25.4,8.6-28.7,27.4Z" style="fill: none;stroke: #000;stroke-miterlimit: 10;stroke-width: 0.5px"/>
      <path d="M358.9,202.8l21.9-30.7c14.4,11.1,27.3,16.6,39.8,16.6s18.5-4.7,18.5-12.4c0-9.4-15.2-13.8-31.2-20.2C389.1,148.7,367,135.9,367,110c0-29.9,24.3-50.1,60.8-50.1,24.8,0,42.5,10,56.3,20.2L462,109.4c-11-7.7-22.1-13.3-32.6-13.3s-16.6,3.9-16.6,11.4c0,9.4,14.4,13,30.7,18.8,19.6,7.4,41.5,18.8,41.5,47.2s-22.7,51.4-65.5,51.4C399,224.9,374.7,216.1,358.9,202.8Z" style="fill: none;stroke: #000;stroke-miterlimit: 10;stroke-width: 0.5px"/>
      <path d="M508.7,202.8l21.9-30.7c14.3,11.1,27.3,16.6,39.8,16.6s18.5-4.7,18.5-12.4c0-9.4-15.2-13.8-31.3-20.2-18.7-7.4-40.9-20.2-40.9-46.1,0-29.9,24.4-50.1,60.8-50.1,24.9,0,42.6,10,56.4,20.2l-22.1,29.3c-11-7.7-22.1-13.3-32.6-13.3s-16.6,3.9-16.6,11.4c0,9.4,14.4,13,30.7,18.8,19.6,7.4,41.4,18.8,41.4,47.2s-22.6,51.4-65.4,51.4C548.8,224.9,524.5,216.1,508.7,202.8Z" style="fill: none;stroke: #000;stroke-miterlimit: 10;stroke-width: 0.5px"/>
      <path d="M663.2,142.6c0-51.2,36.5-82.7,74.6-82.7,45.3,0,67.5,32.9,67.5,76,0,8.6-1.2,17.4-2.3,21H710.7c4.5,21.6,19.4,30.4,39.3,30.4,11.3,0,21.8-3.3,33.1-9.9L799.5,207c-16.4,11.6-37.9,17.9-56.4,17.9C698,224.9,663.2,194.5,663.2,142.6Zm100.3-17.7c0-15.8-6.9-27.4-24.8-27.4-13.6,0-25.5,8.6-28.8,27.4Z" style="fill: none;stroke: #000;stroke-miterlimit: 10;stroke-width: 0.5px"/>
      <path d="M845.6,63.8h40.1L889,91.2h1.1c11.6-21,29-31.3,44.8-31.3,9.4,0,14.6,1.4,19,3.4l-8.3,42.2c-5.5-1.3-10.2-2.4-17.1-2.4-11.6,0-25.7,7.4-34,28.1v89.9H845.6Z" style="fill: none;stroke: #000;stroke-miterlimit: 10;stroke-width: 0.5px"/>
      <path d="M989,162.7V102.2H967.7V65.7l24.1-1.9,5.5-41.4h40.9V63.8h37v38.4h-37v60c0,17.4,8.3,24.3,19.9,24.3,5,0,10.5-1.6,14.4-2.8l7.7,35.4c-8.3,2.5-19.6,5.8-35.6,5.8C1005,224.9,989,200.1,989,162.7Z" style="fill: none;stroke: #000;stroke-miterlimit: 10;stroke-width: 0.5px"/>
    </g>
  </g>
</svg>
