<svg xmlns="http://www.w3.org/2000/svg" width="185" height="20.9" viewBox="0 0 185 20.9">
  <g style="opacity: 0.68">
    <path d="M0,18l2.4-3.2A8.5,8.5,0,0,0,7.7,17c2,0,2.9-.9,2.9-2.1s-2.1-2.2-4.2-3S1,9.4,1,6.1,3.9,0,8.4,0a11,11,0,0,1,6.7,2.4L12.8,5.6A7.5,7.5,0,0,0,8.5,3.9c-1.8,0-2.6.8-2.6,1.9s1.9,2,4,2.8,5.6,2.3,5.6,6-2.8,6.3-7.9,6.3A12.3,12.3,0,0,1,0,18Z"/>
    <path d="M22.3,10.5C22.3,4,26.8,0,31.5,0s8.3,4,8.3,9.5a13.4,13.4,0,0,1-.2,2.4H27.3c.5,3.2,2.6,4.9,5.5,4.9a8.7,8.7,0,0,0,4.5-1.3l1.8,3.2a13.2,13.2,0,0,1-7,2.2C26.6,20.9,22.3,17,22.3,10.5ZM35.4,8.4c0-2.7-1.2-4.4-3.8-4.4s-3.9,1.5-4.3,4.4Z"/>
    <path d="M47,10.5C47,4,51.5,0,56.2,0s8.3,4,8.3,9.5a13.4,13.4,0,0,1-.2,2.4H52c.5,3.2,2.6,4.9,5.5,4.9A8.7,8.7,0,0,0,62,15.5l1.8,3.2a13.2,13.2,0,0,1-7,2.2C51.3,20.9,47,17,47,10.5ZM60,8.4C60,5.7,58.8,4,56.3,4S52.4,5.5,52,8.4Z"/>
    <path d="M85,.5h4.3l.3,2.7h.2C91.4,1.4,93.3,0,95.9,0a5.3,5.3,0,0,1,5.4,3.5c1.8-1.9,3.8-3.5,6.3-3.5,4.3,0,6.2,3,6.2,8V20.4h-5.2V8.6c0-3-.9-4.1-2.8-4.1s-2.4.7-3.8,2.2V20.4H96.8V8.6c0-3-.9-4.1-2.8-4.1s-2.4.7-3.8,2.2V20.4H85Z"/>
    <path d="M122,10.5C122,3.8,126.6,0,131.6,0s9.5,3.8,9.5,10.5-4.5,10.4-9.5,10.4S122,17,122,10.5Zm13.8,0c0-3.8-1.5-6.2-4.2-6.2s-4.2,2.4-4.2,6.2,1.5,6.1,4.2,6.1S135.8,14.2,135.8,10.5Z"/>
    <path d="M149.6.5h4.2l.4,3.5h.1c1.5-2.6,3.6-4,5.7-4a6.3,6.3,0,0,1,2.3.4l-.9,4.5a7.1,7.1,0,0,0-2.1-.3c-1.5,0-3.4,1-4.6,3.9V20.4h-5.1Z"/>
    <path d="M167.4,10.5C167.4,4,172,0,176.7,0S185,4,185,9.5a13.4,13.4,0,0,1-.2,2.4H172.5a5.2,5.2,0,0,0,5.5,4.9,9,9,0,0,0,4.5-1.3l1.8,3.2a13.2,13.2,0,0,1-7,2.2C171.8,20.9,167.4,17,167.4,10.5Zm13.1-2.1c0-2.7-1.2-4.4-3.7-4.4s-4,1.5-4.4,4.4Z"/>
  </g>
</svg>
