<svg xmlns="http://www.w3.org/2000/svg" width="417.6" height="315.5" viewBox="0 0 417.6 315.5">
  <g>
    <polygon points="417.2 40.8 417.2 234.2 204.2 314.9 0.4 274.8 0.4 81.3 214.2 0.4 417.2 40.8" style="fill: #fff;opacity: 0.5"/>
    <g>
      <polyline points="1.8 81.2 214.2 0.4 416 40.8 203.6 121.5" style="fill: none;stroke: #231815;stroke-miterlimit: 10;stroke-width: 0.785628168492446px"/>
      <polygon points="416 234.3 203.6 315.1 1.8 274.7 214.2 194 416 234.3" style="fill: none;stroke: #231815;stroke-miterlimit: 10;stroke-width: 0.785628168492446px"/>
      <line x1="417.2" y1="40.8" x2="417.2" y2="234.2" style="fill: none;stroke: #231815;stroke-miterlimit: 10;stroke-width: 0.785628168492446px"/>
      <line x1="203.7" y1="121.5" x2="203.7" y2="315" style="fill: none;stroke: #231815;stroke-miterlimit: 10;stroke-width: 0.785628168492446px"/>
      <line x1="0.4" y1="81.3" x2="0.4" y2="274.8" style="fill: none;stroke: #231815;stroke-miterlimit: 10;stroke-width: 0.785628168492446px"/>
      <polygon points="393.9 69.9 204.1 142.1 23.9 106 213.6 33.9 393.9 69.9" style="fill: none;stroke: #231815;stroke-miterlimit: 10;stroke-width: 0.785628168492446px"/>
      <polygon points="393.9 242.9 204.1 315 23.9 278.9 213.6 206.8 393.9 242.9" style="fill: none;stroke: #231815;stroke-miterlimit: 10;stroke-width: 0.785628168492446px"/>
      <line x1="395" y1="69.9" x2="395" y2="242.8" style="fill: none;stroke: #231815;stroke-miterlimit: 10;stroke-width: 0.785628168492446px"/>
      <line x1="204.2" y1="142.1" x2="204.2" y2="314.9" style="fill: none;stroke: #231815;stroke-miterlimit: 10;stroke-width: 0.785628168492446px"/>
      <line x1="22.6" y1="106.1" x2="22.6" y2="279" style="fill: none;stroke: #231815;stroke-miterlimit: 10;stroke-width: 0.785628168492446px"/>
      <line x1="214.4" y1="1" x2="214.4" y2="194" style="fill: none;stroke: #231815;stroke-miterlimit: 10;stroke-width: 0.785628168492446px"/>
      <line x1="232.5" y1="78" x2="232.5" y2="95.8" style="fill: none;stroke: #231815;stroke-miterlimit: 10;stroke-width: 0.785628168492446px"/>
      <polygon points="351.8 32.6 232.4 78 119.1 55.3 238.4 9.9 351.8 32.6" style="fill: none;stroke: #231815;stroke-miterlimit: 10;stroke-width: 0.785628168492446px"/>
      <polygon points="351.8 50.5 232.4 95.9 119.1 73.2 238.4 27.8 351.8 50.5" style="fill: none;stroke: #231815;stroke-miterlimit: 10;stroke-width: 0.785628168492446px"/>
      <line x1="352.5" y1="32.6" x2="352.5" y2="50.4" style="fill: none;stroke: #231815;stroke-miterlimit: 10;stroke-width: 0.785628168492446px"/>
      <line x1="238.5" y1="9.9" x2="238.5" y2="27.7" style="fill: none;stroke: #231815;stroke-miterlimit: 10;stroke-width: 0.785628168492446px"/>
      <line x1="118.2" y1="55.4" x2="118.2" y2="73.2" style="fill: none;stroke: #231815;stroke-miterlimit: 10;stroke-width: 0.785628168492446px"/>
      <line x1="204.1" y1="257.9" x2="204.1" y2="275.7" style="fill: none;stroke: #231815;stroke-miterlimit: 10;stroke-width: 0.785628168492446px"/>
      <polygon points="323.4 212.5 204 257.9 90.6 235.2 210 189.8 323.4 212.5" style="fill: none;stroke: #231815;stroke-miterlimit: 10;stroke-width: 0.785628168492446px"/>
      <polygon points="323.4 269.5 204 314.9 90.6 292.2 210 246.8 323.4 269.5" style="fill: none;stroke: #231815;stroke-miterlimit: 10;stroke-width: 0.785628168492446px"/>
      <line x1="324.1" y1="212.5" x2="324.1" y2="269.5" style="fill: none;stroke: #231815;stroke-miterlimit: 10;stroke-width: 0.785628168492446px"/>
      <line x1="210.1" y1="189.8" x2="210.1" y2="246.8" style="fill: none;stroke: #231815;stroke-miterlimit: 10;stroke-width: 0.785628168492446px"/>
      <line x1="89.8" y1="235.3" x2="89.8" y2="292.3" style="fill: none;stroke: #231815;stroke-miterlimit: 10;stroke-width: 0.785628168492446px"/>
      <polygon points="393.8 126.2 274.5 171.5 161.1 148.9 280.4 103.5 393.8 126.2" style="fill: none;stroke: #231815;stroke-miterlimit: 10;stroke-width: 0.785628168492446px"/>
      <polygon points="393.8 242.8 274.5 288.1 161.1 265.5 280.4 220.1 393.8 242.8" style="fill: none;stroke: #231815;stroke-miterlimit: 10;stroke-width: 0.785628168492446px"/>
      <line x1="394.5" y1="126.2" x2="394.5" y2="242.8" style="fill: none;stroke: #231815;stroke-miterlimit: 10;stroke-width: 0.785628168492446px"/>
      <line x1="280.5" y1="103.5" x2="280.5" y2="220.1" style="fill: none;stroke: #231815;stroke-miterlimit: 10;stroke-width: 0.785628168492446px"/>
      <line x1="160.3" y1="149" x2="160.3" y2="265.5" style="fill: none;stroke: #231815;stroke-miterlimit: 10;stroke-width: 0.785628168492446px"/>
    </g>
  </g>
</svg>
