<svg xmlns="http://www.w3.org/2000/svg" width="496.2" height="363.9" viewBox="0 0 496.2 363.9">
  <g>
    <polygon points="283.3 0.6 418.8 27.5 418.8 128.9 468.8 138.7 468.8 261.5 495 267.5 241.8 363.3 1.9 315.3 106.5 275.5 106.5 268.5 140.3 255.9 140.3 55.3 283.3 0.6" style="fill: #fff;opacity: 0.5"/>
    <g>
      <polygon points="494.3 267.3 241.8 363.3 1.9 315.3 254.4 219.3 494.3 267.3" style="fill: none;stroke: #231815;stroke-miterlimit: 10;stroke-width: 1.06908734536284px"/>
      <polygon points="468 277.4 242.4 363.2 28.2 320.3 253.7 234.6 468 277.4" style="fill: none;stroke: #231815;stroke-miterlimit: 10;stroke-width: 1.06908734536284px"/>
      <line x1="276.1" y1="81.5" x2="276.1" y2="305.1" style="fill: none;stroke: #231815;stroke-miterlimit: 10;stroke-width: 1.06908734536284px"/>
      <polygon points="417.9 27.5 276.1 81.5 141.3 54.5 283.2 0.6 417.9 27.5" style="fill: none;stroke: #231815;stroke-miterlimit: 10;stroke-width: 1.06908734536284px"/>
      <polygon points="417.9 251.1 276.1 305.1 141.3 278.1 283.2 224.2 417.9 251.1" style="fill: none;stroke: #231815;stroke-miterlimit: 10;stroke-width: 1.06908734536284px"/>
      <line x1="418.8" y1="27.5" x2="418.8" y2="251.1" style="fill: none;stroke: #231815;stroke-miterlimit: 10;stroke-width: 1.06908734536284px"/>
      <line x1="283.3" y1="0.6" x2="283.3" y2="224.2" style="fill: none;stroke: #231815;stroke-miterlimit: 10;stroke-width: 1.06908734536284px"/>
      <line x1="140.3" y1="54.6" x2="140.3" y2="278.2" style="fill: none;stroke: #231815;stroke-miterlimit: 10;stroke-width: 1.06908734536284px"/>
      <line x1="242.3" y1="295.4" x2="242.3" y2="316.5" style="fill: none;stroke: #231815;stroke-miterlimit: 10;stroke-width: 1.06908734536284px"/>
      <polygon points="384.2 241.4 242.3 295.3 107.5 268.4 249.4 214.4 384.2 241.4" style="fill: none;stroke: #231815;stroke-miterlimit: 10;stroke-width: 1.06908734536284px"/>
      <polygon points="384.2 309.2 242.3 363.1 107.5 336.1 249.4 282.2 384.2 309.2" style="fill: none;stroke: #231815;stroke-miterlimit: 10;stroke-width: 1.06908734536284px"/>
      <line x1="385" y1="241.4" x2="385" y2="309.2" style="fill: none;stroke: #231815;stroke-miterlimit: 10;stroke-width: 1.06908734536284px"/>
      <line x1="249.5" y1="214.4" x2="249.5" y2="282.2" style="fill: none;stroke: #231815;stroke-miterlimit: 10;stroke-width: 1.06908734536284px"/>
      <line x1="106.5" y1="268.5" x2="106.5" y2="336.2" style="fill: none;stroke: #231815;stroke-miterlimit: 10;stroke-width: 1.06908734536284px"/>
      <polygon points="467.9 138.7 326 192.7 191.2 165.7 333.1 111.8 467.9 138.7" style="fill: none;stroke: #231815;stroke-miterlimit: 10;stroke-width: 1.06908734536284px"/>
      <polygon points="467.9 277.3 326 331.3 191.2 304.3 333.1 250.4 467.9 277.3" style="fill: none;stroke: #231815;stroke-miterlimit: 10;stroke-width: 1.06908734536284px"/>
      <line x1="468.8" y1="138.7" x2="468.8" y2="277.3" style="fill: none;stroke: #231815;stroke-miterlimit: 10;stroke-width: 1.06908734536284px"/>
      <line x1="333.3" y1="111.8" x2="333.3" y2="250.4" style="fill: none;stroke: #231815;stroke-miterlimit: 10;stroke-width: 1.06908734536284px"/>
      <line x1="190.3" y1="165.8" x2="190.3" y2="304.4" style="fill: none;stroke: #231815;stroke-miterlimit: 10;stroke-width: 1.06908734536284px"/>
    </g>
  </g>
</svg>
