<svg xmlns="http://www.w3.org/2000/svg" xmlns:xlink="http://www.w3.org/1999/xlink" width="496.8" height="439.2" viewBox="0 0 496.8 439.2">
  <defs>
    <clipPath id="a" transform="translate(0 13.5)">
      <rect x="20.8" y="124.1" width="32.6" height="177.61" style="fill: none"/>
    </clipPath>
    <clipPath id="b" transform="translate(0 13.5)">
      <rect x="256.2" y="114.5" width="129.6" height="176.69" style="fill: none"/>
    </clipPath>
  </defs>
  <g>
    <polygon points="496.8 41 496.8 380.2 458.7 380.2 458.7 407.7 0 407.7 0 13.5 458.7 13.5 458.7 41 496.8 41" style="fill: #fff;opacity: 0.5"/>
    <g>
      <rect x="5.1" y="56.3" width="451.9" height="316.52" style="fill: none;stroke: #231815;stroke-miterlimit: 10;stroke-width: 1.13686582930499px"/>
      <g>
        <path d="M477.8,217.4a1.3,1.3,0,0,0,.9-2.2,1,1,0,0,0-.9-.4.9.9,0,0,0-.8.4,1,1,0,0,0-.4.9,1.2,1.2,0,0,0,.3.9,1.8,1.8,0,0,0,.9.4Zm3.6.3.8-.2a.9.9,0,0,0,.6-.6,2.4,2.4,0,0,0,.2-.8,1.4,1.4,0,0,0-1.6-1.6,1.5,1.5,0,0,0-1.1.4,1.8,1.8,0,0,0-.5,1.2,1.4,1.4,0,0,0,.5,1.1,1.6,1.6,0,0,0,1.1.5Zm-2-.5a1.5,1.5,0,0,1-.6.9,1.7,1.7,0,0,1-1,.3,2.2,2.2,0,0,1-2-2.3,2.5,2.5,0,0,1,.6-1.7,2,2,0,0,1,1.5-.6l.9.3a1.5,1.5,0,0,1,.6.9,1.9,1.9,0,0,1,.8-1.1,1.7,1.7,0,0,1,1.2-.4,2.1,2.1,0,0,1,1.7.7,2.9,2.9,0,0,1,0,3.8,2.4,2.4,0,0,1-1.7.7,2.8,2.8,0,0,1-1.3-.4,3,3,0,0,1-.7-1.1Z" transform="translate(0 13.5)" style="fill: #231815"/>
        <path d="M483.7,205.9v1h-6.2a2.2,2.2,0,0,1,.7.9,9.3,9.3,0,0,1,.5,1h-.9l-.9-1.4-1.1-.9v-.6Z" transform="translate(0 13.5)" style="fill: #231815"/>
        <path d="M482.8,198.4h.9v5.2H483l-1-.6a5.1,5.1,0,0,1-1.2-1.3,8.8,8.8,0,0,0-1.7-1.7,2.1,2.1,0,0,0-1.1-.5,1.8,1.8,0,0,0-1,.4,1.5,1.5,0,0,0-.4,1.1,1.4,1.4,0,0,0,.4,1.1,1.6,1.6,0,0,0,1.2.4v1a2.2,2.2,0,0,1-1.7-.7,2.8,2.8,0,0,1-.6-1.8,2.4,2.4,0,0,1,.6-1.8,2.4,2.4,0,0,1,1.6-.7l.9.2,1,.7a11.6,11.6,0,0,1,1.3,1.5l1,1.1.6.4v-3.9Z" transform="translate(0 13.5)" style="fill: #231815"/>
        <path d="M479.8,196.4a5.1,5.1,0,0,0,2.6-.4,1.4,1.4,0,0,0,.6-1.1,1.4,1.4,0,0,0-.6-1.2,8.6,8.6,0,0,0-5.2,0,1.4,1.4,0,0,0-.6,1.2,1.1,1.1,0,0,0,.6,1c.4.4,1.3.5,2.6.5Zm0,1a6.5,6.5,0,0,1-2.2-.3,2.4,2.4,0,0,1-1.3-.8,2.4,2.4,0,0,1-.2-2.6,1.6,1.6,0,0,1,.7-.7,3.3,3.3,0,0,1,1.2-.5l1.8-.2a6.5,6.5,0,0,1,2.2.3,3.2,3.2,0,0,1,1.3.8,2,2,0,0,1,.5,1.5,2.1,2.1,0,0,1-.8,1.7,4.7,4.7,0,0,1-3.2.8Z" transform="translate(0 13.5)" style="fill: #231815"/>
      </g>
      <g>
        <path d="M95.9,13h-1a2.8,2.8,0,0,0-.5-1.1,1.8,1.8,0,0,0-1-.4,1.4,1.4,0,0,0-1.2.6,2,2,0,0,0-.5,1.4,2.1,2.1,0,0,0,.5,1.3,1.6,1.6,0,0,0,1.2.4,1.1,1.1,0,0,0,.8-.2,1,1,0,0,0,.6-.5h.9l-.7,4H91.1v-.9h3.1l.4-2.1a3,3,0,0,1-1.5.5,2.6,2.6,0,0,1-1.7-.7,2.5,2.5,0,0,1-.7-1.9,2.8,2.8,0,0,1,.6-1.8,2.7,2.7,0,0,1,2.1-1,2.4,2.4,0,0,1,1.7.6,2.5,2.5,0,0,1,.8,1.6Z" transform="translate(0 13.5)" style="fill: #231815"/>
        <path d="M85.5,16.9a1,1,0,0,0-.4-.9,1.2,1.2,0,0,0-1.8,0,.9.9,0,0,0-.4.8,1,1,0,0,0,.4.9,1.2,1.2,0,0,0,1.8,0,.9.9,0,0,0,.4-.8Zm.3-3.7a3.1,3.1,0,0,0-.2-.8,1,1,0,0,0-.6-.5,1.3,1.3,0,0,0-.8-.3,1.7,1.7,0,0,0-1.2.5,1.5,1.5,0,0,0-.4,1.1,1.3,1.3,0,0,0,.5,1.2,1.7,1.7,0,0,0,2.2,0,1.7,1.7,0,0,0,.5-1.2Zm-.5,2a2.2,2.2,0,0,1,.9.7,1.4,1.4,0,0,1,.3.9,1.8,1.8,0,0,1-.7,1.5,2.4,2.4,0,0,1-3.2,0,1.8,1.8,0,0,1-.7-1.5,1.2,1.2,0,0,1,.3-.9,2.2,2.2,0,0,1,.9-.7,1.8,1.8,0,0,1-1.1-.7,2,2,0,0,1-.4-1.3,2.3,2.3,0,0,1,.7-1.7,2.9,2.9,0,0,1,3.8,0,2.8,2.8,0,0,1,.7,1.7,2.2,2.2,0,0,1-.4,1.3,1.6,1.6,0,0,1-1.1.7Z" transform="translate(0 13.5)" style="fill: #231815"/>
        <path d="M75.6,11.9V11h5.2a1.3,1.3,0,0,1-.1.6,2.4,2.4,0,0,1-.6,1.1l-1.3,1.2a14.2,14.2,0,0,0-1.7,1.6,2.4,2.4,0,0,0-.5,1.2,1.8,1.8,0,0,0,.4,1,2.1,2.1,0,0,0,1.1.4,1.4,1.4,0,0,0,1.1-.5,1.2,1.2,0,0,0,.4-1.1h1a2.4,2.4,0,0,1-.7,1.7,2.8,2.8,0,0,1-1.8.6,2.5,2.5,0,0,1-1.8-.7,2.1,2.1,0,0,1-.7-1.5,2.9,2.9,0,0,1,.2-.9,3.6,3.6,0,0,1,.7-1L78,13.4l1.1-1,.4-.5Z" transform="translate(0 13.5)" style="fill: #231815"/>
        <path d="M73.6,14.8a4.9,4.9,0,0,0-.4-2.5,1.3,1.3,0,0,0-2.3,0,4.9,4.9,0,0,0-.4,2.5,5.1,5.1,0,0,0,.4,2.6,1.5,1.5,0,0,0,1.2.7,1.1,1.1,0,0,0,1-.6,4.6,4.6,0,0,0,.5-2.7Zm1,0a7.1,7.1,0,0,1-.3,2.3,2.4,2.4,0,0,1-.8,1.3,2.4,2.4,0,0,1-1.4.5,1.8,1.8,0,0,1-1.1-.3,1.9,1.9,0,0,1-.8-.7,4.3,4.3,0,0,1-.5-1.2,9.2,9.2,0,0,1-.2-1.9,6.9,6.9,0,0,1,.3-2.2,4.1,4.1,0,0,1,.8-1.3,2.5,2.5,0,0,1,1.5-.5,2,2,0,0,1,1.7.9,4.4,4.4,0,0,1,.8,3.1Z" transform="translate(0 13.5)" style="fill: #231815"/>
      </g>
      <g>
        <path d="M166.9,16.6a1.7,1.7,0,0,0,.4,1.3,1.3,1.3,0,0,0,1.1.5,1.6,1.6,0,0,0,1.1-.5,2.2,2.2,0,0,0,.5-1.4,1.7,1.7,0,0,0-.5-1.2,1.4,1.4,0,0,0-1.1-.4,1.5,1.5,0,0,0-1.1.4,1.8,1.8,0,0,0-.4,1.3Zm3.9-3.4h-.9a1.9,1.9,0,0,0-.4-.9,1.6,1.6,0,0,0-.9-.3l-.8.2a1.2,1.2,0,0,0-.5.5,3,3,0,0,0-.4,1,3.7,3.7,0,0,0-.1,1.1V15a1.9,1.9,0,0,1,.8-.7,2,2,0,0,1,1.1-.3,2.1,2.1,0,0,1,1.6.7,2.9,2.9,0,0,1,0,3.8,2.4,2.4,0,0,1-1.8.7,2.3,2.3,0,0,1-1.4-.4,4,4,0,0,1-1-1.2,6.1,6.1,0,0,1-.3-2.2,7.8,7.8,0,0,1,.3-2.4,3.4,3.4,0,0,1,1-1.3,2.5,2.5,0,0,1,3,0,2,2,0,0,1,.7,1.5Z" transform="translate(0 13.5)" style="fill: #231815"/>
        <path d="M163.9,15.2a5.4,5.4,0,0,0-.4-2.6,1.4,1.4,0,0,0-1.2-.6,1.4,1.4,0,0,0-1.1.6,5.4,5.4,0,0,0-.4,2.6,5.1,5.1,0,0,0,.4,2.6,1.4,1.4,0,0,0,1.2.6,1.4,1.4,0,0,0,1-.5,5.6,5.6,0,0,0,.5-2.7Zm1,0a6.5,6.5,0,0,1-.3,2.2,3.7,3.7,0,0,1-.8,1.4,2.4,2.4,0,0,1-1.5.4l-1.1-.2-.8-.8a3.6,3.6,0,0,1-.4-1.1,5.3,5.3,0,0,1-.2-1.9,6.5,6.5,0,0,1,.3-2.2,2.4,2.4,0,0,1,.8-1.3,2.4,2.4,0,0,1,1.4-.5,2.2,2.2,0,0,1,1.8.8,5.4,5.4,0,0,1,.8,3.2Z" transform="translate(0 13.5)" style="fill: #231815"/>
        <path d="M157.8,15.2a5.4,5.4,0,0,0-.4-2.6,1.4,1.4,0,0,0-1.1-.6,1.3,1.3,0,0,0-1.1.6,5.1,5.1,0,0,0-.5,2.6,4.9,4.9,0,0,0,.5,2.6,1.3,1.3,0,0,0,1.1.6,1.2,1.2,0,0,0,1-.5,4.6,4.6,0,0,0,.5-2.7Zm1,0a6.5,6.5,0,0,1-.3,2.2,2.2,2.2,0,0,1-.8,1.4,2.3,2.3,0,0,1-1.4.4l-1.1-.2a2,2,0,0,1-.8-.8,3.7,3.7,0,0,1-.5-1.1,9.2,9.2,0,0,1-.2-1.9A6.5,6.5,0,0,1,154,13a3.2,3.2,0,0,1,.8-1.3,2.5,2.5,0,0,1,1.5-.5,2.5,2.5,0,0,1,1.8.8,5.4,5.4,0,0,1,.7,3.2Z" transform="translate(0 13.5)" style="fill: #231815"/>
      </g>
      <g>
        <g>
          <path d="M69.5,384.5h1a2.3,2.3,0,0,0,.5,1.1,1.3,1.3,0,0,0,1,.4,1.7,1.7,0,0,0,1.2-.5,2.2,2.2,0,0,0,.5-1.4,1.7,1.7,0,0,0-.5-1.3,1.7,1.7,0,0,0-1.2-.5l-.8.2-.6.6h-.9l.7-4.1h3.9v.9H71.2l-.4,2.2a2.1,2.1,0,0,1,1.5-.5,2.3,2.3,0,0,1,1.7.7,2.4,2.4,0,0,1,.7,1.8,2.8,2.8,0,0,1-.6,1.8,2.4,2.4,0,0,1-2.1,1,2.4,2.4,0,0,1-1.7-.6,2.3,2.3,0,0,1-.8-1.6Z" transform="translate(0 13.5)" style="fill: #231815"/>
          <path d="M79.9,380.7a1,1,0,0,0,.4.9,1.5,1.5,0,0,0,1.8,0,1,1,0,0,0,.4-.9,1.3,1.3,0,0,0-2.6,0Zm-.3,3.6a2.4,2.4,0,0,0,.2.8.9.9,0,0,0,.6.6l.8.2a1.4,1.4,0,0,0,1.6-1.6,1.3,1.3,0,0,0-.5-1.1,1.6,1.6,0,0,0-1.1-.5,1.4,1.4,0,0,0-1.1.5,1.6,1.6,0,0,0-.5,1.1Zm.5-2a1.5,1.5,0,0,1-.9-.6,1.7,1.7,0,0,1-.3-1,1.6,1.6,0,0,1,.7-1.4,2.4,2.4,0,0,1,3.2,0,1.7,1.7,0,0,1,.7,1.4,1.7,1.7,0,0,1-.3,1,1.5,1.5,0,0,1-.9.6,1.9,1.9,0,0,1,1.1.8,1.6,1.6,0,0,1,.4,1.2,2.1,2.1,0,0,1-.7,1.7,2.9,2.9,0,0,1-3.8,0,2.4,2.4,0,0,1-.7-1.7A2,2,0,0,1,79,383a2.1,2.1,0,0,1,1.1-.7Z" transform="translate(0 13.5)" style="fill: #231815"/>
          <path d="M89.8,385.6v1H84.6a1.5,1.5,0,0,1,.1-.7,2.1,2.1,0,0,1,.6-1,5.1,5.1,0,0,1,1.3-1.2,13.2,13.2,0,0,0,1.7-1.7,2.1,2.1,0,0,0,.5-1.2,1.4,1.4,0,0,0-1.5-1.3,1.4,1.4,0,0,0-1.1.4,1.6,1.6,0,0,0-.4,1.2h-1a2.2,2.2,0,0,1,.7-1.7,2.8,2.8,0,0,1,1.8-.6,2.4,2.4,0,0,1,1.8.6,2.4,2.4,0,0,1,.7,1.6,2.9,2.9,0,0,1-.2.9l-.7,1-1.5,1.3-1.1,1-.4.5Z" transform="translate(0 13.5)" style="fill: #231815"/>
          <path d="M91.8,382.7a5.4,5.4,0,0,0,.4,2.6,1.4,1.4,0,0,0,1.1.6,1.3,1.3,0,0,0,1.1-.6,4.2,4.2,0,0,0,.5-2.6c0-1.3-.1-2.2-.5-2.6a1.3,1.3,0,0,0-1.1-.6,1.2,1.2,0,0,0-1,.5,4.6,4.6,0,0,0-.5,2.7Zm-1,0a6.5,6.5,0,0,1,.3-2.2,3.2,3.2,0,0,1,.8-1.4,2.3,2.3,0,0,1,1.4-.4l1.1.2a2,2,0,0,1,.8.8,3.7,3.7,0,0,1,.5,1.1,9.2,9.2,0,0,1,.2,1.9,6.5,6.5,0,0,1-.3,2.2,3.2,3.2,0,0,1-.8,1.3,2.5,2.5,0,0,1-1.5.5,2.1,2.1,0,0,1-1.7-.8,4.7,4.7,0,0,1-.8-3.2Z" transform="translate(0 13.5)" style="fill: #231815"/>
        </g>
        <g>
          <path d="M157.8,381.3a1.7,1.7,0,0,0-.4-1.3,1.3,1.3,0,0,0-1.1-.5,1.6,1.6,0,0,0-1.1.5,2.2,2.2,0,0,0-.5,1.4,1.7,1.7,0,0,0,.5,1.2,1.4,1.4,0,0,0,1.1.5,1.6,1.6,0,0,0,1.1-.5,1.8,1.8,0,0,0,.4-1.3Zm-3.9,3.5h.9a1.9,1.9,0,0,0,.4.9,1.4,1.4,0,0,0,.9.3l.8-.2a1.2,1.2,0,0,0,.5-.5,3,3,0,0,0,.4-1,3.7,3.7,0,0,0,.1-1.1v-.2a1.9,1.9,0,0,1-.8.7,2,2,0,0,1-1.1.3,2,2,0,0,1-1.6-.7,2.5,2.5,0,0,1-.7-1.9,2.9,2.9,0,0,1,.7-1.9,2.4,2.4,0,0,1,1.8-.7,2.3,2.3,0,0,1,1.4.4,2.7,2.7,0,0,1,.9,1.2,4.3,4.3,0,0,1,.4,2.2,5.5,5.5,0,0,1-.4,2.4,2.5,2.5,0,0,1-.9,1.3,3,3,0,0,1-1.5.5,2.1,2.1,0,0,1-1.5-.5,1.9,1.9,0,0,1-.7-1.4Z" transform="translate(0 13.5)" style="fill: #231815"/>
          <path d="M160.8,382.7a5.4,5.4,0,0,0,.4,2.6,1.4,1.4,0,0,0,1.1.6,1.4,1.4,0,0,0,1.2-.6,5.4,5.4,0,0,0,.4-2.6,5.1,5.1,0,0,0-.4-2.6,1.4,1.4,0,0,0-1.2-.6,1.2,1.2,0,0,0-1,.5,4.6,4.6,0,0,0-.5,2.7Zm-1,0a6.5,6.5,0,0,1,.3-2.2,3.2,3.2,0,0,1,.8-1.4,2.3,2.3,0,0,1,1.4-.4l1.2.2a2.7,2.7,0,0,1,.7.8,3.7,3.7,0,0,1,.5,1.1,9.2,9.2,0,0,1,.2,1.9,6.5,6.5,0,0,1-.3,2.2,3.2,3.2,0,0,1-.8,1.3,2.5,2.5,0,0,1-1.5.5,2.1,2.1,0,0,1-1.7-.8,4.7,4.7,0,0,1-.8-3.2Z" transform="translate(0 13.5)" style="fill: #231815"/>
          <path d="M166.8,382.7a5.1,5.1,0,0,0,.5,2.6,1.4,1.4,0,0,0,1.1.6,1.3,1.3,0,0,0,1.1-.6,5.1,5.1,0,0,0,.5-2.6,4.9,4.9,0,0,0-.5-2.6,1.3,1.3,0,0,0-1.1-.6,1.6,1.6,0,0,0-1.1.5,5.6,5.6,0,0,0-.5,2.7Zm-.9,0a11.8,11.8,0,0,1,.2-2.2,3.4,3.4,0,0,1,.9-1.4,2.1,2.1,0,0,1,1.4-.4l1.1.2a3,3,0,0,1,.8.8,3.7,3.7,0,0,1,.5,1.1,9.2,9.2,0,0,1,.2,1.9,6.5,6.5,0,0,1-.3,2.2,2.5,2.5,0,0,1-.9,1.3,2,2,0,0,1-1.4.5,2.5,2.5,0,0,1-1.8-.8,5.4,5.4,0,0,1-.7-3.2Z" transform="translate(0 13.5)" style="fill: #231815"/>
        </g>
        <g>
          <path d="M309.1,380.7a1,1,0,0,0,.4.9,1.5,1.5,0,0,0,1.8,0,1.3,1.3,0,0,0,.4-.9,1.8,1.8,0,0,0-.4-.9,1.6,1.6,0,0,0-.9-.3,1.2,1.2,0,0,0-1.3,1.2Zm-.3,3.6a2.4,2.4,0,0,0,.2.8.9.9,0,0,0,.6.6l.8.2a1.4,1.4,0,0,0,1.1-.4,1.7,1.7,0,0,0,.5-1.2,1.7,1.7,0,0,0-1.6-1.6,1.7,1.7,0,0,0-1.2.5,1.5,1.5,0,0,0-.4,1.1Zm.5-2a1.5,1.5,0,0,1-.9-.6,1.7,1.7,0,0,1-.3-1,1.8,1.8,0,0,1,.6-1.4,2.4,2.4,0,0,1,1.7-.6,2.1,2.1,0,0,1,1.6.6,2,2,0,0,1,.6,1.4,1.6,1.6,0,0,1-.2,1,1.5,1.5,0,0,1-.9.6,2.3,2.3,0,0,1,1.1.8,2.1,2.1,0,0,1,.4,1.2,2.4,2.4,0,0,1-.7,1.7,2.9,2.9,0,0,1-3.8,0,2.1,2.1,0,0,1-.7-1.7,2,2,0,0,1,.4-1.3,1.8,1.8,0,0,1,1.1-.7Z" transform="translate(0 13.5)" style="fill: #231815"/>
          <path d="M320.5,386.6h-.9v-6.2l-.9.7-1,.5v-.9a7.1,7.1,0,0,0,1.4-1,2.4,2.4,0,0,0,.8-1h.6v7.9Z" transform="translate(0 13.5)" style="fill: #231815"/>
          <path d="M328,385.6v1h-5.1a1.5,1.5,0,0,1,.1-.7,2.1,2.1,0,0,1,.6-1,5.1,5.1,0,0,1,1.3-1.2,13.2,13.2,0,0,0,1.7-1.7,1.9,1.9,0,0,0,.4-1.2,1.1,1.1,0,0,0-.4-.9,1.2,1.2,0,0,0-1-.4,1.2,1.2,0,0,0-1.1.4,1.7,1.7,0,0,0-.5,1.2h-1a2.7,2.7,0,0,1,.8-1.7,2.6,2.6,0,0,1,1.8-.6,2.8,2.8,0,0,1,1.8.6,2.3,2.3,0,0,1,.6,1.6,1.5,1.5,0,0,1-.2.9,3.7,3.7,0,0,1-.6,1l-1.5,1.3-1.1,1-.4.5Z" transform="translate(0 13.5)" style="fill: #231815"/>
          <path d="M330,382.7a5.1,5.1,0,0,0,.5,2.6,1.4,1.4,0,0,0,1.1.6,1.3,1.3,0,0,0,1.1-.6,5.1,5.1,0,0,0,.5-2.6,4.9,4.9,0,0,0-.5-2.6,1.3,1.3,0,0,0-1.1-.6,1.6,1.6,0,0,0-1.1.5,5.6,5.6,0,0,0-.5,2.7Zm-.9,0a11.8,11.8,0,0,1,.2-2.2,3.4,3.4,0,0,1,.9-1.4,2.1,2.1,0,0,1,1.4-.4l1.1.2a3,3,0,0,1,.8.8,3.7,3.7,0,0,1,.5,1.1,9.2,9.2,0,0,1,.2,1.9,6.5,6.5,0,0,1-.3,2.2,2.5,2.5,0,0,1-.9,1.3,2,2,0,0,1-1.4.5,2.5,2.5,0,0,1-1.8-.8,5.4,5.4,0,0,1-.7-3.2Z" transform="translate(0 13.5)" style="fill: #231815"/>
        </g>
      </g>
      <g>
        <path d="M332.9,17.2a1.4,1.4,0,0,0-2.2-.9,1,1,0,0,0-.4.9,1.4,1.4,0,0,0,2.2.9,1.1,1.1,0,0,0,.4-.9Zm.3-3.6a2.4,2.4,0,0,0-.2-.8l-.6-.6-.8-.2a1.4,1.4,0,0,0-1.6,1.6,1.3,1.3,0,0,0,.5,1.1,1.5,1.5,0,0,0,2.2,0,1.4,1.4,0,0,0,.5-1.1Zm-.5,2a1.5,1.5,0,0,1,.9.6,1.7,1.7,0,0,1,.3,1,1.6,1.6,0,0,1-.7,1.4,2.4,2.4,0,0,1-3.2,0,1.7,1.7,0,0,1-.7-1.4,1.7,1.7,0,0,1,.3-1,1.5,1.5,0,0,1,.9-.6,1.9,1.9,0,0,1-1.1-.8,1.6,1.6,0,0,1-.4-1.2,2.1,2.1,0,0,1,.7-1.7,2.9,2.9,0,0,1,3.8,0,2.6,2.6,0,0,1,.7,1.7,2.8,2.8,0,0,1-.4,1.3,2.1,2.1,0,0,1-1.1.7Z" transform="translate(0 13.5)" style="fill: #231815"/>
        <path d="M321.4,11.3h1v6.2a3.5,3.5,0,0,1,.9-.7l1-.5v.9a7.1,7.1,0,0,0-1.4,1,2.4,2.4,0,0,0-.8,1h-.7V11.3Z" transform="translate(0 13.5)" style="fill: #231815"/>
        <path d="M313.9,12.3v-1h5.2a1.5,1.5,0,0,1-.1.7,3,3,0,0,1-.6,1.1,8.1,8.1,0,0,1-1.3,1.1l-1.7,1.7a2.1,2.1,0,0,0-.5,1.2,1.4,1.4,0,0,0,1.5,1.3,1.4,1.4,0,0,0,1.1-.4,1.6,1.6,0,0,0,.4-1.2h1a2.2,2.2,0,0,1-.7,1.7,2.8,2.8,0,0,1-1.8.6,2.4,2.4,0,0,1-1.8-.6,2.2,2.2,0,0,1-.7-1.6,2.9,2.9,0,0,1,.2-.9l.7-.9a10.8,10.8,0,0,1,1.5-1.4l1.1-1,.4-.5Z" transform="translate(0 13.5)" style="fill: #231815"/>
        <path d="M311.9,15.2a5.4,5.4,0,0,0-.4-2.6,1.4,1.4,0,0,0-1.1-.6,1.4,1.4,0,0,0-1.2.6,5.4,5.4,0,0,0-.4,2.6,5.1,5.1,0,0,0,.4,2.6,1.4,1.4,0,0,0,1.2.6,1.2,1.2,0,0,0,1-.5,4.6,4.6,0,0,0,.5-2.7Zm1,0a6.5,6.5,0,0,1-.3,2.2,2.7,2.7,0,0,1-.8,1.4,2.3,2.3,0,0,1-1.4.4l-1.1-.2a2,2,0,0,1-.8-.8,3.7,3.7,0,0,1-.5-1.1,9.2,9.2,0,0,1-.2-1.9,6.5,6.5,0,0,1,.3-2.2,3.2,3.2,0,0,1,.8-1.3,2.5,2.5,0,0,1,1.5-.5,2.1,2.1,0,0,1,1.7.8,4.7,4.7,0,0,1,.8,3.2Z" transform="translate(0 13.5)" style="fill: #231815"/>
      </g>
      <g>
        <path d="M1.2,388.3h4a.1.1,0,0,0,.1-.1c0-.1,0-.2-.1-.2h-4c-.1,0-.1.1-.1.2a.1.1,0,0,0,.1.1" transform="translate(0 13.5)" style="fill: #231815;stroke: #231815;stroke-miterlimit: 10;stroke-width: 0.405px"/>
        <path d="M5.2,388.3h155a.1.1,0,0,0,.1-.1c0-.1,0-.2-.1-.2H5.2c-.1,0-.1.1-.1.2a.1.1,0,0,0,.1.1" transform="translate(0 13.5)" style="fill: #231815;stroke: #231815;stroke-miterlimit: 10;stroke-width: 0.405px"/>
        <path d="M7.8,385.4l-5.3,5.3c-.1.1-.1.2,0,.2s.1.1.1,0L8,385.6v-.2H7.8" transform="translate(0 13.5)" style="fill: #231815;stroke: #231815;stroke-miterlimit: 10;stroke-width: 0.405px"/>
        <path d="M5.3,393.2v-10c0-.1,0-.2-.1-.2s-.1.1-.1.2v10a.1.1,0,0,0,.2,0" transform="translate(0 13.5)" style="fill: #231815;stroke: #231815;stroke-miterlimit: 10;stroke-width: 0.405px"/>
        <path d="M147,393.2v-10c0-.1,0-.2-.1-.2s-.1.1-.1.2v10a.1.1,0,0,0,.2,0" transform="translate(0 13.5)" style="fill: #231815;stroke: #231815;stroke-miterlimit: 10;stroke-width: 0.405px"/>
        <path d="M160.2,388.3H317.5l-.2-.2H160.2c-.1,0-.1.1-.1.2a.1.1,0,0,0,.1.1" transform="translate(0 13.5)" style="fill: #231815;stroke: #231815;stroke-miterlimit: 10;stroke-width: 0.405px"/>
        <path d="M149.5,385.4l-5.4,5.3v.2c.1.1.2.1.2,0l5.3-5.3c.1-.1.1-.1,0-.2h-.1" transform="translate(0 13.5)" style="fill: #231815;stroke: #231815;stroke-miterlimit: 10;stroke-width: 0.405px"/>
        <path d="M177.7,393.2v-10a.2.2,0,0,0-.2-.2v10.2h.3" transform="translate(0 13.5)" style="fill: #231815;stroke: #231815;stroke-miterlimit: 10;stroke-width: 0.405px"/>
        <path d="M317.3,388.3H453.7a.1.1,0,0,0,.1-.1c0-.1,0-.2-.1-.2H317.3v.2h.1" transform="translate(0 13.5)" style="fill: #231815;stroke: #231815;stroke-miterlimit: 10;stroke-width: 0.405px"/>
        <path d="M180.1,385.4l-5.3,5.3c-.1.1-.1.2,0,.2s.1.1.2,0l5.3-5.3v-.2h-.2" transform="translate(0 13.5)" style="fill: #231815;stroke: #231815;stroke-miterlimit: 10;stroke-width: 0.405px"/>
        <path d="M451.1,390.9l5.3-5.3c.1-.1.1-.1,0-.2h-.1l-5.4,5.3v.2c.1.1.2.1.2,0" transform="translate(0 13.5)" style="fill: #231815;stroke: #231815;stroke-miterlimit: 10;stroke-width: 0.405px"/>
        <path d="M453.7,388.3h4.1V388h-4c-.1,0-.1.1-.1.2a.1.1,0,0,0,.1.1" transform="translate(0 13.5)" style="fill: #231815;stroke: #231815;stroke-miterlimit: 10;stroke-width: 0.405px"/>
        <path d="M453.8,393.2v-10c0-.1,0-.2-.1-.2s-.1.1-.1.2v10a.1.1,0,1,0,.2,0" transform="translate(0 13.5)" style="fill: #231815;stroke: #231815;stroke-miterlimit: 10;stroke-width: 0.405px"/>
        <path d="M5.1,366v8.2c0,.1,0,.2.1.2s.1-.1.1-.2V366a.1.1,0,0,0-.2,0" transform="translate(0 13.5)" style="fill: #231815;stroke: #231815;stroke-miterlimit: 10;stroke-width: 0.405px"/>
        <path d="M5.1,374.2v9.4c0,.1,0,.2.1.2s.1-.1.1-.2v-9.4H5.1" transform="translate(0 13.5)" style="fill: #231815;stroke: #231815;stroke-miterlimit: 10;stroke-width: 0.405px"/>
        <path d="M5.2,383.8h0" transform="translate(0 13.5)" style="fill: #231815;stroke: #231815;stroke-miterlimit: 10;stroke-width: 0.405px"/>
        <path d="M5.2,383.8h0" transform="translate(0 13.5)" style="fill: #231815;stroke: #231815;stroke-miterlimit: 10;stroke-width: 0.405px"/>
        <path d="M5.1,383.6V393c0,.1,0,.1.1.1s.1,0,.1-.1v-9.4a.1.1,0,1,0-.2,0" transform="translate(0 13.5)" style="fill: #231815;stroke: #231815;stroke-miterlimit: 10;stroke-width: 0.405px"/>
        <path d="M146.8,366v8.2c0,.1,0,.2.1.2s.1-.1.1-.2V366a.1.1,0,0,0-.2,0" transform="translate(0 13.5)" style="fill: #231815;stroke: #231815;stroke-miterlimit: 10;stroke-width: 0.405px"/>
        <path d="M146.8,374.2v9.4c0,.1,0,.2.1.2s.1-.1.1-.2v-9.4h-.2" transform="translate(0 13.5)" style="fill: #231815;stroke: #231815;stroke-miterlimit: 10;stroke-width: 0.405px"/>
        <path d="M146.9,383.8h0" transform="translate(0 13.5)" style="fill: #231815;stroke: #231815;stroke-miterlimit: 10;stroke-width: 0.405px"/>
        <path d="M146.9,383.8h0" transform="translate(0 13.5)" style="fill: #231815;stroke: #231815;stroke-miterlimit: 10;stroke-width: 0.405px"/>
        <path d="M146.8,383.6V393c0,.1,0,.1.1.1s.1,0,.1-.1v-9.4a.1.1,0,0,0-.2,0" transform="translate(0 13.5)" style="fill: #231815;stroke: #231815;stroke-miterlimit: 10;stroke-width: 0.405px"/>
        <path d="M177.4,366v8.2a.3.3,0,0,0,.1.2.2.2,0,0,0,.2-.2V366h-.3" transform="translate(0 13.5)" style="fill: #231815;stroke: #231815;stroke-miterlimit: 10;stroke-width: 0.405px"/>
        <path d="M177.4,374.2v9.6l.2-.2v-9.4h-.3" transform="translate(0 13.5)" style="fill: #231815;stroke: #231815;stroke-miterlimit: 10;stroke-width: 0.405px"/>
        <path d="M177.5,383.8a.1.1,0,0,0,.1-.1h-.1" transform="translate(0 13.5)" style="fill: #231815;stroke: #231815;stroke-miterlimit: 10;stroke-width: 0.405px"/>
        <path d="M177.5,383.8a.1.1,0,0,0,.1-.1h-.1" transform="translate(0 13.5)" style="fill: #231815;stroke: #231815;stroke-miterlimit: 10;stroke-width: 0.405px"/>
        <path d="M177.4,383.6V393a.1.1,0,0,0,.1.1c.1,0,.2,0,.2-.1v-9.4h-.3" transform="translate(0 13.5)" style="fill: #231815;stroke: #231815;stroke-miterlimit: 10;stroke-width: 0.405px"/>
        <path d="M453.6,366v8.2c0,.1,0,.2.1.2s.1-.1.1-.2V366a.1.1,0,0,0-.2,0" transform="translate(0 13.5)" style="fill: #231815;stroke: #231815;stroke-miterlimit: 10;stroke-width: 0.405px"/>
        <path d="M453.6,374.2v9.4c0,.1,0,.2.1.2s.1-.1.1-.2v-9.4h-.2" transform="translate(0 13.5)" style="fill: #231815;stroke: #231815;stroke-miterlimit: 10;stroke-width: 0.405px"/>
        <path d="M453.7,383.8a.1.1,0,0,1,.1-.1h-.1" transform="translate(0 13.5)" style="fill: #231815;stroke: #231815;stroke-miterlimit: 10;stroke-width: 0.405px"/>
        <path d="M453.7,383.8a.1.1,0,0,1,.1-.1h-.1" transform="translate(0 13.5)" style="fill: #231815;stroke: #231815;stroke-miterlimit: 10;stroke-width: 0.405px"/>
        <path d="M453.6,383.6V393c0,.1,0,.1.1.1s.1,0,.1-.1v-9.4a.1.1,0,0,0-.2,0" transform="translate(0 13.5)" style="fill: #231815;stroke: #231815;stroke-miterlimit: 10;stroke-width: 0.405px"/>
      </g>
      <g>
        <path d="M457.7,5.9h0" transform="translate(0 13.5)" style="fill: #231815;stroke: #231815;stroke-miterlimit: 10;stroke-width: 0.405px"/>
        <path d="M453.7,5.9h0" transform="translate(0 13.5)" style="fill: #231815;stroke: #231815;stroke-miterlimit: 10;stroke-width: 0.405px"/>
        <path d="M451.1,8.7l5.3-5.3c.1,0,.1-.1,0-.2h-.1l-5.4,5.4h0c.1.1.2.1.2,0" transform="translate(0 13.5)" style="fill: #231815;stroke: #231815;stroke-miterlimit: 10;stroke-width: 0.405px"/>
        <path d="M453.6,1V11h.2V1h-.2" transform="translate(0 13.5)" style="fill: #231815;stroke: #231815;stroke-miterlimit: 10;stroke-width: 0.405px"/>
        <path d="M177.4,1V11h.3V1h-.3" transform="translate(0 13.5)" style="fill: #231815;stroke: #231815;stroke-miterlimit: 10;stroke-width: 0.405px"/>
        <path d="M298.7,5.9h0" transform="translate(0 13.5)" style="fill: #231815;stroke: #231815;stroke-miterlimit: 10;stroke-width: 0.405px"/>
        <path d="M175,8.7l5.3-5.3V3.2h-.2l-5.3,5.4c-.1,0-.1.1,0,.1s.1.1.2,0" transform="translate(0 13.5)" style="fill: #231815;stroke: #231815;stroke-miterlimit: 10;stroke-width: 0.405px"/>
        <path d="M146.6,1V11h.3V1h-.3" transform="translate(0 13.5)" style="fill: #231815;stroke: #231815;stroke-miterlimit: 10;stroke-width: 0.405px"/>
        <path d="M141.6,5.9h0" transform="translate(0 13.5)" style="fill: #231815;stroke: #231815;stroke-miterlimit: 10;stroke-width: 0.405px"/>
        <path d="M144.2,8.7l5.3-5.3V3.2h-.2L144,8.6c-.1,0-.1.1,0,.1s.1.1.2,0" transform="translate(0 13.5)" style="fill: #231815;stroke: #231815;stroke-miterlimit: 10;stroke-width: 0.405px"/>
        <path d="M7.8,3.2,2.5,8.6c-.1,0-.1.1,0,.1s.1.1.1,0L8,3.4V3.2H7.8" transform="translate(0 13.5)" style="fill: #231815;stroke: #231815;stroke-miterlimit: 10;stroke-width: 0.405px"/>
        <path d="M5.2,5.9h0" transform="translate(0 13.5)" style="fill: #231815;stroke: #231815;stroke-miterlimit: 10;stroke-width: 0.405px"/>
        <path d="M5.1,1V11h.2V1H5.1" transform="translate(0 13.5)" style="fill: #231815;stroke: #231815;stroke-miterlimit: 10;stroke-width: 0.405px"/>
        <path d="M453.8,28.1V19.9h-.2v8.2h.2" transform="translate(0 13.5)" style="fill: #231815;stroke: #231815;stroke-miterlimit: 10;stroke-width: 0.405px"/>
        <path d="M453.8,19.9V10.5h-.2v9.4c0,.1,0,.1.1.1s.1,0,.1-.1" transform="translate(0 13.5)" style="fill: #231815;stroke: #231815;stroke-miterlimit: 10;stroke-width: 0.405px"/>
        <path d="M453.7,10.4h0" transform="translate(0 13.5)" style="fill: #231815;stroke: #231815;stroke-miterlimit: 10;stroke-width: 0.405px"/>
        <path d="M453.7,10.4h0" transform="translate(0 13.5)" style="fill: #231815;stroke: #231815;stroke-miterlimit: 10;stroke-width: 0.405px"/>
        <path d="M453.8,10.5V1.1a.1.1,0,0,0-.2,0v9.4h.2" transform="translate(0 13.5)" style="fill: #231815;stroke: #231815;stroke-miterlimit: 10;stroke-width: 0.405px"/>
        <path d="M177.7,28.1V19.9h-.3v8.2h.3" transform="translate(0 13.5)" style="fill: #231815;stroke: #231815;stroke-miterlimit: 10;stroke-width: 0.405px"/>
        <path d="M177.7,19.9V10.5h-.3v9.4a.1.1,0,0,0,.1.1c.1,0,.2,0,.2-.1" transform="translate(0 13.5)" style="fill: #231815;stroke: #231815;stroke-miterlimit: 10;stroke-width: 0.405px"/>
        <path d="M177.5,10.4h0" transform="translate(0 13.5)" style="fill: #231815;stroke: #231815;stroke-miterlimit: 10;stroke-width: 0.405px"/>
        <path d="M177.5,10.4h0" transform="translate(0 13.5)" style="fill: #231815;stroke: #231815;stroke-miterlimit: 10;stroke-width: 0.405px"/>
        <path d="M177.7,10.5V1.1h-.3v9.4h.3" transform="translate(0 13.5)" style="fill: #231815;stroke: #231815;stroke-miterlimit: 10;stroke-width: 0.405px"/>
        <path d="M146.9,28.1V19.9h-.3v8.2h.3" transform="translate(0 13.5)" style="fill: #231815;stroke: #231815;stroke-miterlimit: 10;stroke-width: 0.405px"/>
        <path d="M146.9,19.9V10.5h-.3v9.4a.1.1,0,0,0,.1.1c.1,0,.2,0,.2-.1" transform="translate(0 13.5)" style="fill: #231815;stroke: #231815;stroke-miterlimit: 10;stroke-width: 0.405px"/>
        <path d="M146.7,10.4h0" transform="translate(0 13.5)" style="fill: #231815;stroke: #231815;stroke-miterlimit: 10;stroke-width: 0.405px"/>
        <path d="M146.7,10.4h0" transform="translate(0 13.5)" style="fill: #231815;stroke: #231815;stroke-miterlimit: 10;stroke-width: 0.405px"/>
        <path d="M146.9,10.5V1.1h-.3v9.4h.3" transform="translate(0 13.5)" style="fill: #231815;stroke: #231815;stroke-miterlimit: 10;stroke-width: 0.405px"/>
        <path d="M5.3,28.1V19.9H5.1v8.2h.2" transform="translate(0 13.5)" style="fill: #231815;stroke: #231815;stroke-miterlimit: 10;stroke-width: 0.405px"/>
        <path d="M5.3,19.9V10.5H5.1v9.4c0,.1,0,.1.1.1s.1,0,.1-.1" transform="translate(0 13.5)" style="fill: #231815;stroke: #231815;stroke-miterlimit: 10;stroke-width: 0.405px"/>
        <path d="M5.2,10.4h0" transform="translate(0 13.5)" style="fill: #231815;stroke: #231815;stroke-miterlimit: 10;stroke-width: 0.405px"/>
        <path d="M5.2,10.4h0" transform="translate(0 13.5)" style="fill: #231815;stroke: #231815;stroke-miterlimit: 10;stroke-width: 0.405px"/>
        <path d="M5.3,10.5V1.1a.1.1,0,1,0-.2,0v9.4h.2" transform="translate(0 13.5)" style="fill: #231815;stroke: #231815;stroke-miterlimit: 10;stroke-width: 0.405px"/>
      </g>
      <g>
        <path d="M490.7,362.6v-4a.1.1,0,1,0-.2,0v4h.2" transform="translate(0 13.5)" style="fill: #231815;stroke: #231815;stroke-miterlimit: 10;stroke-width: 0.405px"/>
        <path d="M487.9,356.1l5.3,5.3h.2v-.2l-5.4-5.3h-.1c-.1,0-.1.1,0,.2" transform="translate(0 13.5)" style="fill: #231815;stroke: #231815;stroke-miterlimit: 10;stroke-width: 0.405px"/>
        <path d="M495.6,358.5H485.5v.2h10c.1,0,.1-.1.1-.2a.1.1,0,0,0-.1-.1" transform="translate(0 13.5)" style="fill: #231815;stroke: #231815;stroke-miterlimit: 10;stroke-width: 0.405px"/>
        <path d="M495.6,344.9h-10a.1.1,0,0,0-.1.1h10.1a.1.1,0,0,0,.1-.1c0-.1,0-.1-.1-.1" transform="translate(0 13.5)" style="fill: #231815;stroke: #231815;stroke-miterlimit: 10;stroke-width: 0.405px"/>
        <path d="M490.7,358.7V178.4h-.2V358.7c0,.1,0,.1.1.1s.1,0,.1-.1" transform="translate(0 13.5)" style="fill: #231815;stroke: #231815;stroke-miterlimit: 10;stroke-width: 0.405px"/>
        <path d="M487.9,342.4l5.3,5.3c0,.1.1.1.2,0v-.2l-5.4-5.3h-.1c-.1.1-.1.1,0,.2" transform="translate(0 13.5)" style="fill: #231815;stroke: #231815;stroke-miterlimit: 10;stroke-width: 0.405px"/>
        <path d="M495.6,331.5H485.5v.2h10c.1,0,.1-.1.1-.2a.1.1,0,0,0-.1-.1" transform="translate(0 13.5)" style="fill: #231815;stroke: #231815;stroke-miterlimit: 10;stroke-width: 0.405px"/>
        <path d="M490.7,178.4V42.1c0-.1,0-.1-.1-.1s-.1,0-.1.1V178.4c0,.1,0,.2.1.2s.1-.1.1-.2" transform="translate(0 13.5)" style="fill: #231815;stroke: #231815;stroke-miterlimit: 10;stroke-width: 0.405px"/>
        <path d="M487.9,329.1l5.3,5.3h.2v-.2l-5.4-5.3h-.1c-.1,0-.1.1,0,.2" transform="translate(0 13.5)" style="fill: #231815;stroke: #231815;stroke-miterlimit: 10;stroke-width: 0.405px"/>
        <path d="M493.4,44.7,488,39.3h-.1c-.1.1-.1.2,0,.2l5.3,5.3c0,.1.1.1.2,0h0" transform="translate(0 13.5)" style="fill: #231815;stroke: #231815;stroke-miterlimit: 10;stroke-width: 0.405px"/>
        <path d="M490.7,42.1v-4c0-.1,0-.1-.1-.1s-.1,0-.1.1v4c0,.1,0,.1.1.1s.1,0,.1-.1" transform="translate(0 13.5)" style="fill: #231815;stroke: #231815;stroke-miterlimit: 10;stroke-width: 0.405px"/>
        <path d="M495.6,42h-10a.1.1,0,1,0,0,.2h10c.1,0,.1,0,.1-.1s0-.1-.1-.1" transform="translate(0 13.5)" style="fill: #231815;stroke: #231815;stroke-miterlimit: 10;stroke-width: 0.405px"/>
        <path d="M468.5,358.8h8.2c.1,0,.1-.1.1-.2a.1.1,0,0,0-.1-.1h-8.2a.1.1,0,0,0-.1.1c0,.1,0,.2.1.2" transform="translate(0 13.5)" style="fill: #231815;stroke: #231815;stroke-miterlimit: 10;stroke-width: 0.405px"/>
        <path d="M476.7,358.8h9.4v-.2h-9.5a.1.1,0,0,0-.1.1c0,.1,0,.2.1.2" transform="translate(0 13.5)" style="fill: #231815;stroke: #231815;stroke-miterlimit: 10;stroke-width: 0.405px"/>
        <path d="M486.2,358.6h-.1a.1.1,0,0,1,.1-.1h0" transform="translate(0 13.5)" style="fill: #231815;stroke: #231815;stroke-miterlimit: 10;stroke-width: 0.405px"/>
        <path d="M486.2,358.6h-.1a.1.1,0,0,1,.1-.1h0" transform="translate(0 13.5)" style="fill: #231815;stroke: #231815;stroke-miterlimit: 10;stroke-width: 0.405px"/>
        <path d="M486.1,358.8h9.4v-.2h-9.5a.1.1,0,0,0-.1.1c0,.1,0,.2.1.2" transform="translate(0 13.5)" style="fill: #231815;stroke: #231815;stroke-miterlimit: 10;stroke-width: 0.405px"/>
        <path d="M468.5,345.1h8.2a.1.1,0,0,0,.1-.1c0-.1,0-.1-.1-.1h-8.2c-.1,0-.1,0-.1.1a.1.1,0,0,0,.1.1" transform="translate(0 13.5)" style="fill: #231815;stroke: #231815;stroke-miterlimit: 10;stroke-width: 0.405px"/>
        <path d="M476.7,345.1h9.5a.1.1,0,0,0-.1-.1h-9.4c-.1,0-.1,0-.1.1a.1.1,0,0,0,.1.1" transform="translate(0 13.5)" style="fill: #231815;stroke: #231815;stroke-miterlimit: 10;stroke-width: 0.405px"/>
        <path d="M486.2,345h0" transform="translate(0 13.5)" style="fill: #231815;stroke: #231815;stroke-miterlimit: 10;stroke-width: 0.405px"/>
        <path d="M486.2,345h0" transform="translate(0 13.5)" style="fill: #231815;stroke: #231815;stroke-miterlimit: 10;stroke-width: 0.405px"/>
        <path d="M486.1,345.1h9.5a.1.1,0,0,0-.1-.1h-9.4c-.1,0-.1,0-.1.1a.1.1,0,0,0,.1.1" transform="translate(0 13.5)" style="fill: #231815;stroke: #231815;stroke-miterlimit: 10;stroke-width: 0.405px"/>
        <path d="M468.5,331.8h8.2c.1,0,.1-.1.1-.2a.1.1,0,0,0-.1-.1h-8.2a.1.1,0,0,0-.1.1c0,.1,0,.2.1.2" transform="translate(0 13.5)" style="fill: #231815;stroke: #231815;stroke-miterlimit: 10;stroke-width: 0.405px"/>
        <path d="M476.7,331.8h9.4v-.2h-9.5a.1.1,0,0,0-.1.1c0,.1,0,.2.1.2" transform="translate(0 13.5)" style="fill: #231815;stroke: #231815;stroke-miterlimit: 10;stroke-width: 0.405px"/>
        <path d="M486.2,331.6h-.1a.1.1,0,0,0-.1.1h0a.1.1,0,0,0,.1.1h.1" transform="translate(0 13.5)" style="fill: #231815;stroke: #231815;stroke-miterlimit: 10;stroke-width: 0.405px"/>
        <path d="M486.2,331.6h-.1a.1.1,0,0,0-.1.1h0a.1.1,0,0,0,.1.1h.1" transform="translate(0 13.5)" style="fill: #231815;stroke: #231815;stroke-miterlimit: 10;stroke-width: 0.405px"/>
        <path d="M486.1,331.8h9.4v-.2h-9.5a.1.1,0,0,0-.1.1c0,.1,0,.2.1.2" transform="translate(0 13.5)" style="fill: #231815;stroke: #231815;stroke-miterlimit: 10;stroke-width: 0.405px"/>
        <path d="M468.5,42.2h8.2c.1,0,.1,0,.1-.1s0-.1-.1-.1h-8.2c-.1,0-.1,0-.1.1s0,.1.1.1" transform="translate(0 13.5)" style="fill: #231815;stroke: #231815;stroke-miterlimit: 10;stroke-width: 0.405px"/>
        <path d="M476.7,42.2h9.4a.1.1,0,0,0,0-.2h-9.4c-.1,0-.1,0-.1.1s0,.1.1.1" transform="translate(0 13.5)" style="fill: #231815;stroke: #231815;stroke-miterlimit: 10;stroke-width: 0.405px"/>
        <path d="M486.2,42.1h0" transform="translate(0 13.5)" style="fill: #231815;stroke: #231815;stroke-miterlimit: 10;stroke-width: 0.405px"/>
        <path d="M486.2,42.1h0" transform="translate(0 13.5)" style="fill: #231815;stroke: #231815;stroke-miterlimit: 10;stroke-width: 0.405px"/>
        <path d="M486.1,42.2h9.4a.1.1,0,0,0,0-.2h-9.4c-.1,0-.1,0-.1.1s0,.1.1.1" transform="translate(0 13.5)" style="fill: #231815;stroke: #231815;stroke-miterlimit: 10;stroke-width: 0.405px"/>
        <path d="M493.4,79.1,488,73.8h-.1c-.1,0-.1.1,0,.1l5.3,5.4h.2v-.2" transform="translate(0 13.5)" style="fill: #231815;stroke: #231815;stroke-miterlimit: 10;stroke-width: 0.405px"/>
        <path d="M490.7,76.5v-4h-.2v4h.2" transform="translate(0 13.5)" style="fill: #231815;stroke: #231815;stroke-miterlimit: 10;stroke-width: 0.405px"/>
        <path d="M495.6,76.4h0" transform="translate(0 13.5)" style="fill: #231815;stroke: #231815;stroke-miterlimit: 10;stroke-width: 0.405px"/>
        <path d="M468.5,76.6h0" transform="translate(0 13.5)" style="fill: #231815;stroke: #231815;stroke-miterlimit: 10;stroke-width: 0.405px"/>
        <path d="M476.7,76.6h0" transform="translate(0 13.5)" style="fill: #231815;stroke: #231815;stroke-miterlimit: 10;stroke-width: 0.405px"/>
        <path d="M486.2,76.5h0" transform="translate(0 13.5)" style="fill: #231815;stroke: #231815;stroke-miterlimit: 10;stroke-width: 0.405px"/>
        <path d="M486.2,76.5h0" transform="translate(0 13.5)" style="fill: #231815;stroke: #231815;stroke-miterlimit: 10;stroke-width: 0.405px"/>
        <path d="M486.1,76.6h0" transform="translate(0 13.5)" style="fill: #231815;stroke: #231815;stroke-miterlimit: 10;stroke-width: 0.405px"/>
      </g>
      <polyline points="5.1 70.6 443.2 70.6 443.2 358.5 5.1 358.5" style="fill: none;stroke: #231815;stroke-miterlimit: 10;stroke-width: 1.13686582930499px"/>
      <line x1="146.9" y1="70.6" x2="146.9" y2="358.5" style="fill: none;stroke: #231815;stroke-miterlimit: 10;stroke-width: 1.13686582930499px"/>
      <line x1="177.5" y1="70.6" x2="177.5" y2="358.5" style="fill: none;stroke: #231815;stroke-miterlimit: 10;stroke-width: 1.13686582930499px"/>
      <rect x="213.4" y="89.6" width="215.2" height="253.61" style="fill: none;stroke: #231815;stroke-miterlimit: 10;stroke-width: 1.13686582930499px"/>
      <rect x="246" y="128" width="149.9" height="176.69" style="fill: none;stroke: #231815;stroke-miterlimit: 10;stroke-width: 1.13686582930499px"/>
      <polyline points="139.6 147.3 146.7 147.3 146.7 358.5 71.9 358.5 71.9 147.3 132.3 147.3" style="fill: none;stroke: #231815;stroke-miterlimit: 10;stroke-width: 1.13686582930499px"/>
      <rect x="304.7" y="89.6" width="32.6" height="38.47" style="fill: none;stroke: #231815;stroke-miterlimit: 10;stroke-width: 1.13686582930499px"/>
      <rect x="20.8" y="84.4" width="32.6" height="38.46" style="fill: none;stroke: #231815;stroke-miterlimit: 10;stroke-width: 1.13686582930499px"/>
      <rect x="20.8" y="137.6" width="32.6" height="177.61" style="fill: none;stroke: #231815;stroke-miterlimit: 10;stroke-width: 1.13686582930499px"/>
      <rect x="53.4" y="84.4" width="16.3" height="19.23" style="fill: none;stroke: #231815;stroke-miterlimit: 10;stroke-width: 1.13686582930499px"/>
      <rect x="304.7" y="304.7" width="32.6" height="38.46" style="fill: none;stroke: #231815;stroke-miterlimit: 10;stroke-width: 1.13686582930499px"/>
      <line x1="443.2" y1="89.6" x2="457.8" y2="89.6" style="fill: none;stroke: #231815;stroke-miterlimit: 10;stroke-width: 1.13686582930499px"/>
      <line x1="385.8" y1="137.6" x2="395.9" y2="137.6" style="fill: none;stroke: #231815;stroke-miterlimit: 10;stroke-width: 1.13686582930499px"/>
      <line x1="246" y1="295.1" x2="256.2" y2="295.1" style="fill: none;stroke: #231815;stroke-miterlimit: 10;stroke-width: 1.13686582930499px"/>
      <line x1="443.2" y1="345.2" x2="457.8" y2="345.2" style="fill: none;stroke: #231815;stroke-miterlimit: 10;stroke-width: 1.13686582930499px"/>
      <line x1="146.7" y1="90.8" x2="146.7" y2="87.4" style="fill: none;stroke: #231815;stroke-miterlimit: 10;stroke-width: 0.456328963074075px"/>
      <line x1="443.3" y1="92.3" x2="443.3" y2="88.9" style="fill: none;stroke: #231815;stroke-miterlimit: 10;stroke-width: 0.456328963074075px"/>
      <line x1="443.2" y1="89.4" x2="446.6" y2="89.4" style="fill: none;stroke: #231815;stroke-miterlimit: 10;stroke-width: 0.456328963074075px"/>
      <line x1="444.9" y1="344.8" x2="448.3" y2="344.8" style="fill: none;stroke: #231815;stroke-miterlimit: 10;stroke-width: 0.456328963074075px"/>
      <line x1="450.5" y1="89.4" x2="450.5" y2="344.8" style="fill: none;stroke: #231815;stroke-miterlimit: 10;stroke-width: 0.793959670718509px"/>
      <line x1="132.3" y1="89.6" x2="146.9" y2="89.6" style="fill: none;stroke: #231815;stroke-miterlimit: 10;stroke-width: 1.13686582930499px"/>
      <line x1="132.3" y1="345.2" x2="146.9" y2="345.2" style="fill: none;stroke: #231815;stroke-miterlimit: 10;stroke-width: 1.13686582930499px"/>
      <line x1="139.6" y1="89.4" x2="139.6" y2="344.8" style="fill: none;stroke: #231815;stroke-miterlimit: 10;stroke-width: 0.793959670718509px"/>
      <line x1="132.3" y1="89.4" x2="132.3" y2="344.8" style="fill: none;stroke: #231815;stroke-miterlimit: 10;stroke-width: 0.793959670718509px"/>
      <line x1="385.8" y1="128" x2="385.8" y2="304.7" style="fill: none;stroke: #231815;stroke-miterlimit: 10;stroke-width: 0.793959670718509px"/>
      <line x1="256.2" y1="128" x2="256.2" y2="304.7" style="fill: none;stroke: #231815;stroke-miterlimit: 10;stroke-width: 0.793959670718509px"/>
      <rect x="65.2" y="103.6" width="4.6" height="4.6" style="fill: none;stroke: #231815;stroke-miterlimit: 10;stroke-width: 0.810000022154918px"/>
      <g style="clip-path: url(#a)">
        <g>
          <g>
            <line x1="6.9" y1="159.9" x2="67.4" y2="99.5" style="fill: none;stroke: #231815;stroke-miterlimit: 10;stroke-width: 0.405px"/>
            <line x1="6.9" y1="167.4" x2="67.4" y2="106.9" style="fill: none;stroke: #231815;stroke-miterlimit: 10;stroke-width: 0.405px"/>
            <line x1="6.9" y1="174.8" x2="67.4" y2="114.3" style="fill: none;stroke: #231815;stroke-miterlimit: 10;stroke-width: 0.405px"/>
            <line x1="6.9" y1="182.3" x2="67.4" y2="121.8" style="fill: none;stroke: #231815;stroke-miterlimit: 10;stroke-width: 0.405px"/>
            <line x1="6.9" y1="189.7" x2="67.4" y2="129.2" style="fill: none;stroke: #231815;stroke-miterlimit: 10;stroke-width: 0.405px"/>
            <line x1="6.9" y1="197.1" x2="67.4" y2="136.7" style="fill: none;stroke: #231815;stroke-miterlimit: 10;stroke-width: 0.405px"/>
            <line x1="6.9" y1="204.6" x2="67.4" y2="144.1" style="fill: none;stroke: #231815;stroke-miterlimit: 10;stroke-width: 0.405px"/>
            <line x1="6.9" y1="212" x2="67.4" y2="151.6" style="fill: none;stroke: #231815;stroke-miterlimit: 10;stroke-width: 0.405px"/>
            <line x1="6.9" y1="219.5" x2="67.4" y2="159" style="fill: none;stroke: #231815;stroke-miterlimit: 10;stroke-width: 0.405px"/>
            <line x1="6.9" y1="226.9" x2="67.4" y2="166.4" style="fill: none;stroke: #231815;stroke-miterlimit: 10;stroke-width: 0.405px"/>
            <line x1="6.9" y1="234.4" x2="67.4" y2="173.9" style="fill: none;stroke: #231815;stroke-miterlimit: 10;stroke-width: 0.405px"/>
            <line x1="6.9" y1="241.8" x2="67.4" y2="181.3" style="fill: none;stroke: #231815;stroke-miterlimit: 10;stroke-width: 0.405px"/>
            <line x1="6.9" y1="249.2" x2="67.4" y2="188.8" style="fill: none;stroke: #231815;stroke-miterlimit: 10;stroke-width: 0.405px"/>
            <line x1="6.9" y1="256.7" x2="67.4" y2="196.2" style="fill: none;stroke: #231815;stroke-miterlimit: 10;stroke-width: 0.405px"/>
            <line x1="6.9" y1="264.1" x2="67.4" y2="203.6" style="fill: none;stroke: #231815;stroke-miterlimit: 10;stroke-width: 0.405px"/>
            <line x1="6.9" y1="271.6" x2="67.4" y2="211.1" style="fill: none;stroke: #231815;stroke-miterlimit: 10;stroke-width: 0.405px"/>
            <line x1="6.9" y1="279" x2="67.4" y2="218.5" style="fill: none;stroke: #231815;stroke-miterlimit: 10;stroke-width: 0.405px"/>
            <line x1="6.9" y1="286.4" x2="67.4" y2="226" style="fill: none;stroke: #231815;stroke-miterlimit: 10;stroke-width: 0.405px"/>
            <line x1="6.9" y1="293.9" x2="67.4" y2="233.4" style="fill: none;stroke: #231815;stroke-miterlimit: 10;stroke-width: 0.405px"/>
            <line x1="6.9" y1="301.3" x2="67.4" y2="240.8" style="fill: none;stroke: #231815;stroke-miterlimit: 10;stroke-width: 0.405px"/>
            <line x1="6.9" y1="308.8" x2="67.4" y2="248.3" style="fill: none;stroke: #231815;stroke-miterlimit: 10;stroke-width: 0.405px"/>
            <line x1="6.9" y1="316.2" x2="67.4" y2="255.7" style="fill: none;stroke: #231815;stroke-miterlimit: 10;stroke-width: 0.405px"/>
            <line x1="6.9" y1="323.6" x2="67.4" y2="263.2" style="fill: none;stroke: #231815;stroke-miterlimit: 10;stroke-width: 0.405px"/>
            <line x1="6.9" y1="331.1" x2="67.4" y2="270.6" style="fill: none;stroke: #231815;stroke-miterlimit: 10;stroke-width: 0.405px"/>
            <line x1="6.9" y1="338.5" x2="67.4" y2="278.1" style="fill: none;stroke: #231815;stroke-miterlimit: 10;stroke-width: 0.405px"/>
            <line x1="6.9" y1="346" x2="67.4" y2="285.5" style="fill: none;stroke: #231815;stroke-miterlimit: 10;stroke-width: 0.405px"/>
            <line x1="6.9" y1="353.4" x2="67.4" y2="292.9" style="fill: none;stroke: #231815;stroke-miterlimit: 10;stroke-width: 0.405px"/>
          </g>
          <g>
            <line x1="67.4" y1="159.9" x2="6.9" y2="99.5" style="fill: none;stroke: #231815;stroke-miterlimit: 10;stroke-width: 0.405px"/>
            <line x1="67.4" y1="167.4" x2="6.9" y2="106.9" style="fill: none;stroke: #231815;stroke-miterlimit: 10;stroke-width: 0.405px"/>
            <line x1="67.4" y1="174.8" x2="6.9" y2="114.3" style="fill: none;stroke: #231815;stroke-miterlimit: 10;stroke-width: 0.405px"/>
            <line x1="67.4" y1="182.3" x2="6.9" y2="121.8" style="fill: none;stroke: #231815;stroke-miterlimit: 10;stroke-width: 0.405px"/>
            <line x1="67.4" y1="189.7" x2="6.9" y2="129.2" style="fill: none;stroke: #231815;stroke-miterlimit: 10;stroke-width: 0.405px"/>
            <line x1="67.4" y1="197.1" x2="6.9" y2="136.7" style="fill: none;stroke: #231815;stroke-miterlimit: 10;stroke-width: 0.405px"/>
            <line x1="67.4" y1="204.6" x2="6.9" y2="144.1" style="fill: none;stroke: #231815;stroke-miterlimit: 10;stroke-width: 0.405px"/>
            <line x1="67.4" y1="212" x2="6.9" y2="151.6" style="fill: none;stroke: #231815;stroke-miterlimit: 10;stroke-width: 0.405px"/>
            <line x1="67.4" y1="219.5" x2="6.9" y2="159" style="fill: none;stroke: #231815;stroke-miterlimit: 10;stroke-width: 0.405px"/>
            <line x1="67.4" y1="226.9" x2="6.9" y2="166.4" style="fill: none;stroke: #231815;stroke-miterlimit: 10;stroke-width: 0.405px"/>
            <line x1="67.4" y1="234.4" x2="6.9" y2="173.9" style="fill: none;stroke: #231815;stroke-miterlimit: 10;stroke-width: 0.405px"/>
            <line x1="67.4" y1="241.8" x2="6.9" y2="181.3" style="fill: none;stroke: #231815;stroke-miterlimit: 10;stroke-width: 0.405px"/>
            <line x1="67.4" y1="249.2" x2="6.9" y2="188.8" style="fill: none;stroke: #231815;stroke-miterlimit: 10;stroke-width: 0.405px"/>
            <line x1="67.4" y1="256.7" x2="6.9" y2="196.2" style="fill: none;stroke: #231815;stroke-miterlimit: 10;stroke-width: 0.405px"/>
            <line x1="67.4" y1="264.1" x2="6.9" y2="203.6" style="fill: none;stroke: #231815;stroke-miterlimit: 10;stroke-width: 0.405px"/>
            <line x1="67.4" y1="271.6" x2="6.9" y2="211.1" style="fill: none;stroke: #231815;stroke-miterlimit: 10;stroke-width: 0.405px"/>
            <line x1="67.4" y1="279" x2="6.9" y2="218.5" style="fill: none;stroke: #231815;stroke-miterlimit: 10;stroke-width: 0.405px"/>
            <line x1="67.4" y1="286.4" x2="6.9" y2="226" style="fill: none;stroke: #231815;stroke-miterlimit: 10;stroke-width: 0.405px"/>
            <line x1="67.4" y1="293.9" x2="6.9" y2="233.4" style="fill: none;stroke: #231815;stroke-miterlimit: 10;stroke-width: 0.405px"/>
            <line x1="67.4" y1="301.3" x2="6.9" y2="240.8" style="fill: none;stroke: #231815;stroke-miterlimit: 10;stroke-width: 0.405px"/>
            <line x1="67.4" y1="308.8" x2="6.9" y2="248.3" style="fill: none;stroke: #231815;stroke-miterlimit: 10;stroke-width: 0.405px"/>
            <line x1="67.4" y1="316.2" x2="6.9" y2="255.7" style="fill: none;stroke: #231815;stroke-miterlimit: 10;stroke-width: 0.405px"/>
            <line x1="67.4" y1="323.6" x2="6.9" y2="263.2" style="fill: none;stroke: #231815;stroke-miterlimit: 10;stroke-width: 0.405px"/>
            <line x1="67.4" y1="331.1" x2="6.9" y2="270.6" style="fill: none;stroke: #231815;stroke-miterlimit: 10;stroke-width: 0.405px"/>
            <line x1="67.4" y1="338.5" x2="6.9" y2="278.1" style="fill: none;stroke: #231815;stroke-miterlimit: 10;stroke-width: 0.405px"/>
            <line x1="67.4" y1="346" x2="6.9" y2="285.5" style="fill: none;stroke: #231815;stroke-miterlimit: 10;stroke-width: 0.405px"/>
            <line x1="67.4" y1="353.4" x2="6.9" y2="292.9" style="fill: none;stroke: #231815;stroke-miterlimit: 10;stroke-width: 0.405px"/>
          </g>
        </g>
      </g>
      <g style="clip-path: url(#b)">
        <g>
          <line x1="239.8" y1="156.1" x2="395.7" y2="0.1" style="fill: none;stroke: #231815;stroke-miterlimit: 10;stroke-width: 0.405px"/>
          <line x1="239.8" y1="164.6" x2="395.7" y2="8.7" style="fill: none;stroke: #231815;stroke-miterlimit: 10;stroke-width: 0.405px"/>
          <line x1="239.8" y1="173.2" x2="395.7" y2="17.3" style="fill: none;stroke: #231815;stroke-miterlimit: 10;stroke-width: 0.405px"/>
          <line x1="239.8" y1="181.8" x2="395.7" y2="25.9" style="fill: none;stroke: #231815;stroke-miterlimit: 10;stroke-width: 0.405px"/>
          <line x1="239.8" y1="190.4" x2="395.7" y2="34.4" style="fill: none;stroke: #231815;stroke-miterlimit: 10;stroke-width: 0.405px"/>
          <line x1="239.8" y1="198.9" x2="395.7" y2="43" style="fill: none;stroke: #231815;stroke-miterlimit: 10;stroke-width: 0.405px"/>
          <line x1="239.8" y1="207.5" x2="395.7" y2="51.6" style="fill: none;stroke: #231815;stroke-miterlimit: 10;stroke-width: 0.405px"/>
          <line x1="239.8" y1="216.1" x2="395.7" y2="60.2" style="fill: none;stroke: #231815;stroke-miterlimit: 10;stroke-width: 0.405px"/>
          <line x1="239.8" y1="224.7" x2="395.7" y2="68.8" style="fill: none;stroke: #231815;stroke-miterlimit: 10;stroke-width: 0.405px"/>
          <line x1="239.8" y1="233.3" x2="395.7" y2="77.3" style="fill: none;stroke: #231815;stroke-miterlimit: 10;stroke-width: 0.405px"/>
          <line x1="239.8" y1="241.8" x2="395.7" y2="85.9" style="fill: none;stroke: #231815;stroke-miterlimit: 10;stroke-width: 0.405px"/>
          <line x1="239.8" y1="250.4" x2="395.7" y2="94.5" style="fill: none;stroke: #231815;stroke-miterlimit: 10;stroke-width: 0.405px"/>
          <line x1="239.8" y1="259" x2="395.7" y2="103.1" style="fill: none;stroke: #231815;stroke-miterlimit: 10;stroke-width: 0.405px"/>
          <line x1="239.8" y1="267.6" x2="395.7" y2="111.6" style="fill: none;stroke: #231815;stroke-miterlimit: 10;stroke-width: 0.405px"/>
          <line x1="239.8" y1="276.1" x2="395.7" y2="120.2" style="fill: none;stroke: #231815;stroke-miterlimit: 10;stroke-width: 0.405px"/>
          <line x1="239.8" y1="284.7" x2="395.7" y2="128.8" style="fill: none;stroke: #231815;stroke-miterlimit: 10;stroke-width: 0.405px"/>
          <line x1="239.8" y1="293.3" x2="395.7" y2="137.4" style="fill: none;stroke: #231815;stroke-miterlimit: 10;stroke-width: 0.405px"/>
          <line x1="239.8" y1="301.9" x2="395.7" y2="145.9" style="fill: none;stroke: #231815;stroke-miterlimit: 10;stroke-width: 0.405px"/>
          <line x1="239.8" y1="310.4" x2="395.7" y2="154.5" style="fill: none;stroke: #231815;stroke-miterlimit: 10;stroke-width: 0.405px"/>
          <line x1="239.8" y1="319" x2="395.7" y2="163.1" style="fill: none;stroke: #231815;stroke-miterlimit: 10;stroke-width: 0.405px"/>
          <line x1="239.8" y1="327.6" x2="395.7" y2="171.7" style="fill: none;stroke: #231815;stroke-miterlimit: 10;stroke-width: 0.405px"/>
          <line x1="239.8" y1="336.2" x2="395.7" y2="180.3" style="fill: none;stroke: #231815;stroke-miterlimit: 10;stroke-width: 0.405px"/>
          <line x1="239.8" y1="344.7" x2="395.7" y2="188.8" style="fill: none;stroke: #231815;stroke-miterlimit: 10;stroke-width: 0.405px"/>
          <line x1="239.8" y1="353.3" x2="395.7" y2="197.4" style="fill: none;stroke: #231815;stroke-miterlimit: 10;stroke-width: 0.405px"/>
          <line x1="239.8" y1="361.9" x2="395.7" y2="206" style="fill: none;stroke: #231815;stroke-miterlimit: 10;stroke-width: 0.405px"/>
          <line x1="239.8" y1="370.5" x2="395.7" y2="214.6" style="fill: none;stroke: #231815;stroke-miterlimit: 10;stroke-width: 0.405px"/>
          <line x1="239.8" y1="379.1" x2="395.7" y2="223.1" style="fill: none;stroke: #231815;stroke-miterlimit: 10;stroke-width: 0.405px"/>
          <line x1="239.8" y1="387.6" x2="395.7" y2="231.7" style="fill: none;stroke: #231815;stroke-miterlimit: 10;stroke-width: 0.405px"/>
          <line x1="239.8" y1="396.2" x2="395.7" y2="240.3" style="fill: none;stroke: #231815;stroke-miterlimit: 10;stroke-width: 0.405px"/>
          <line x1="239.8" y1="404.8" x2="395.7" y2="248.9" style="fill: none;stroke: #231815;stroke-miterlimit: 10;stroke-width: 0.405px"/>
          <line x1="239.8" y1="413.4" x2="395.7" y2="257.4" style="fill: none;stroke: #231815;stroke-miterlimit: 10;stroke-width: 0.405px"/>
          <line x1="239.8" y1="421.9" x2="395.7" y2="266" style="fill: none;stroke: #231815;stroke-miterlimit: 10;stroke-width: 0.405px"/>
          <line x1="239.8" y1="430.5" x2="395.7" y2="274.6" style="fill: none;stroke: #231815;stroke-miterlimit: 10;stroke-width: 0.405px"/>
          <line x1="239.8" y1="439.1" x2="395.7" y2="283.2" style="fill: none;stroke: #231815;stroke-miterlimit: 10;stroke-width: 0.405px"/>
        </g>
      </g>
    </g>
  </g>
</svg>
