<svg xmlns="http://www.w3.org/2000/svg" width="496.2" height="235" viewBox="0 0 496.2 235">
  <g>
    <polygon points="283.3 0.6 418.8 27.5 418.8 61.4 468.8 71.3 468.8 132.7 495 138.6 241.8 234.4 1.9 186.4 106.5 146.7 106.5 139.6 140.3 127 140.3 55.3 283.3 0.6" style="fill: #fff;opacity: 0.5"/>
    <g>
      <polygon points="494.3 138.4 241.8 234.4 1.9 186.4 254.4 90.5 494.3 138.4" style="fill: none;stroke: #231815;stroke-miterlimit: 10;stroke-width: 1.06908734536284px"/>
      <polygon points="468 148.6 242.4 234.3 28.2 191.4 253.7 105.7 468 148.6" style="fill: none;stroke: #231815;stroke-miterlimit: 10;stroke-width: 1.06908734536284px"/>
      <line x1="276.1" y1="81.5" x2="276.1" y2="176.2" style="fill: none;stroke: #231815;stroke-miterlimit: 10;stroke-width: 1.06908734536284px"/>
      <polygon points="417.9 27.5 276.1 81.5 141.3 54.5 283.2 0.6 417.9 27.5" style="fill: none;stroke: #231815;stroke-miterlimit: 10;stroke-width: 1.06908734536284px"/>
      <polygon points="417.9 122.3 276.1 176.2 141.3 149.2 283.2 95.3 417.9 122.3" style="fill: none;stroke: #231815;stroke-miterlimit: 10;stroke-width: 1.06908734536284px"/>
      <line x1="418.8" y1="27.5" x2="418.8" y2="122.3" style="fill: none;stroke: #231815;stroke-miterlimit: 10;stroke-width: 1.06908734536284px"/>
      <line x1="283.3" y1="0.6" x2="283.3" y2="95.3" style="fill: none;stroke: #231815;stroke-miterlimit: 10;stroke-width: 1.06908734536284px"/>
      <line x1="140.3" y1="54.6" x2="140.3" y2="149.3" style="fill: none;stroke: #231815;stroke-miterlimit: 10;stroke-width: 1.06908734536284px"/>
      <line x1="242.3" y1="166.5" x2="242.3" y2="187.7" style="fill: none;stroke: #231815;stroke-miterlimit: 10;stroke-width: 1.06908734536284px"/>
      <polygon points="384.2 112.5 242.3 166.5 107.5 139.5 249.4 85.6 384.2 112.5" style="fill: none;stroke: #231815;stroke-miterlimit: 10;stroke-width: 1.06908734536284px"/>
      <polygon points="384.2 180.3 242.3 234.2 107.5 207.3 249.4 153.3 384.2 180.3" style="fill: none;stroke: #231815;stroke-miterlimit: 10;stroke-width: 1.06908734536284px"/>
      <line x1="385" y1="112.5" x2="385" y2="180.3" style="fill: none;stroke: #231815;stroke-miterlimit: 10;stroke-width: 1.06908734536284px"/>
      <line x1="249.5" y1="85.6" x2="249.5" y2="153.3" style="fill: none;stroke: #231815;stroke-miterlimit: 10;stroke-width: 1.06908734536284px"/>
      <line x1="106.5" y1="139.6" x2="106.5" y2="207.4" style="fill: none;stroke: #231815;stroke-miterlimit: 10;stroke-width: 1.06908734536284px"/>
      <polygon points="467.9 71.3 326 125.2 191.2 98.2 333.1 44.3 467.9 71.3" style="fill: none;stroke: #231815;stroke-miterlimit: 10;stroke-width: 1.06908734536284px"/>
      <polygon points="467.9 148.5 326 202.4 191.2 175.4 333.1 121.5 467.9 148.5" style="fill: none;stroke: #231815;stroke-miterlimit: 10;stroke-width: 1.06908734536284px"/>
      <line x1="468.8" y1="71.3" x2="468.8" y2="148.5" style="fill: none;stroke: #231815;stroke-miterlimit: 10;stroke-width: 1.06908734536284px"/>
      <line x1="333.3" y1="44.3" x2="333.3" y2="121.5" style="fill: none;stroke: #231815;stroke-miterlimit: 10;stroke-width: 1.06908734536284px"/>
      <line x1="190.3" y1="98.3" x2="190.3" y2="175.5" style="fill: none;stroke: #231815;stroke-miterlimit: 10;stroke-width: 1.06908734536284px"/>
    </g>
  </g>
</svg>
