<svg xmlns="http://www.w3.org/2000/svg" width="497.2" height="394.5" viewBox="0 0 497.2 394.5">
  <g>
    <polygon points="497 27.7 497 366.9 458.9 366.9 458.9 394.3 0.2 394.3 0.2 0.2 458.9 0.2 458.9 27.7 497 27.7" style="fill: #fff;opacity: 0.5"/>
    <g>
      <rect x="4.2" y="42.3" width="453.9" height="317.92" style="fill: none;stroke: #231815;stroke-miterlimit: 10;stroke-width: 1.13686582930499px"/>
      <g>
        <path d="M479,217.7a1.3,1.3,0,0,0,.9-.4,1.1,1.1,0,0,0,.4-.9,1.3,1.3,0,0,0-.4-1,1.1,1.1,0,0,0-.8-.3,1.4,1.4,0,0,0-1.3,1.3,1.1,1.1,0,0,0,.4.9,1.2,1.2,0,0,0,.8.4Zm3.6.3.8-.2.6-.6a1.3,1.3,0,0,0,.3-.8,1.7,1.7,0,0,0-.5-1.2,1.5,1.5,0,0,0-1.1-.4,1.4,1.4,0,0,0-1.6,1.6,1.5,1.5,0,0,0,.4,1.1,1.6,1.6,0,0,0,1.1.5Zm-2-.5a1.5,1.5,0,0,1-.6.9,1.6,1.6,0,0,1-1,.2,2,2,0,0,1-1.4-.6,2.1,2.1,0,0,1-.6-1.6,2.4,2.4,0,0,1,.6-1.7,2,2,0,0,1,1.5-.6l.9.3a1.5,1.5,0,0,1,.6.9,2.4,2.4,0,0,1,.8-1.1,2,2,0,0,1,1.3-.4,2.3,2.3,0,0,1,1.7.7,2.9,2.9,0,0,1,.7,1.9,3.2,3.2,0,0,1-.7,1.9,2.9,2.9,0,0,1-1.8.7,2.1,2.1,0,0,1-1.2-.4,2.8,2.8,0,0,1-.8-1.1Z" style="fill: #231815"/>
        <path d="M484.9,206.2v.9h-6.1l.6,1a4.7,4.7,0,0,1,.5,1H479a8.5,8.5,0,0,0-.9-1.4,3.9,3.9,0,0,0-1.1-.9v-.6Z" style="fill: #231815"/>
        <path d="M484,198.6h.9v5.2h-.7a2.7,2.7,0,0,1-1-.6l-1.2-1.3a13.2,13.2,0,0,0-1.7-1.7,2.1,2.1,0,0,0-1.1-.5,1.8,1.8,0,0,0-1,.4,1.5,1.5,0,0,0-.4,1.1,1.6,1.6,0,0,0,.4,1.1,1.7,1.7,0,0,0,1.2.5v1a2.7,2.7,0,0,1-1.7-.8,2.8,2.8,0,0,1-.6-1.8,2.4,2.4,0,0,1,.6-1.8,2.6,2.6,0,0,1,1.6-.7l.9.2,1,.7,1.4,1.5,1,1.1.5.4v-3.9Z" style="fill: #231815"/>
        <path d="M481,196.6a5.1,5.1,0,0,0,2.6-.4,1.3,1.3,0,0,0,0-2.3,5.1,5.1,0,0,0-2.6-.4,5.4,5.4,0,0,0-2.6.4,1.4,1.4,0,0,0-.6,1.2,1.1,1.1,0,0,0,.6,1,4.2,4.2,0,0,0,2.6.5Zm0,1a6.9,6.9,0,0,1-2.2-.3,2.4,2.4,0,0,1-1.3-.8,2.5,2.5,0,0,1-.5-1.5,2.3,2.3,0,0,1,.3-1.1c.1-.3.4-.5.7-.8l1.2-.4a4.7,4.7,0,0,1,1.8-.2,7.1,7.1,0,0,1,2.3.3,2.9,2.9,0,0,1,1.3.8,2.4,2.4,0,0,1,.5,1.4,2,2,0,0,1-.9,1.8c-.6.6-1.7.8-3.2.8Z" style="fill: #231815"/>
      </g>
      <g>
        <path d="M68.9,385.5h1a2.4,2.4,0,0,0,.6,1.1,1.4,1.4,0,0,0,.9.3,1.3,1.3,0,0,0,1.2-.5,2,2,0,0,0,.5-1.4,1.5,1.5,0,0,0-.5-1.3,1.7,1.7,0,0,0-1.2-.5l-.8.2-.6.6h-.9l.7-4.1h4v1H70.6l-.4,2.1a2.3,2.3,0,0,1,1.5-.5,2.1,2.1,0,0,1,1.7.7,2.4,2.4,0,0,1,.7,1.8,3.1,3.1,0,0,1-.6,1.9,2.6,2.6,0,0,1-2.1.9,2.4,2.4,0,0,1-1.7-.6,2.3,2.3,0,0,1-.8-1.6Z" style="fill: #231815"/>
        <path d="M79.4,381.7a1.2,1.2,0,0,0,.3.9,1.8,1.8,0,0,0,1,.4,1.5,1.5,0,0,0,.9-.4,1.2,1.2,0,0,0,.3-.9,1.1,1.1,0,0,0-1.2-1.2,1.7,1.7,0,0,0-1,.3,1.6,1.6,0,0,0-.3.9Zm-.3,3.6a1.1,1.1,0,0,0,.2.8,1,1,0,0,0,.5.6,1.5,1.5,0,0,0,.9.2,1.5,1.5,0,0,0,1.1-.4,1.6,1.6,0,0,0,.5-1.1,1.7,1.7,0,0,0-.5-1.2,1.6,1.6,0,0,0-1.2-.4,1.4,1.4,0,0,0-1.5,1.5Zm.5-2a1.5,1.5,0,0,1-.9-.6,1.7,1.7,0,0,1-.3-1,1.8,1.8,0,0,1,.6-1.4,2.4,2.4,0,0,1,1.7-.6,2.3,2.3,0,0,1,1.6.6,2,2,0,0,1,.6,1.5,2.9,2.9,0,0,1-.2.9,1.5,1.5,0,0,1-.9.6,2.3,2.3,0,0,1,1.1.8,2.5,2.5,0,0,1,.4,1.3,2.4,2.4,0,0,1-.7,1.6,2.6,2.6,0,0,1-1.9.7,2.5,2.5,0,0,1-1.9-.7,2.1,2.1,0,0,1-.7-1.7,2,2,0,0,1,.4-1.3,2.3,2.3,0,0,1,1.1-.7Z" style="fill: #231815"/>
        <path d="M89.3,386.7v.9H84.1a1.7,1.7,0,0,1,.1-.7,2.7,2.7,0,0,1,.6-1,5.1,5.1,0,0,1,1.3-1.2,13.2,13.2,0,0,0,1.7-1.7,2.1,2.1,0,0,0,.5-1.1,1.4,1.4,0,0,0-.5-1,1.2,1.2,0,0,0-1-.4,1.2,1.2,0,0,0-1.1.4,1.7,1.7,0,0,0-.5,1.2h-1a2.7,2.7,0,0,1,.8-1.7,2.8,2.8,0,0,1,1.8-.6,2.4,2.4,0,0,1,1.8.6,2.4,2.4,0,0,1,.7,1.6,2.9,2.9,0,0,1-.2.9l-.7,1-1.5,1.4-1.1.9a2.1,2.1,0,0,0-.4.6Z" style="fill: #231815"/>
        <path d="M91.3,383.7a5.1,5.1,0,0,0,.4,2.6,1.4,1.4,0,0,0,1.1.6,1.4,1.4,0,0,0,1.2-.6,5.1,5.1,0,0,0,.4-2.6,5.4,5.4,0,0,0-.4-2.6,1.4,1.4,0,0,0-1.2-.6,1.1,1.1,0,0,0-1,.6c-.4.4-.5,1.3-.5,2.6Zm-1,0a6.5,6.5,0,0,1,.3-2.2,2.4,2.4,0,0,1,.8-1.3,1.9,1.9,0,0,1,1.4-.5l1.2.2.8.8a3.4,3.4,0,0,1,.4,1.2,4.4,4.4,0,0,1,.2,1.8,7.5,7.5,0,0,1-.3,2.3,2.9,2.9,0,0,1-.8,1.3,2.4,2.4,0,0,1-1.5.4,1.9,1.9,0,0,1-1.7-.8c-.6-.6-.8-1.7-.8-3.2Z" style="fill: #231815"/>
      </g>
      <g>
        <path d="M95.4,12.4h-1a1.6,1.6,0,0,0-.5-1.1,1.3,1.3,0,0,0-1-.4,1.7,1.7,0,0,0-1.2.5,2.4,2.4,0,0,0-.5,1.4,2.2,2.2,0,0,0,.5,1.4,1.6,1.6,0,0,0,1.2.4,1.1,1.1,0,0,0,.8-.2,1,1,0,0,0,.6-.5h.9l-.7,4H90.6v-.9h3.1l.4-2.1a2.5,2.5,0,0,1-1.5.5,2.8,2.8,0,0,1-1.7-.7,2.5,2.5,0,0,1-.7-1.9,2.8,2.8,0,0,1,.6-1.8,2.4,2.4,0,0,1,2.1-1,2.4,2.4,0,0,1,1.7.6,2.1,2.1,0,0,1,.8,1.6Z" style="fill: #231815"/>
        <path d="M85,16.3a1.3,1.3,0,0,0-.4-.9,1.1,1.1,0,0,0-.9-.4,1.3,1.3,0,0,0-1,.4,1.1,1.1,0,0,0-.3.8,1,1,0,0,0,.4.9,1,1,0,0,0,.9.4,1.2,1.2,0,0,0,.9-.4,1.2,1.2,0,0,0,.4-.8Zm.3-3.7a3.1,3.1,0,0,0-.2-.8l-.6-.6-.8-.2a1.7,1.7,0,0,0-1.2.5,1.4,1.4,0,0,0-.4,1.1,1.4,1.4,0,0,0,1.6,1.6,1.5,1.5,0,0,0,1.1-.4,1.7,1.7,0,0,0,.5-1.2Zm-.5,2a2.2,2.2,0,0,1,.9.7,2.4,2.4,0,0,1,.2.9,2,2,0,0,1-.6,1.5,2.1,2.1,0,0,1-1.6.6,2.4,2.4,0,0,1-1.7-.6,2,2,0,0,1-.6-1.5,1.2,1.2,0,0,1,.3-.9,2.2,2.2,0,0,1,.9-.7,2.4,2.4,0,0,1-1.2-.7,2.8,2.8,0,0,1-.3-1.3,2.2,2.2,0,0,1,.7-1.7,2.9,2.9,0,0,1,1.9-.7,2.7,2.7,0,0,1,1.8.7,2.3,2.3,0,0,1,.8,1.7,2.2,2.2,0,0,1-.4,1.3,1.9,1.9,0,0,1-1.1.7Z" style="fill: #231815"/>
        <path d="M75.1,11.3v-.9h5.2c0,.2-.1.4-.1.6l-.7,1.1-1.2,1.2a10.7,10.7,0,0,0-1.8,1.6,2.1,2.1,0,0,0-.4,1.2,1.3,1.3,0,0,0,.4,1,1.8,1.8,0,0,0,1.1.4,1.6,1.6,0,0,0,1.1-.5,1.2,1.2,0,0,0,.4-1.1h1a2.5,2.5,0,0,1-.8,1.7,2.4,2.4,0,0,1-1.8.6,2.4,2.4,0,0,1-1.8-.7,2,2,0,0,1-.6-1.5,1.5,1.5,0,0,1,.2-.9,2.1,2.1,0,0,1,.6-1l1.5-1.4a5.9,5.9,0,0,0,1.1-1l.4-.5Z" style="fill: #231815"/>
        <path d="M73.1,14.2a4.7,4.7,0,0,0-.5-2.5,1.3,1.3,0,0,0-1.1-.7,1.2,1.2,0,0,0-1.1.7,4.7,4.7,0,0,0-.5,2.5,4.9,4.9,0,0,0,.5,2.6,1.2,1.2,0,0,0,1.1.7,1.4,1.4,0,0,0,1.1-.6,5.6,5.6,0,0,0,.5-2.7Zm1,0a7.1,7.1,0,0,1-.3,2.3,2.5,2.5,0,0,1-.9,1.3,2.2,2.2,0,0,1-1.4.5,2,2,0,0,1-1.1-.3,2.7,2.7,0,0,1-.8-.7,3.3,3.3,0,0,1-.5-1.2,9.2,9.2,0,0,1-.2-1.9,6.9,6.9,0,0,1,.3-2.2,2.5,2.5,0,0,1,.9-1.3,2,2,0,0,1,1.4-.5,2.5,2.5,0,0,1,1.8.8,5.6,5.6,0,0,1,.8,3.2Z" style="fill: #231815"/>
      </g>
      <g>
        <path d="M157.6,382.3a1.7,1.7,0,0,0-.4-1.3,1.5,1.5,0,0,0-2.2,0,2.2,2.2,0,0,0-.5,1.4,1.6,1.6,0,0,0,.4,1.2,1.7,1.7,0,0,0,1.2.5,1.6,1.6,0,0,0,1.1-.5,1.7,1.7,0,0,0,.4-1.3Zm-4,3.5h1a1.9,1.9,0,0,0,.4.9,1.2,1.2,0,0,0,.9.3,1.4,1.4,0,0,0,1.3-.7,1.9,1.9,0,0,0,.4-.9,4.9,4.9,0,0,0,.1-1.2v-.2a1.4,1.4,0,0,1-.8.7,2,2,0,0,1-1.1.3,2,2,0,0,1-1.6-.7,2.3,2.3,0,0,1-.7-1.8,2.7,2.7,0,0,1,.7-2,2.4,2.4,0,0,1,1.8-.7,2.3,2.3,0,0,1,1.4.4,2.7,2.7,0,0,1,.9,1.2,4.3,4.3,0,0,1,.4,2.2,7.8,7.8,0,0,1-.3,2.4,3.9,3.9,0,0,1-1,1.4,2.8,2.8,0,0,1-1.5.4,2.1,2.1,0,0,1-1.6-.5,2.6,2.6,0,0,1-.7-1.4Z" style="fill: #231815"/>
        <path d="M160.6,383.7a5.1,5.1,0,0,0,.4,2.6,1.4,1.4,0,0,0,1.2.6,1.4,1.4,0,0,0,1.1-.6,5.1,5.1,0,0,0,.4-2.6,5.4,5.4,0,0,0-.4-2.6,1.4,1.4,0,0,0-1.1-.6,1.3,1.3,0,0,0-1.1.6,4.9,4.9,0,0,0-.5,2.6Zm-1,0a6.5,6.5,0,0,1,.3-2.2,3.2,3.2,0,0,1,.8-1.3,2,2,0,0,1,1.5-.5l1.1.2a3,3,0,0,1,.8.8,7.3,7.3,0,0,1,.5,1.2,8.7,8.7,0,0,1,.1,1.8,7.5,7.5,0,0,1-.3,2.3,2.2,2.2,0,0,1-.8,1.3,2.3,2.3,0,0,1-1.4.4,1.9,1.9,0,0,1-1.8-.8,5.1,5.1,0,0,1-.8-3.2Z" style="fill: #231815"/>
        <path d="M166.7,383.7a5.1,5.1,0,0,0,.4,2.6,1.4,1.4,0,0,0,1.2.6,1.4,1.4,0,0,0,1.1-.6,5.1,5.1,0,0,0,.4-2.6,5.4,5.4,0,0,0-.4-2.6,1.4,1.4,0,0,0-1.1-.6,1.3,1.3,0,0,0-1.1.6,4.9,4.9,0,0,0-.5,2.6Zm-1,0a6.5,6.5,0,0,1,.3-2.2,3.2,3.2,0,0,1,.8-1.3,2,2,0,0,1,1.5-.5l1.1.2a3,3,0,0,1,.8.8,7.3,7.3,0,0,1,.5,1.2,8.7,8.7,0,0,1,.1,1.8,14,14,0,0,1-.2,2.3,3,3,0,0,1-.9,1.3,2.3,2.3,0,0,1-1.4.4,1.9,1.9,0,0,1-1.8-.8,5.1,5.1,0,0,1-.8-3.2Z" style="fill: #231815"/>
      </g>
      <g>
        <path d="M166.7,16a1.7,1.7,0,0,0,.5,1.3,1.1,1.1,0,0,0,1,.5,1.5,1.5,0,0,0,1.2-.5,2,2,0,0,0,.4-1.4,1.5,1.5,0,0,0-1.5-1.7,1.4,1.4,0,0,0-1.1.5,1.9,1.9,0,0,0-.5,1.3Zm4-3.5h-.9a1.9,1.9,0,0,0-.5-.9,1.1,1.1,0,0,0-.8-.3l-.8.2c-.3.1-.4.3-.6.5l-.3,1a3.6,3.6,0,0,0-.2,1.1v.2a2.7,2.7,0,0,1,.8-.7,2,2,0,0,1,1.1-.3,2.2,2.2,0,0,1,1.7.7,2.9,2.9,0,0,1,.6,1.9,2.5,2.5,0,0,1-.7,1.9,2.1,2.1,0,0,1-1.7.7,2.1,2.1,0,0,1-1.4-.4,2.3,2.3,0,0,1-1-1.2,6.1,6.1,0,0,1-.3-2.2,7.8,7.8,0,0,1,.3-2.4,2.2,2.2,0,0,1,1-1.3,2,2,0,0,1,1.5-.5,2.5,2.5,0,0,1,1.5.5,2.1,2.1,0,0,1,.7,1.4Z" style="fill: #231815"/>
        <path d="M163.7,14.6a5.4,5.4,0,0,0-.4-2.6,1.4,1.4,0,0,0-1.1-.6,1.4,1.4,0,0,0-1.2.6,5.4,5.4,0,0,0-.4,2.6,5.1,5.1,0,0,0,.4,2.6,1.4,1.4,0,0,0,1.2.6,1.2,1.2,0,0,0,1-.5,4.6,4.6,0,0,0,.5-2.7Zm1,0a7.5,7.5,0,0,1-.3,2.3,2.2,2.2,0,0,1-.8,1.3,2.3,2.3,0,0,1-1.4.4l-1.1-.2a1.6,1.6,0,0,1-.8-.8,3.7,3.7,0,0,1-.5-1.1,9.2,9.2,0,0,1-.2-1.9,6.5,6.5,0,0,1,.3-2.2,3.2,3.2,0,0,1,.8-1.3,2,2,0,0,1,1.5-.5,2.5,2.5,0,0,1,1.8.8,5.4,5.4,0,0,1,.7,3.2Z" style="fill: #231815"/>
        <path d="M157.6,14.6a5.4,5.4,0,0,0-.4-2.6,1.4,1.4,0,0,0-1.1-.6,1.4,1.4,0,0,0-1.2.6,5.4,5.4,0,0,0-.4,2.6,5.1,5.1,0,0,0,.4,2.6,1.4,1.4,0,0,0,1.2.6,1.2,1.2,0,0,0,1-.5,4.6,4.6,0,0,0,.5-2.7Zm1,0a7.5,7.5,0,0,1-.3,2.3,2.2,2.2,0,0,1-.8,1.3,2.3,2.3,0,0,1-1.4.4l-1.1-.2a1.6,1.6,0,0,1-.8-.8,3.7,3.7,0,0,1-.5-1.1,9.2,9.2,0,0,1-.2-1.9,6.5,6.5,0,0,1,.3-2.2,3.2,3.2,0,0,1,.8-1.3,2,2,0,0,1,1.5-.5,2.5,2.5,0,0,1,1.8.8,5.4,5.4,0,0,1,.7,3.2Z" style="fill: #231815"/>
      </g>
      <g>
        <path d="M309.6,381.7a1.2,1.2,0,0,0,.3.9,1.8,1.8,0,0,0,1,.4,1.8,1.8,0,0,0,.9-.4,1.2,1.2,0,0,0,.3-.9,1.1,1.1,0,0,0-1.2-1.2,1.7,1.7,0,0,0-1,.3,1.6,1.6,0,0,0-.3.9Zm-.3,3.6a1.1,1.1,0,0,0,.2.8,1,1,0,0,0,.5.6,1.5,1.5,0,0,0,.9.2,1.5,1.5,0,0,0,1.1-.4,1.6,1.6,0,0,0,.5-1.1,1.7,1.7,0,0,0-.5-1.2,1.6,1.6,0,0,0-1.2-.4,1.4,1.4,0,0,0-1.5,1.5Zm.5-2a1.5,1.5,0,0,1-.9-.6,1.7,1.7,0,0,1-.3-1,1.8,1.8,0,0,1,.6-1.4,2.3,2.3,0,0,1,1.6-.6,2.4,2.4,0,0,1,1.7.6,2,2,0,0,1,.6,1.5,1.6,1.6,0,0,1-.3.9,1,1,0,0,1-.8.6,2.3,2.3,0,0,1,1.1.8,2.5,2.5,0,0,1,.4,1.3,2.1,2.1,0,0,1-.8,1.6,2.3,2.3,0,0,1-1.8.7,2.5,2.5,0,0,1-1.9-.7,2.1,2.1,0,0,1-.7-1.7,2,2,0,0,1,.4-1.3,2.3,2.3,0,0,1,1.1-.7Z" style="fill: #231815"/>
        <path d="M321.1,387.6h-1v-6.2a2.2,2.2,0,0,1-.9.7l-1,.5v-.9a7.1,7.1,0,0,0,1.4-1,2.4,2.4,0,0,0,.8-1h.7v7.9Z" style="fill: #231815"/>
        <path d="M328.6,386.7v.9h-5.2a1.7,1.7,0,0,1,.1-.7,5.3,5.3,0,0,1,.6-1,7.7,7.7,0,0,1,1.3-1.2,8.8,8.8,0,0,0,1.7-1.7,2.1,2.1,0,0,0,.5-1.1,1.3,1.3,0,0,0-.4-1,1.7,1.7,0,0,0-2.2,0,1.6,1.6,0,0,0-.4,1.2h-1a2.2,2.2,0,0,1,.7-1.7,2.8,2.8,0,0,1,1.8-.6,2.4,2.4,0,0,1,1.8.6,2,2,0,0,1,.7,1.6,2.9,2.9,0,0,1-.2.9,3.7,3.7,0,0,1-.6,1l-1.5,1.4-1.2.9-.4.6Z" style="fill: #231815"/>
        <path d="M330.6,383.7a4.9,4.9,0,0,0,.5,2.6,1.3,1.3,0,0,0,1.1.6,1.4,1.4,0,0,0,1.1-.6,4.9,4.9,0,0,0,.5-2.6,5.1,5.1,0,0,0-.5-2.6,1.4,1.4,0,0,0-1.1-.6,1.3,1.3,0,0,0-1.1.6,4.9,4.9,0,0,0-.5,2.6Zm-1,0a6.5,6.5,0,0,1,.3-2.2,2.5,2.5,0,0,1,.9-1.3,1.6,1.6,0,0,1,1.4-.5l1.1.2.8.8a3.3,3.3,0,0,1,.5,1.2,7.4,7.4,0,0,1,.2,1.8,7.5,7.5,0,0,1-.3,2.3,3,3,0,0,1-.9,1.3,2.1,2.1,0,0,1-1.4.4,1.9,1.9,0,0,1-1.8-.8,5.1,5.1,0,0,1-.8-3.2Z" style="fill: #231815"/>
      </g>
      <g>
        <path d="M333.4,16.6a1.6,1.6,0,0,0-.3-.9l-.9-.3a1.7,1.7,0,0,0-1,.3,1.4,1.4,0,0,0-.3.9,1.6,1.6,0,0,0,.3.9,1.7,1.7,0,0,0,1,.3,1.6,1.6,0,0,0,.9-.3,1.4,1.4,0,0,0,.3-.9Zm.4-3.6a2.4,2.4,0,0,0-.2-.8l-.6-.6-.9-.2a1.5,1.5,0,0,0-1.1.4,1.6,1.6,0,0,0-.4,1.2,1.5,1.5,0,0,0,.4,1.1,1.7,1.7,0,0,0,1.2.5,1.7,1.7,0,0,0,1.6-1.6Zm-.5,2a1.3,1.3,0,0,1,.8.6,1.9,1.9,0,0,1-.3,2.4,2.1,2.1,0,0,1-1.6.6,2.4,2.4,0,0,1-1.7-.6,2,2,0,0,1-.6-1.4,1.7,1.7,0,0,1,.3-1,2.4,2.4,0,0,1,.8-.6,2.8,2.8,0,0,1-1.1-.8,2.1,2.1,0,0,1-.3-1.2,2.1,2.1,0,0,1,.7-1.7,2.5,2.5,0,0,1,1.9-.7,2.3,2.3,0,0,1,1.8.7,2.1,2.1,0,0,1,.8,1.7,2.8,2.8,0,0,1-.4,1.3,2.6,2.6,0,0,1-1.1.7Z" style="fill: #231815"/>
        <path d="M322,10.7h.9v6.2l.9-.7,1.1-.5v1a3.8,3.8,0,0,0-1.5.9,2.4,2.4,0,0,0-.8,1H322V10.7Z" style="fill: #231815"/>
        <path d="M314.4,11.7v-1h5.2a1.5,1.5,0,0,1-.1.7,2.7,2.7,0,0,1-.6,1,5.1,5.1,0,0,1-1.3,1.2l-1.7,1.7a2.1,2.1,0,0,0-.5,1.2,1.3,1.3,0,0,0,.4.9,1.5,1.5,0,0,0,1.1.4,1.4,1.4,0,0,0,1.1-.4,1.5,1.5,0,0,0,.4-1.1h1a2,2,0,0,1-.7,1.6,2.8,2.8,0,0,1-1.8.6,2.4,2.4,0,0,1-1.8-.6,1.9,1.9,0,0,1-.7-1.6,2.9,2.9,0,0,1,.2-.9l.7-.9a10.8,10.8,0,0,1,1.5-1.4l1.1-1,.4-.5Z" style="fill: #231815"/>
        <path d="M312.4,14.6A5.4,5.4,0,0,0,312,12a1.4,1.4,0,0,0-1.2-.6,1.4,1.4,0,0,0-1.1.6,5.4,5.4,0,0,0-.4,2.6,5.1,5.1,0,0,0,.4,2.6,1.4,1.4,0,0,0,1.1.6,1.4,1.4,0,0,0,1.1-.5,5.6,5.6,0,0,0,.5-2.7Zm1,0a7.5,7.5,0,0,1-.3,2.3,4.1,4.1,0,0,1-.8,1.3,2.4,2.4,0,0,1-1.5.4l-1.1-.2a2,2,0,0,1-.8-.8,11.7,11.7,0,0,1-.5-1.1,10.3,10.3,0,0,1-.1-1.9,11.8,11.8,0,0,1,.2-2.2,2.5,2.5,0,0,1,.9-1.3,1.9,1.9,0,0,1,1.4-.5,2.2,2.2,0,0,1,1.8.8,5.4,5.4,0,0,1,.8,3.2Z" style="fill: #231815"/>
      </g>
      <g>
        <path d="M.3,389.3h4c.1,0,.2,0,.2-.1H.2a.1.1,0,0,0,.1.1" style="fill: #231815;stroke: #231815;stroke-miterlimit: 10;stroke-width: 0.405px"/>
        <path d="M4.3,389.3H160c.1,0,.1,0,.1-.1H4.2a.1.1,0,0,0,.1.1" style="fill: #231815;stroke: #231815;stroke-miterlimit: 10;stroke-width: 0.405px"/>
        <path d="M6.9,386.4l-5.3,5.4c-.1,0-.1.1,0,.2h.1l5.4-5.4v-.2H6.9" style="fill: #231815;stroke: #231815;stroke-miterlimit: 10;stroke-width: 0.405px"/>
        <path d="M4.5,394.2v-10H4.2v10a.1.1,0,0,0,.1.1c.1,0,.2,0,.2-.1" style="fill: #231815;stroke: #231815;stroke-miterlimit: 10;stroke-width: 0.405px"/>
        <path d="M146.8,394.2v-10h-.3v10a.1.1,0,0,0,.1.1c.1,0,.2,0,.2-.1" style="fill: #231815;stroke: #231815;stroke-miterlimit: 10;stroke-width: 0.405px"/>
        <path d="M160,389.3H317.8c.1,0,.2,0,.2-.1H159.9c0,.1,0,.1.1.1" style="fill: #231815;stroke: #231815;stroke-miterlimit: 10;stroke-width: 0.405px"/>
        <path d="M149.2,386.4l-5.3,5.4c-.1,0-.1.1,0,.2h.2l5.3-5.4c.1,0,.1-.1,0-.2h-.2" style="fill: #231815;stroke: #231815;stroke-miterlimit: 10;stroke-width: 0.405px"/>
        <path d="M177.6,394.2v-10h-.3v10a.1.1,0,0,0,.1.1c.1,0,.2,0,.2-.1" style="fill: #231815;stroke: #231815;stroke-miterlimit: 10;stroke-width: 0.405px"/>
        <path d="M317.8,389.3h137c.1,0,.1,0,.1-.1H317.7a.1.1,0,0,0,.1.1" style="fill: #231815;stroke: #231815;stroke-miterlimit: 10;stroke-width: 0.405px"/>
        <path d="M180,386.4l-5.3,5.4c-.1,0-.1.1,0,.2h.1l5.4-5.4v-.2H180" style="fill: #231815;stroke: #231815;stroke-miterlimit: 10;stroke-width: 0.405px"/>
        <path d="M452.2,392l5.4-5.4v-.2h-.2l-5.4,5.4v.2h.2" style="fill: #231815;stroke: #231815;stroke-miterlimit: 10;stroke-width: 0.405px"/>
        <path d="M454.8,389.3h4c.1,0,.1,0,.1-.1h-4.2c0,.1,0,.1.1.1" style="fill: #231815;stroke: #231815;stroke-miterlimit: 10;stroke-width: 0.405px"/>
        <path d="M454.9,394.2v-10h-.2v10c0,.1,0,.1.1.1s.1,0,.1-.1" style="fill: #231815;stroke: #231815;stroke-miterlimit: 10;stroke-width: 0.405px"/>
        <path d="M4.2,367v8.2a.1.1,0,0,0,.1.1c.1,0,.2,0,.2-.1V367c0-.1-.1-.1-.2-.1a.1.1,0,0,0-.1.1" style="fill: #231815;stroke: #231815;stroke-miterlimit: 10;stroke-width: 0.405px"/>
        <path d="M4.2,375.2v9.5h.3v-9.5H4.2" style="fill: #231815;stroke: #231815;stroke-miterlimit: 10;stroke-width: 0.405px"/>
        <path d="M4.3,384.8c.1,0,.1,0,.1-.1h0c0-.1,0-.1-.1-.1h0" style="fill: #231815;stroke: #231815;stroke-miterlimit: 10;stroke-width: 0.405px"/>
        <path d="M4.3,384.8c.1,0,.1,0,.1-.1h0c0-.1,0-.1-.1-.1h0" style="fill: #231815;stroke: #231815;stroke-miterlimit: 10;stroke-width: 0.405px"/>
        <path d="M4.2,384.7v9.4h.3v-9.4a.2.2,0,0,0-.2-.2v.2" style="fill: #231815;stroke: #231815;stroke-miterlimit: 10;stroke-width: 0.405px"/>
        <path d="M146.5,367v8.2a.1.1,0,0,0,.1.1c.1,0,.2,0,.2-.1V367c0-.1-.1-.1-.2-.1a.1.1,0,0,0-.1.1" style="fill: #231815;stroke: #231815;stroke-miterlimit: 10;stroke-width: 0.405px"/>
        <path d="M146.5,375.2v9.5h.3v-9.5h-.3" style="fill: #231815;stroke: #231815;stroke-miterlimit: 10;stroke-width: 0.405px"/>
        <path d="M146.6,384.8c.1,0,.1,0,.1-.1h0c0-.1,0-.1-.1-.1h0" style="fill: #231815;stroke: #231815;stroke-miterlimit: 10;stroke-width: 0.405px"/>
        <path d="M146.6,384.8c.1,0,.1,0,.1-.1h0c0-.1,0-.1-.1-.1h0" style="fill: #231815;stroke: #231815;stroke-miterlimit: 10;stroke-width: 0.405px"/>
        <path d="M146.5,384.7v9.4h.3v-9.4l-.2-.2v.2" style="fill: #231815;stroke: #231815;stroke-miterlimit: 10;stroke-width: 0.405px"/>
        <path d="M177.3,367v8.2a.1.1,0,0,0,.1.1c.1,0,.2,0,.2-.1V367c0-.1-.1-.1-.2-.1a.1.1,0,0,0-.1.1" style="fill: #231815;stroke: #231815;stroke-miterlimit: 10;stroke-width: 0.405px"/>
        <path d="M177.3,375.2v9.5h.3v-9.5h-.3" style="fill: #231815;stroke: #231815;stroke-miterlimit: 10;stroke-width: 0.405px"/>
        <path d="M177.4,384.8c.1,0,.1,0,.1-.1h0c0-.1,0-.1-.1-.1h0" style="fill: #231815;stroke: #231815;stroke-miterlimit: 10;stroke-width: 0.405px"/>
        <path d="M177.4,384.8c.1,0,.1,0,.1-.1h0c0-.1,0-.1-.1-.1h0" style="fill: #231815;stroke: #231815;stroke-miterlimit: 10;stroke-width: 0.405px"/>
        <path d="M177.3,384.7v9.4h.3v-9.4a.2.2,0,0,0-.2-.2v.2" style="fill: #231815;stroke: #231815;stroke-miterlimit: 10;stroke-width: 0.405px"/>
        <path d="M454.7,367v8.2c0,.1,0,.1.1.1s.1,0,.1-.1V367c0-.1,0-.1-.1-.1s-.1,0-.1.1" style="fill: #231815;stroke: #231815;stroke-miterlimit: 10;stroke-width: 0.405px"/>
        <path d="M454.7,375.2v9.5a.1.1,0,1,0,.2,0v-9.5h-.2" style="fill: #231815;stroke: #231815;stroke-miterlimit: 10;stroke-width: 0.405px"/>
        <path d="M454.8,384.8a.1.1,0,0,0,.1-.1h0a.1.1,0,1,0-.2,0h0a.1.1,0,0,0,.1.1" style="fill: #231815;stroke: #231815;stroke-miterlimit: 10;stroke-width: 0.405px"/>
        <path d="M454.8,384.8a.1.1,0,0,0,.1-.1h0a.1.1,0,1,0-.2,0h0a.1.1,0,0,0,.1.1" style="fill: #231815;stroke: #231815;stroke-miterlimit: 10;stroke-width: 0.405px"/>
        <path d="M454.7,384.7v9.4h.2v-9.4c0-.1,0-.2-.1-.2s-.1.1-.1.2" style="fill: #231815;stroke: #231815;stroke-miterlimit: 10;stroke-width: 0.405px"/>
      </g>
      <g>
        <path d="M458.8,5.2h-4.1c0,.1,0,.2.1.2h4c.1,0,.1-.1.1-.2h-.1" style="fill: #231815;stroke: #231815;stroke-miterlimit: 10;stroke-width: 0.405px"/>
        <path d="M454.8,5.2H299c0,.1,0,.2.1.2H454.8c.1,0,.1-.1.1-.2h-.1" style="fill: #231815;stroke: #231815;stroke-miterlimit: 10;stroke-width: 0.405px"/>
        <path d="M452.2,8.1l5.4-5.3V2.6c-.1-.1-.2-.1-.2,0L452,7.9v.2h.2" style="fill: #231815;stroke: #231815;stroke-miterlimit: 10;stroke-width: 0.405px"/>
        <path d="M454.7.3V10.4h.2V.3h-.2" style="fill: #231815;stroke: #231815;stroke-miterlimit: 10;stroke-width: 0.405px"/>
        <path d="M177.3.3V10.4h.3V.3h-.3" style="fill: #231815;stroke: #231815;stroke-miterlimit: 10;stroke-width: 0.405px"/>
        <path d="M299.1,5.2H141.2c0,.1,0,.2.1.2H299.1c.1,0,.1-.1.1-.2h-.1" style="fill: #231815;stroke: #231815;stroke-miterlimit: 10;stroke-width: 0.405px"/>
        <path d="M174.8,8.1l5.4-5.3V2.6c-.1-.1-.1-.1-.2,0l-5.3,5.3c-.1.1-.1.2,0,.2h.1" style="fill: #231815;stroke: #231815;stroke-miterlimit: 10;stroke-width: 0.405px"/>
        <path d="M146.4.3V10.4h.2V.3h-.2" style="fill: #231815;stroke: #231815;stroke-miterlimit: 10;stroke-width: 0.405px"/>
        <path d="M141.3,5.2H4.2a.3.3,0,0,0,.1.2h137c.1,0,.1-.1.1-.2h-.1" style="fill: #231815;stroke: #231815;stroke-miterlimit: 10;stroke-width: 0.405px"/>
        <path d="M143.9,8.1l5.4-5.3V2.6c-.1-.1-.2-.1-.2,0l-5.4,5.3v.2h.2" style="fill: #231815;stroke: #231815;stroke-miterlimit: 10;stroke-width: 0.405px"/>
        <path d="M6.9,2.6,1.6,7.9c-.1.1-.1.2,0,.2h.1L7.1,2.8V2.6c-.1-.1-.1-.1-.2,0" style="fill: #231815;stroke: #231815;stroke-miterlimit: 10;stroke-width: 0.405px"/>
        <path d="M4.3,5.2H.2a.3.3,0,0,0,.1.2h4a.2.2,0,0,0,.2-.2H4.3" style="fill: #231815;stroke: #231815;stroke-miterlimit: 10;stroke-width: 0.405px"/>
        <path d="M4.2.3V10.4h.3V.3H4.2" style="fill: #231815;stroke: #231815;stroke-miterlimit: 10;stroke-width: 0.405px"/>
        <path d="M454.9,27.6V19.3a.1.1,0,0,0-.2,0v8.3h.2" style="fill: #231815;stroke: #231815;stroke-miterlimit: 10;stroke-width: 0.405px"/>
        <path d="M454.9,19.3V9.9h-.2v9.4h.2" style="fill: #231815;stroke: #231815;stroke-miterlimit: 10;stroke-width: 0.405px"/>
        <path d="M454.8,9.8h0" style="fill: #231815;stroke: #231815;stroke-miterlimit: 10;stroke-width: 0.405px"/>
        <path d="M454.8,9.8h0" style="fill: #231815;stroke: #231815;stroke-miterlimit: 10;stroke-width: 0.405px"/>
        <path d="M454.9,9.9V.5c0-.1,0-.2-.1-.2s-.1.1-.1.2V9.9h.2" style="fill: #231815;stroke: #231815;stroke-miterlimit: 10;stroke-width: 0.405px"/>
        <path d="M177.6,27.6V19.3h-.3v8.3h.3" style="fill: #231815;stroke: #231815;stroke-miterlimit: 10;stroke-width: 0.405px"/>
        <path d="M177.6,19.3V9.9h-.3v9.4h.3" style="fill: #231815;stroke: #231815;stroke-miterlimit: 10;stroke-width: 0.405px"/>
        <path d="M177.4,9.8h0" style="fill: #231815;stroke: #231815;stroke-miterlimit: 10;stroke-width: 0.405px"/>
        <path d="M177.4,9.8h0" style="fill: #231815;stroke: #231815;stroke-miterlimit: 10;stroke-width: 0.405px"/>
        <path d="M177.6,9.9V.5a.2.2,0,0,0-.2-.2V9.9h.3" style="fill: #231815;stroke: #231815;stroke-miterlimit: 10;stroke-width: 0.405px"/>
        <path d="M146.6,27.6V19.3a.1.1,0,1,0-.2,0v8.3h.2" style="fill: #231815;stroke: #231815;stroke-miterlimit: 10;stroke-width: 0.405px"/>
        <path d="M146.6,19.3V9.9h-.2v9.4h.2" style="fill: #231815;stroke: #231815;stroke-miterlimit: 10;stroke-width: 0.405px"/>
        <path d="M146.5,9.8h0" style="fill: #231815;stroke: #231815;stroke-miterlimit: 10;stroke-width: 0.405px"/>
        <path d="M146.5,9.8h0" style="fill: #231815;stroke: #231815;stroke-miterlimit: 10;stroke-width: 0.405px"/>
        <path d="M146.6,9.9V.5c0-.1,0-.2-.1-.2s-.1.1-.1.2V9.9h.2" style="fill: #231815;stroke: #231815;stroke-miterlimit: 10;stroke-width: 0.405px"/>
        <path d="M4.5,27.6V19.3H4.2v8.3h.3" style="fill: #231815;stroke: #231815;stroke-miterlimit: 10;stroke-width: 0.405px"/>
        <path d="M4.5,19.3V9.9H4.2v9.4h.3" style="fill: #231815;stroke: #231815;stroke-miterlimit: 10;stroke-width: 0.405px"/>
        <path d="M4.3,9.8h0" style="fill: #231815;stroke: #231815;stroke-miterlimit: 10;stroke-width: 0.405px"/>
        <path d="M4.3,9.8h0" style="fill: #231815;stroke: #231815;stroke-miterlimit: 10;stroke-width: 0.405px"/>
        <path d="M4.5,9.9V.5A.2.2,0,0,0,4.3.3V9.9h.3" style="fill: #231815;stroke: #231815;stroke-miterlimit: 10;stroke-width: 0.405px"/>
      </g>
      <g>
        <path d="M492,363.6v-4.1a.1.1,0,1,0-.2,0v4.1h.2" style="fill: #231815;stroke: #231815;stroke-miterlimit: 10;stroke-width: 0.405px"/>
        <path d="M489.1,357l5.4,5.3h.1c.1,0,.1-.1,0-.2l-5.3-5.3c-.1-.1-.1-.1-.2,0v.2" style="fill: #231815;stroke: #231815;stroke-miterlimit: 10;stroke-width: 0.405px"/>
        <path d="M496.9,359.4h-10a.1.1,0,0,0-.1.1c0,.1,0,.2.1.2h10c.1,0,.1-.1.1-.2a.1.1,0,0,0-.1-.1" style="fill: #231815;stroke: #231815;stroke-miterlimit: 10;stroke-width: 0.405px"/>
        <path d="M496.9,345.7h-10a.1.1,0,0,0-.1.1H497a.1.1,0,0,0-.1-.1" style="fill: #231815;stroke: #231815;stroke-miterlimit: 10;stroke-width: 0.405px"/>
        <path d="M492,359.6v-181c0-.1,0-.2-.1-.2s-.1.1-.1.2v181h.2" style="fill: #231815;stroke: #231815;stroke-miterlimit: 10;stroke-width: 0.405px"/>
        <path d="M489.1,343.2l5.4,5.4h.1c.1-.1.1-.1,0-.2l-5.3-5.3c-.1-.1-.1-.1-.2,0h0" style="fill: #231815;stroke: #231815;stroke-miterlimit: 10;stroke-width: 0.405px"/>
        <path d="M496.9,332.3H486.8c0,.1,0,.2.1.2h10c.1,0,.1-.1.1-.2h-.1" style="fill: #231815;stroke: #231815;stroke-miterlimit: 10;stroke-width: 0.405px"/>
        <path d="M492,178.6V41.6c0-.1,0-.1-.1-.1s-.1,0-.1.1v137h.2" style="fill: #231815;stroke: #231815;stroke-miterlimit: 10;stroke-width: 0.405px"/>
        <path d="M489.1,329.9l5.4,5.3c0,.1.1.1.1,0s.1-.1,0-.2l-5.3-5.3h-.2v.2" style="fill: #231815;stroke: #231815;stroke-miterlimit: 10;stroke-width: 0.405px"/>
        <path d="M494.6,44.2l-5.3-5.3c-.1-.1-.1-.1-.2,0h0l5.4,5.4h.1c.1-.1.1-.1,0-.2" style="fill: #231815;stroke: #231815;stroke-miterlimit: 10;stroke-width: 0.405px"/>
        <path d="M492,41.6v-4c0-.1,0-.1-.1-.1s-.1,0-.1.1v4c0,.1,0,.1.1.1s.1,0,.1-.1" style="fill: #231815;stroke: #231815;stroke-miterlimit: 10;stroke-width: 0.405px"/>
        <path d="M496.9,41.5h-10c-.1,0-.1,0-.1.1s0,.1.1.1h10c.1,0,.1,0,.1-.1s0-.1-.1-.1" style="fill: #231815;stroke: #231815;stroke-miterlimit: 10;stroke-width: 0.405px"/>
        <path d="M469.7,359.7h8.2c.1,0,.1-.1.1-.2a.1.1,0,0,0-.1-.1h-8.4a.2.2,0,0,0,.2.2" style="fill: #231815;stroke: #231815;stroke-miterlimit: 10;stroke-width: 0.405px"/>
        <path d="M477.9,359.7h9.4a.2.2,0,0,0,.2-.2h-9.6a.1.1,0,0,0-.1.1c0,.1,0,.2.1.2" style="fill: #231815;stroke: #231815;stroke-miterlimit: 10;stroke-width: 0.405px"/>
        <path d="M487.5,359.5h-.1c0-.1,0-.1-.1-.1h.1a.1.1,0,0,0,.1-.1" style="fill: #231815;stroke: #231815;stroke-miterlimit: 10;stroke-width: 0.405px"/>
        <path d="M487.5,359.5h-.1c0-.1,0-.1-.1-.1h.1a.1.1,0,0,0,.1-.1" style="fill: #231815;stroke: #231815;stroke-miterlimit: 10;stroke-width: 0.405px"/>
        <path d="M487.3,359.7h9.5a.3.3,0,0,0,.1-.2h-9.7a.3.3,0,0,0,.1.2" style="fill: #231815;stroke: #231815;stroke-miterlimit: 10;stroke-width: 0.405px"/>
        <path d="M469.7,345.9H478a.1.1,0,0,0-.1-.1h-8.2" style="fill: #231815;stroke: #231815;stroke-miterlimit: 10;stroke-width: 0.405px"/>
        <path d="M477.9,345.9h0a.1.1,0,0,0-.1.1h.1" style="fill: #231815;stroke: #231815;stroke-miterlimit: 10;stroke-width: 0.405px"/>
        <path d="M487.5,345.8a.1.1,0,0,1-.1-.1h.1" style="fill: #231815;stroke: #231815;stroke-miterlimit: 10;stroke-width: 0.405px"/>
        <path d="M487.5,345.8a.1.1,0,0,1-.1-.1h.1" style="fill: #231815;stroke: #231815;stroke-miterlimit: 10;stroke-width: 0.405px"/>
        <path d="M487.3,345.9h0" style="fill: #231815;stroke: #231815;stroke-miterlimit: 10;stroke-width: 0.405px"/>
        <path d="M469.7,332.6h8.2c.1,0,.1-.1.1-.2h-8.5a.2.2,0,0,0,.2.2" style="fill: #231815;stroke: #231815;stroke-miterlimit: 10;stroke-width: 0.405px"/>
        <path d="M477.9,332.6h9.4a.2.2,0,0,0,.2-.2h-9.7c0,.1,0,.2.1.2" style="fill: #231815;stroke: #231815;stroke-miterlimit: 10;stroke-width: 0.405px"/>
        <path d="M487.5,332.4h-.2c.1,0,.1,0,.1-.1a.1.1,0,0,0,.1-.1" style="fill: #231815;stroke: #231815;stroke-miterlimit: 10;stroke-width: 0.405px"/>
        <path d="M487.5,332.4h-.2c.1,0,.1,0,.1-.1a.1.1,0,0,0,.1-.1" style="fill: #231815;stroke: #231815;stroke-miterlimit: 10;stroke-width: 0.405px"/>
        <path d="M487.3,332.6h9.5a.3.3,0,0,0,.1-.2h-9.7a.3.3,0,0,0,.1.2" style="fill: #231815;stroke: #231815;stroke-miterlimit: 10;stroke-width: 0.405px"/>
        <path d="M469.7,41.7h8.2c.1,0,.1,0,.1-.1s0-.1-.1-.1h-8.2c-.1,0-.2,0-.2.1s.1.1.2.1" style="fill: #231815;stroke: #231815;stroke-miterlimit: 10;stroke-width: 0.405px"/>
        <path d="M477.9,41.7h9.4c.1,0,.2,0,.2-.1s-.1-.1-.2-.1h-9.4c-.1,0-.1,0-.1.1s0,.1.1.1" style="fill: #231815;stroke: #231815;stroke-miterlimit: 10;stroke-width: 0.405px"/>
        <path d="M487.5,41.6a.1.1,0,0,1-.1-.1h.1" style="fill: #231815;stroke: #231815;stroke-miterlimit: 10;stroke-width: 0.405px"/>
        <path d="M487.5,41.6a.1.1,0,0,1-.1-.1h.1" style="fill: #231815;stroke: #231815;stroke-miterlimit: 10;stroke-width: 0.405px"/>
        <path d="M487.3,41.7h9.5a.1.1,0,0,0,0-.2h-9.5a.1.1,0,1,0,0,.2" style="fill: #231815;stroke: #231815;stroke-miterlimit: 10;stroke-width: 0.405px"/>
        <path d="M494.6,78.8l-5.3-5.4h-.2v.2l5.4,5.3h.1c.1,0,.1-.1,0-.1" style="fill: #231815;stroke: #231815;stroke-miterlimit: 10;stroke-width: 0.405px"/>
        <path d="M492,76.2v-4c0-.1,0-.2-.1-.2s-.1.1-.1.2v4h.2" style="fill: #231815;stroke: #231815;stroke-miterlimit: 10;stroke-width: 0.405px"/>
        <path d="M496.9,76.1h-10c-.1,0-.1,0-.1.1H497c0-.1,0-.1-.1-.1" style="fill: #231815;stroke: #231815;stroke-miterlimit: 10;stroke-width: 0.405px"/>
        <path d="M469.7,76.3H478c0-.1,0-.1-.1-.1h-8.2c-.1,0-.2,0-.2.1h.2" style="fill: #231815;stroke: #231815;stroke-miterlimit: 10;stroke-width: 0.405px"/>
        <path d="M477.9,76.3h9.6c0-.1-.1-.1-.2-.1h-9.4c-.1,0-.1,0-.1.1h.1" style="fill: #231815;stroke: #231815;stroke-miterlimit: 10;stroke-width: 0.405px"/>
        <path d="M487.5,76.2a.1.1,0,0,0-.1-.1h.1" style="fill: #231815;stroke: #231815;stroke-miterlimit: 10;stroke-width: 0.405px"/>
        <path d="M487.5,76.2a.1.1,0,0,0-.1-.1h.1" style="fill: #231815;stroke: #231815;stroke-miterlimit: 10;stroke-width: 0.405px"/>
        <path d="M487.3,76.3h9.6a.1.1,0,0,0-.1-.1h-9.5a.1.1,0,0,0-.1.1h.1" style="fill: #231815;stroke: #231815;stroke-miterlimit: 10;stroke-width: 0.405px"/>
      </g>
      <polyline points="4.2 56.7 444.2 56.7 444.2 345.8 4.2 345.8" style="fill: none;stroke: #231815;stroke-miterlimit: 10;stroke-width: 1.13686582930499px"/>
      <line x1="146.6" y1="56.7" x2="146.6" y2="345.8" style="fill: none;stroke: #231815;stroke-miterlimit: 10;stroke-width: 1.13686582930499px"/>
      <line x1="177.4" y1="56.7" x2="177.4" y2="345.8" style="fill: none;stroke: #231815;stroke-miterlimit: 10;stroke-width: 1.13686582930499px"/>
      <rect x="213.5" y="75.7" width="216.1" height="254.73" style="fill: none;stroke: #231815;stroke-miterlimit: 10;stroke-width: 1.13686582930499px"/>
      <line x1="444.2" y1="75.7" x2="458.9" y2="75.7" style="fill: none;stroke: #231815;stroke-miterlimit: 10;stroke-width: 1.13686582930499px"/>
      <line x1="444.2" y1="332.4" x2="458.9" y2="332.4" style="fill: none;stroke: #231815;stroke-miterlimit: 10;stroke-width: 1.13686582930499px"/>
      <line x1="146.5" y1="76.9" x2="146.5" y2="73.5" style="fill: none;stroke: #231815;stroke-miterlimit: 10;stroke-width: 0.456328963074075px"/>
      <line x1="444.3" y1="78.5" x2="444.3" y2="75" style="fill: none;stroke: #231815;stroke-miterlimit: 10;stroke-width: 0.456328963074075px"/>
      <line x1="444.2" y1="75.5" x2="447.7" y2="75.5" style="fill: none;stroke: #231815;stroke-miterlimit: 10;stroke-width: 0.456328963074075px"/>
      <line x1="446" y1="332.1" x2="449.4" y2="332.1" style="fill: none;stroke: #231815;stroke-miterlimit: 10;stroke-width: 0.456328963074075px"/>
      <line x1="451.6" y1="75.5" x2="451.6" y2="332" style="fill: none;stroke: #231815;stroke-miterlimit: 10;stroke-width: 0.793959670718509px"/>
      <line x1="132" y1="75.7" x2="146.6" y2="75.7" style="fill: none;stroke: #231815;stroke-miterlimit: 10;stroke-width: 1.13686582930499px"/>
      <line x1="132" y1="332.4" x2="146.6" y2="332.4" style="fill: none;stroke: #231815;stroke-miterlimit: 10;stroke-width: 1.13686582930499px"/>
      <line x1="139.3" y1="75.5" x2="139.3" y2="332" style="fill: none;stroke: #231815;stroke-miterlimit: 10;stroke-width: 0.793959670718509px"/>
      <line x1="132" y1="75.5" x2="132" y2="332" style="fill: none;stroke: #231815;stroke-miterlimit: 10;stroke-width: 0.793959670718509px"/>
    </g>
  </g>
</svg>
