<svg xmlns="http://www.w3.org/2000/svg" width="141.1" height="35.2" viewBox="0 0 141.1 35.2">
  <g style="opacity: 0.79">
    <polygon points="118 0 141.1 0 141.1 8.2 134.6 8.2 134.6 34.8 124.6 34.8 124.6 8.2 118.2 8.2 118 0" style="fill: #fff"/>
    <polygon points="86.4 0 96.4 0 96.4 12.7 105.3 12.7 105.3 0 115.2 0 115.2 34.8 105.3 34.8 105.3 21.8 96.4 21.8 96.4 34.8 86.4 34.8 86.4 0" style="fill: #fff"/>
    <rect x="50.9" width="9.6" height="34.84" style="fill: #fff"/>
    <polygon points="23.9 0 47.7 0 47.7 8.2 33.8 8.2 33.8 12.8 43.4 12.8 43.4 21.8 33.8 21.8 33.8 26.4 47.4 26.4 47.4 34.8 23.9 34.8 23.9 0" style="fill: #fff"/>
    <polygon points="0 0 10 0 10 26.4 21.5 26.4 21.5 34.8 0 34.8 0 0" style="fill: #fff"/>
    <path d="M83.7,8.2c-3.7-.3-7.8.7-10,4.4a9.7,9.7,0,0,0-.6,8.6,9.3,9.3,0,0,0,6.1,5.2,17.6,17.6,0,0,0,4,.2v8.5c-7.6.7-14.6-2.2-18.4-8.9s-2.8-13.4.8-18.4A18.2,18.2,0,0,1,83.8.3Z" style="fill: #fff"/>
    <polygon points="117.9 0 141.1 0 141.1 8.2 134.6 8.2 134.6 34.8 124.7 34.8 124.7 8.2 117.9 8.2 117.9 0" style="fill: #fff"/>
  </g>
</svg>
