<svg xmlns="http://www.w3.org/2000/svg" width="192.8" height="33.7" viewBox="0 0 192.8 33.7">
  <g style="opacity: 0.79">
    <path d="M25.3.7V5c-9.6-1.6-17,.5-16.9,9.7s7.1,11.2,16.9,9.5v4.3C12.8,30.4,1.2,27.2.1,16.4-1.2,3.6,11.3-2.1,25.3.7" style="fill: #fff"/>
    <path d="M64.5,19.3H47.7c.1,6.6,9.1,6.4,14.9,5,.4.9-.1,2.6,0,3.8-7.8,1.9-16.9,1.3-20-4.4C40.3,19.6,40.8,12.9,44,9.5s13.5-4.8,17.6-.4c2.3,2.4,2.9,5.6,2.9,10.2M47.7,15.5h9.8c.5-7.4-9.8-7.3-9.8,0" style="fill: #fff"/>
    <path d="M89.1,28.5c-8.4.5-21.8,2.7-21.3-7.1.3-6.3,9.2-6.3,14.9-6.1,1.1-7-8.9-4.8-13.4-4.2V7C75.4,6.3,84,5.3,87.4,8.9s1.5,12.3,1.7,19.6m-14-4.7c1.1,1.8,4.9,1.2,7.6,1.1V19.1c-4.7-.3-10.4.2-7.6,4.7" style="fill: #fff"/>
    <rect x="30.8" y="0.5" width="6.1" height="28.41" style="fill: #fff"/>
    <path d="M128.5,7.7l-8.1,17.7s-.6,2.4,1.2,2.9h15.8s2-.3,1.4-2.6L130.7,7.6s-1-2-2.2.1" style="fill: #fff"/>
    <path d="M94,6.6v22h6.3V12.4s7.8-3,8.9.5V28.6h6.5V12s-.3-9.7-16-3.4v-2Z" style="fill: #fff"/>
    <path d="M148.5,6.6h-6.3v16s.1,10.9,15.9,4.1v1.7h5.7V6.7h-6.3V22.6s-7.5,4.1-8.9-1Z" style="fill: #fff"/>
    <path d="M181.8,5.8s-8-.4-13.6,0V33.7h6.7v-5a50.5,50.5,0,0,0,7.8-.1s9.2-.5,9.9-9.9c0,0,2.2-11.4-10.8-12.9m3,13.7a6.3,6.3,0,0,1-4.9,5h-5V10h5.4c5.8,2,4.5,9.5,4.5,9.5" style="fill: #fff"/>
  </g>
</svg>
