<svg xmlns="http://www.w3.org/2000/svg" width="180" height="40" viewBox="0 0 180 40">
  <g>
    <path d="M180,37.8a2,2,0,0,1-2.2,2.2H2.2A2,2,0,0,1,0,37.8V2.2A2,2,0,0,1,2.2,0H177.8A2,2,0,0,1,180,2.2Z" style="fill: #d01727"/>
    <g>
      <path d="M36.8,9.2v3.3c-7.3-1.2-12.8.3-12.7,7.3s5.3,8.4,12.7,7.1v3.2c-9.4,1.5-18.1-.9-19-9.1S26.3,7.1,36.8,9.2Z" style="fill: #fff"/>
      <path d="M66.2,23.2H53.6c.1,5,6.8,4.8,11.2,3.8.3.7-.1,1.9,0,2.8-5.9,1.5-12.7,1-15-3.3s-1.4-8.1,1-10.7,10.1-3.5,13.2-.3S66.2,19.8,66.2,23.2ZM53.6,20.4H61C61.3,14.8,53.6,14.8,53.6,20.4Z" style="fill: #fff"/>
      <path d="M84.7,30.1c-6.3.4-16.4,2.1-16-5.3.2-4.7,6.9-4.8,11.2-4.6.8-5.3-6.7-3.6-10.1-3.2V14c4.6-.5,11-1.3,13.6,1.4S84.5,24.6,84.7,30.1ZM74.2,26.6c.8,1.4,3.6.9,5.7.8V23C76.4,22.8,72,23.2,74.2,26.6Z" style="fill: #fff"/>
      <rect x="40.9" y="9.1" width="4.6" height="21.34" style="fill: #fff"/>
      <path d="M114.2,14.5l-6,13.3s-.5,1.8.9,2.2h11.8a1.5,1.5,0,0,0,1.1-2l-6.1-13.6S115.1,12.9,114.2,14.5Z" style="fill: #fff"/>
      <path d="M88.4,13.6V30.2H93V18s5.8-2.2,6.7.4V30.2h4.9V17.8s-.2-7.4-12-2.6V13.6Z" style="fill: #fff"/>
      <path d="M129.3,13.7h-4.8v12s.1,8.2,12,3.1v1.3h4.3V13.8h-4.7V25.7s-5.7,3.1-6.7-.7Z" style="fill: #fff"/>
      <path d="M154.3,13.1s-6-.3-10.2-.1V34.1h5.1V30.2a32.9,32.9,0,0,0,5.8,0s6.9-.4,7.5-7.5C162.5,22.7,164.1,14.2,154.3,13.1Zm2.3,10.2a5,5,0,0,1-3.7,3.9h-3.7V16.2h4C157.5,17.8,156.6,23.3,156.6,23.3Z" style="fill: #fff"/>
    </g>
  </g>
</svg>
