<svg xmlns="http://www.w3.org/2000/svg" width="180" height="40.1" viewBox="0 0 180 40.1">
  <g>
    <polygon points="175.5 0.3 149.5 0.3 149.5 8.7 157.4 8.7 157.4 39.8 167.9 39.8 167.9 8.7 175.5 8.7 175.5 0.3" style="fill: #231815"/>
    <rect x="60.1" y="0.3" width="10.1" height="39.55" style="fill: #231815"/>
    <polygon points="55.5 8.7 55.5 0.3 28.9 0.3 28.9 39.8 55.1 39.8 55.1 31.1 39.3 31.1 39.3 24.6 50.5 24.6 50.5 15.1 39.3 15.1 39.3 8.7 55.5 8.7" style="fill: #231815"/>
    <polygon points="0 0.3 0 39.8 23.9 39.8 23.9 31 10.6 31 10.6 0.3 0 0.3" style="fill: #231815"/>
    <polygon points="144.5 39.8 144.5 0.3 134.1 0.3 134.1 15.1 122.6 15.1 122.6 0.3 112.2 0.3 112.2 39.8 122.6 39.8 122.6 24.6 134.1 24.6 134.1 39.8 144.5 39.8" style="fill: #231815"/>
    <path d="M174.3,34.3a2.9,2.9,0,0,0-.9,2.1,2.9,2.9,0,0,0,.9,2.2,2.9,2.9,0,0,0,2.1.9,3.1,3.1,0,0,0,3.1-3.1,2.9,2.9,0,0,0-.9-2.1,2.9,2.9,0,0,0-2.2-.9,2.9,2.9,0,0,0-2.1.9M179,39a3.5,3.5,0,0,1-2.6,1,3.3,3.3,0,0,1-2.5-1,3.5,3.5,0,0,1-1-2.6,3.5,3.5,0,0,1,1-2.5,3.3,3.3,0,0,1,2.5-1,3.5,3.5,0,0,1,2.6,1,3.3,3.3,0,0,1,1,2.5,3.5,3.5,0,0,1-1,2.6m-1.9-3.9a1.5,1.5,0,0,0-.8-.2h-.6v1.5H177a.7.7,0,0,0,.4-.6.6.6,0,0,0-.3-.6m-.7-.6h1a1,1,0,0,1,.6,1,1.1,1.1,0,0,1-.3.8l-.6.2a.9.9,0,0,1,.7.3,1.4,1.4,0,0,1,.2.6v.8h-.6v-.3a1,1,0,0,0-.4-.9,1.5,1.5,0,0,0-.8-.2h-.5v1.6H175V34.5Z" style="fill: #231815;fill-rule: evenodd"/>
    <path d="M95.2,0a20.1,20.1,0,0,0,0,40.1,20.7,20.7,0,0,0,7.4-1.4,23.3,23.3,0,0,0,5.7-3.4l-7.1-7.1a8.6,8.6,0,0,1-2.3,1.3,11.1,11.1,0,0,1-3.7.7,10.2,10.2,0,0,1,0-20.3,9.5,9.5,0,0,1,3.8.7l1.9,1,7.1-7a18.9,18.9,0,0,0-5.3-3.1A19,19,0,0,0,95.2,0" style="fill: #231815"/>
  </g>
</svg>
