<svg xmlns="http://www.w3.org/2000/svg" width="244" height="42.7" viewBox="0 0 244 42.7">
  <g>
    <path d="M32,.9V6.4c-12.2-2.1-21.5.5-21.4,12.2s9,14.2,21.4,12v5.5C16.2,38.5,1.5,34.4.1,20.8-1.6,4.6,14.4-2.7,32,.9" style="fill: #fff"/>
    <path d="M81.6,24.4H60.4c.1,8.4,11.5,8.1,18.8,6.4.5,1.1-.1,3.2,0,4.8C69.3,38,57.9,37.2,53.9,30c-2.9-5.2-2.3-13.7,1.8-18s17.1-6,22.2-.5c2.9,3.1,3.7,7.1,3.7,12.9M60.4,19.6H72.8c.6-9.4-12.4-9.3-12.4,0" style="fill: #fff"/>
    <path d="M112.8,36c-10.6.7-27.6,3.5-27-8.9.4-8,11.6-8,18.9-7.7,1.4-9-11.4-6.1-17-5.4V8.8c7.7-.8,18.6-2.1,22.9,2.5s1.9,15.5,2.2,24.7M95,30.1c1.4,2.3,6.2,1.6,9.7,1.4V24.1c-6-.3-13.2.3-9.7,6" style="fill: #fff"/>
    <rect x="39" y="0.6" width="7.7" height="35.96" style="fill: #fff"/>
    <path d="M162.6,9.7,152.4,32.2s-.8,3,1.5,3.6h20s2.6-.4,1.8-3.3L165.4,9.6s-1.3-2.5-2.8.1" style="fill: #fff"/>
    <path d="M119,8.3V36.2h7.9V15.7s9.9-3.8,11.3.7V36.2h8.1v-21s-.5-12.3-20.4-4.3V8.3Z" style="fill: #fff"/>
    <path d="M188,8.4h-8.1V28.6s.2,13.9,20.2,5.2V36h7.2V8.5h-7.9V28.6s-9.6,5.2-11.3-1.2Z" style="fill: #fff"/>
    <path d="M230,7.4a163.3,163.3,0,0,0-17.1-.1V42.7h8.5V36.3a51,51,0,0,0,9.8-.1s11.7-.7,12.6-12.6c0,0,2.8-14.4-13.8-16.2m3.9,17.3a8.1,8.1,0,0,1-6.3,6.4l-6.2-.2V12.6h6.8c7.4,2.5,5.7,12,5.7,12" style="fill: #fff"/>
  </g>
</svg>
