<svg xmlns="http://www.w3.org/2000/svg" xmlns:xlink="http://www.w3.org/1999/xlink" width="258.9" height="62.7" viewBox="0 0 258.9 62.7">
  <defs>
    <linearGradient id="a" data-name="白、黑" x1="-17467.65" y1="3713.13" x2="-17404.93" y2="3713.13" gradientTransform="translate(-9476.2 14986.3) rotate(135)" gradientUnits="userSpaceOnUse">
      <stop offset="0" stop-color="#fff"/>
      <stop offset="1"/>
    </linearGradient>
    <linearGradient id="b" data-name="未命名漸層 7" x1="166.96" y1="31.99" x2="227.77" y2="31.99" gradientUnits="userSpaceOnUse">
      <stop offset="0"/>
      <stop offset="0.72" stop-color="#4d4d4d"/>
    </linearGradient>
  </defs>
  <g>
    <g>
      <path d="M1.6,43.6a9.3,9.3,0,0,0,5,1.5c2.8,0,4.1-1.3,4.1-3.1s-1.1-2.8-3.9-3.9-5.6-3.4-5.6-5.9S4,26,8.5,26a10.7,10.7,0,0,1,5.2,1.3l-1,2.8a8.2,8.2,0,0,0-4.3-1.2c-2.3,0-3.5,1.3-3.5,2.8s1.2,2.6,4,3.6,5.5,3.2,5.5,6.4S11.5,48,6.5,48A11.7,11.7,0,0,1,.6,46.5Z" style="stroke: #000;stroke-miterlimit: 10;stroke-width: 1.011989951133728px"/>
      <path d="M36.9,41.8c0,2.2.1,4.1.2,5.7H33.7l-.2-3.4h-.1A7.9,7.9,0,0,1,26.5,48c-3.4,0-7.3-1.8-7.3-9.2V26.5H23V38.1c0,4,1.2,6.7,4.7,6.7a5.5,5.5,0,0,0,5.1-3.4,6.4,6.4,0,0,0,.3-2V26.5h3.8Z" style="stroke: #000;stroke-miterlimit: 10;stroke-width: 1.011989951133728px"/>
      <path d="M43.1,47.5c.1-1.4.2-3.5.2-5.4V16.6h3.8V29.9h.1A7.7,7.7,0,0,1,54.4,26c5.2,0,8.9,4.3,8.8,10.7S58.5,48,53.8,48a7.7,7.7,0,0,1-7.1-3.9h-.1l-.2,3.4Zm4-8.4A6.1,6.1,0,0,0,53,45c4,0,6.4-3.3,6.4-8.1S57.2,29,53.1,29a6.1,6.1,0,0,0-5.8,4.7,7.8,7.8,0,0,0-.2,1.6Z" style="stroke: #000;stroke-miterlimit: 10;stroke-width: 1.011989951133728px"/>
      <path d="M68.1,32.2c0-2.2-.1-4-.2-5.7h3.3l.2,3.4h.1A7.4,7.4,0,0,1,78.2,26a6.2,6.2,0,0,1,5.9,4.2h.1a8,8,0,0,1,2.4-2.7A6.7,6.7,0,0,1,91.2,26c2.8,0,6.9,1.8,6.9,9.1V47.5H94.4V35.6c0-4-1.5-6.5-4.6-6.5a4.8,4.8,0,0,0-4.5,3.5,5.4,5.4,0,0,0-.3,1.9v13H81.2V34.9c0-3.3-1.4-5.8-4.4-5.8A5.2,5.2,0,0,0,72.1,33a5.2,5.2,0,0,0-.3,1.8V47.5H68.1Z" style="stroke: #000;stroke-miterlimit: 10;stroke-width: 1.011989951133728px"/>
      <path d="M108.6,20.6a2.2,2.2,0,0,1-2.4,2.3,2.2,2.2,0,0,1-2.3-2.3,2.3,2.3,0,0,1,2.4-2.4A2.2,2.2,0,0,1,108.6,20.6Zm-4.3,26.9v-21h3.9v21Z" style="stroke: #000;stroke-miterlimit: 10;stroke-width: 1.011989951133728px"/>
      <path d="M119.1,20.4v6.1h5.5v2.9h-5.5V40.7c0,2.7.8,4.1,2.9,4.1l2.2-.2.2,2.8a7.4,7.4,0,0,1-3.4.6,5.3,5.3,0,0,1-4.1-1.6c-1.1-1.2-1.5-3-1.5-5.5V29.4h-3.3V26.5h3.3V21.4Z" style="stroke: #000;stroke-miterlimit: 10;stroke-width: 1.011989951133728px"/>
    </g>
    <circle cx="227.6" cy="31.4" r="30.9" style="fill: none;stroke-miterlimit: 10;stroke-width: 1.01198935508728px;stroke: url(#a)"/>
    <path d="M167.2,4.3l59.4,28.1L167.2,59.7" style="fill: none;stroke-miterlimit: 10;stroke-width: 1.01198935508728px;stroke: url(#b)"/>
  </g>
</svg>
