<svg xmlns="http://www.w3.org/2000/svg" width="158.8" height="34.2" viewBox="0 0 158.8 34.2">
  <g>
    <path d="M29.1,32V29.3l.5.3a9.9,9.9,0,0,1-.5,2.4Zm0-4.9a43.8,43.8,0,0,1,2.3,5.4l3.9-1.9a28.6,28.6,0,0,0-3.2-6l-3,1.3v1.2Zm0-4.4V18.9H34v3.8Zm0-5.1V14.1h0V11.2h0V7.7h4v9.9Zm0-11.4V2.5h4.1V6.2Zm0-3.7V6.2h-1V2.5Zm0,5.2v3.5h-1V7.7Zm0,6.4v3.5h-1V14.1Zm0,4.8v3.8h-1V18.9Zm0,7v1.2l-.6-.9.6-.3Zm0,3.4V32c-.3.6-.5,1.1-.9,1.3h-.1V28.7Zm-1-26.8V6.2H24.6V7.7h3.5v3.5h-1v2.9h1v3.5H22.5V14.1h.9V11.2h-.9V.1h2.1V2.5Zm0,16.4v3.8h-5a14.3,14.3,0,0,1,3.2,2.8l-2.5,3.2a10.1,10.1,0,0,0-1.3-1.6V18.9Zm0,9.8-2.4-1.3c-.1,1.3-.2,2-.2,2.2a1.3,1.3,0,0,1-.7.9H22.5V34a24.7,24.7,0,0,0,3.8-.2,4.8,4.8,0,0,0,1.8-.4ZM22.5.1V11.2h-.9v2.9h.9v3.5H17V14.1h1V11.2H17V7.7h3.4V6.2H17V2.5h3.4V.1Zm0,18.8v8.2a15.8,15.8,0,0,0-2.3-2.2l2.2-2.2H17V18.9Zm0,11.7H20.7c-.6-.1-.8-.5-.8-1.3V25H17v8.2a3.2,3.2,0,0,0,2,.6l2.6.2h.9ZM17,2.5V6.2H11.9V2.5Zm0,5.2v3.5H16v2.9h1v3.5H12.1V7.7Zm0,11.2v3.8H11.2V18.9ZM17,25v8.2a3.2,3.2,0,0,1-1.1-2.7V25Zm-5.8,7.6V26.7l.7-1.8,3.6,1.7a24.7,24.7,0,0,1-3.3,6.9l-1-.9ZM10.1,1.8l.4.2a2.5,2.5,0,0,0-.4.7V1.8Zm1.1,10h0a21.2,21.2,0,0,1-1.1,2.1V11.1l1.1.7Zm0,7.1v3.8h0V18.9Zm0,7.8v5.9l-1.1-.9V29A16.3,16.3,0,0,0,11.2,26.7ZM6.7,0l3.4,1.8v.9A24.1,24.1,0,0,1,7.5,6.6l-2,2.3V2A15.1,15.1,0,0,0,6.7,0Zm3.4,11.1v2.8a24.9,24.9,0,0,1-1.9,3V34H5.5V12.9A22.6,22.6,0,0,0,7.3,9.5l2.8,1.6Zm0,17.9c-.4.6-.7,1.2-1.1,1.7l1.1,1ZM5.5,8.9,3.4,10.8.6,7.1C1.7,6.2,2.9,5,4.2,3.7L5.5,2V8.9Zm0,4V34H4.1V21.6a7.1,7.1,0,0,1-1.3,1.2L0,19.1a27.7,27.7,0,0,0,4.2-4.6A18.3,18.3,0,0,0,5.5,12.9Z" style="fill: #1a1a1a"/>
    <path d="M70.3,5.3l2.3,4.1c-3.2.7-6.9,1.4-11,1.9V6.9a76.2,76.2,0,0,0,8.7-1.6Zm-8.7,8.4H74v3.9H68.1V28.5H63.5V17.6H61.6V13.7Zm0,19.7V29.3H75.3v4.1Zm0-28.6V.7H75.3V4.8Zm0,6.5-5.2.6v1.8h5.2v3.9H56.4a27.3,27.3,0,0,1-.9,7.1,13.1,13.1,0,0,1-2.6,4.1l-3.6-2.9a9.7,9.7,0,0,0,1.9-3.5c.5-1.6.8-4.7.8-9.2V7.9c3.6-.2,6.8-.6,9.6-1v4.4ZM61.6.7H44.1V34.2h4.5v-.8h13V29.3h-13V4.8h13Z" style="fill: #1a1a1a"/>
    <path d="M103.2,3h11.6V6.2a28.6,28.6,0,0,1-10.8,10l-.8.5v-5a20,20,0,0,0,5.6-4.6h-5.6V3Zm0,15.7h12.6V34h-4.3V32.5h-8.3V28.3h8.3V22.8h-8.3ZM95.1.1l4.4,1.3a6.2,6.2,0,0,1-1,1.6h4.7V7.1H95.6a1.7,1.7,0,0,0-.6.6,31.5,31.5,0,0,1-6.1,5.4l-3.8-3a24.7,24.7,0,0,0,5.8-4.8A22.8,22.8,0,0,0,95.1.1Zm8.1,16.6v-5a22.9,22.9,0,0,1-2.7,1.4,33.3,33.3,0,0,0-4.9-3.8l-3.7,2.8a35.7,35.7,0,0,1,3.7,3.1,67.5,67.5,0,0,1-12,2.6L86,22.2a35.6,35.6,0,0,0,4.7-1V34H95V32.5h8.2V28.3H95V22.8h8.2V18.7H98.9Z" style="fill: #1a1a1a"/>
    <path d="M149.2,33.3V29.5a13.5,13.5,0,0,0,2.8.4.8.8,0,0,0,.8-.5,5,5,0,0,0,.2-1.9V15.3h-3.8V11.4H153V6.7h4v4.7h1.8v3.9H157V28.5a7.7,7.7,0,0,1-.8,4.1,4.6,4.6,0,0,1-3.6,1.2,9.7,9.7,0,0,1-3.4-.5Zm0-8.5,2.6-.8a30,30,0,0,0-1.6-6.4l-1,.4v6.8Zm0-18.6V2.4h9.6V6.2Zm-11.3.4h2.8V8.1h5.6v3.6h-5.6v1.2h4.5v3.6h-7.3V6.6Zm11.3-4.2V6.2H137.9V2.4h11.3Zm0,9v3.9h-2.6V11.4Zm0,6.6v6.8l-1.4.5a31.1,31.1,0,0,0-1.4-6.5l2.8-.8Zm0,11.5v3.8l-.5-.2L148,29l1.2.5Zm-11.3,3.6V29.3H139a6.1,6.1,0,0,1,.5-1.2c.3-.9.5-1.7.8-2.5h-2.4V22h3.8V20.6h-3.8V17.2h7.6v8.3h-3.4l2.2.7a7.7,7.7,0,0,1-1,2.5v.2l2.4-.2.6,3.6Zm-7-25h5.9V6.6h1.1v9.9h-6V12.9h4.9V11.7h-5.9V8.1Zm7-5.7H126.4V15.5c0,2.8-.1,5.5-.3,8.2s-.7,4.9-1.3,7.9l3.8,2.2a61,61,0,0,0,1.4-7.2,69,69,0,0,0,.5-9.2V6.2h7.4V2.4Zm0,14.8v3.4h-2.8V22h2.8v3.5h-2.1a10,10,0,0,1,1.7,2.8l-2,1.2,2.4-.2v3.8c-2.2.3-4.5.4-6.8.6l-.7-4h3a14.9,14.9,0,0,0-2-2.9l1.9-1.2h-2.1V17.2Z" style="fill: #1a1a1a"/>
  </g>
</svg>
