<svg xmlns="http://www.w3.org/2000/svg" width="199" height="105.4" viewBox="0 0 199 105.4">
  <g>
    <rect x="48.6" y="13.5" width="149.4" height="90.82" style="fill: none;stroke: #959595;stroke-miterlimit: 10;stroke-width: 1.99064826965332px"/>
    <circle cx="123.3" cy="57.6" r="25.3" style="fill: none;stroke: #959595;stroke-miterlimit: 10;stroke-width: 1.99064826965332px"/>
    <circle cx="123.3" cy="57.6" r="20.8" style="fill: none;stroke: #959595;stroke-miterlimit: 10;stroke-width: 1.99064826965332px"/>
    <g>
      <line x1="10" y1="96.3" x2="10" y2="46.2" style="fill: none;stroke: #959595;stroke-miterlimit: 10;stroke-width: 1.99064826965332px"/>
      <path d="M19.6,59.8a1,1,0,0,1-1.4-.3L10,46.7,1.8,59.5a.9.9,0,0,1-1.3.3.9.9,0,0,1-.3-1.3l9-14.2a1,1,0,0,1,.8-.5,1.1,1.1,0,0,1,.9.5l9,14.2a.7.7,0,0,1,.1.5A.9.9,0,0,1,19.6,59.8Z" style="fill: #959595"/>
    </g>
    <rect x="114.6" y="1" width="20.3" height="12.54" style="fill: none;stroke: #959595;stroke-miterlimit: 10;stroke-width: 1.99064826965332px"/>
    <rect x="48.6" y="3.5" width="28.8" height="100.82" style="fill: none;stroke: #959595;stroke-miterlimit: 10;stroke-width: 1.99064826965332px"/>
  </g>
</svg>
